<svg id="rendered-01-system-architecture" width="100%" xmlns="http://www.w3.org/2000/svg" style="max-width: 2327.51953125px;" viewBox="-8 -8 2327.51953125 1059.2830810546875" role="graphics-document document" aria-roledescription="flowchart-v2"><style>#rendered-01-system-architecture{font-family:"trebuchet ms",verdana,arial,sans-serif;font-size:16px;fill:#333;}#rendered-01-system-architecture .error-icon{fill:#552222;}#rendered-01-system-architecture .error-text{fill:#552222;stroke:#552222;}#rendered-01-system-architecture .edge-thickness-normal{stroke-width:2px;}#rendered-01-system-architecture .edge-thickness-thick{stroke-width:3.5px;}#rendered-01-system-architecture .edge-pattern-solid{stroke-dasharray:0;}#rendered-01-system-architecture .edge-pattern-dashed{stroke-dasharray:3;}#rendered-01-system-architecture .edge-pattern-dotted{stroke-dasharray:2;}#rendered-01-system-architecture .marker{fill:#333333;stroke:#333333;}#rendered-01-system-architecture .marker.cross{stroke:#333333;}#rendered-01-system-architecture svg{font-family:"trebuchet ms",verdana,arial,sans-serif;font-size:16px;}#rendered-01-system-architecture .label{font-family:"trebuchet ms",verdana,arial,sans-serif;color:#333;}#rendered-01-system-architecture .cluster-label text{fill:#333;}#rendered-01-system-architecture .cluster-label span,#rendered-01-system-architecture p{color:#333;}#rendered-01-system-architecture .label text,#rendered-01-system-architecture span,#rendered-01-system-architecture p{fill:#333;color:#333;}#rendered-01-system-architecture .node rect,#rendered-01-system-architecture .node circle,#rendered-01-system-architecture .node ellipse,#rendered-01-system-architecture .node polygon,#rendered-01-system-architecture .node path{fill:#ECECFF;stroke:#9370DB;stroke-width:1px;}#rendered-01-system-architecture .flowchart-label text{text-anchor:middle;}#rendered-01-system-architecture .node .katex path{fill:#000;stroke:#000;stroke-width:1px;}#rendered-01-system-architecture .node .label{text-align:center;}#rendered-01-system-architecture .node.clickable{cursor:pointer;}#rendered-01-system-architecture .arrowheadPath{fill:#333333;}#rendered-01-system-architecture .edgePath .path{stroke:#333333;stroke-width:2.0px;}#rendered-01-system-architecture .flowchart-link{stroke:#333333;fill:none;}#rendered-01-system-architecture .edgeLabel{background-color:#e8e8e8;text-align:center;}#rendered-01-system-architecture .edgeLabel rect{opacity:0.5;background-color:#e8e8e8;fill:#e8e8e8;}#rendered-01-system-architecture .labelBkg{background-color:rgba(232, 232, 232, 0.5);}#rendered-01-system-architecture .cluster rect{fill:#ffffde;stroke:#aaaa33;stroke-width:1px;}#rendered-01-system-architecture .cluster text{fill:#333;}#rendered-01-system-architecture .cluster span,#rendered-01-system-architecture p{color:#333;}#rendered-01-system-architecture div.mermaidTooltip{position:absolute;text-align:center;max-width:200px;padding:2px;font-family:"trebuchet ms",verdana,arial,sans-serif;font-size:12px;background:hsl(80, 100%, 96.2745098039%);border:1px solid #aaaa33;border-radius:2px;pointer-events:none;z-index:100;}#rendered-01-system-architecture .flowchartTitleText{text-anchor:middle;font-size:18px;fill:#333;}#rendered-01-system-architecture :root{--mermaid-font-family:"trebuchet ms",verdana,arial,sans-serif;}</style><g><marker id="rendered-01-system-architecture_flowchart-pointEnd" class="marker flowchart" viewBox="0 0 10 10" refX="6" refY="5" markerUnits="userSpaceOnUse" markerWidth="12" markerHeight="12" orient="auto"><path d="M 0 0 L 10 5 L 0 10 z" class="arrowMarkerPath" style="stroke-width: 1; stroke-dasharray: 1, 0;"></path></marker><marker id="rendered-01-system-architecture_flowchart-pointStart" class="marker flowchart" viewBox="0 0 10 10" refX="4.5" refY="5" markerUnits="userSpaceOnUse" markerWidth="12" markerHeight="12" orient="auto"><path d="M 0 5 L 10 10 L 10 0 z" class="arrowMarkerPath" style="stroke-width: 1; stroke-dasharray: 1, 0;"></path></marker><marker id="rendered-01-system-architecture_flowchart-circleEnd" class="marker flowchart" viewBox="0 0 10 10" refX="11" refY="5" markerUnits="userSpaceOnUse" markerWidth="11" markerHeight="11" orient="auto"><circle cx="5" cy="5" r="5" class="arrowMarkerPath" style="stroke-width: 1; stroke-dasharray: 1, 0;"></circle></marker><marker id="rendered-01-system-architecture_flowchart-circleStart" class="marker flowchart" viewBox="0 0 10 10" refX="-1" refY="5" markerUnits="userSpaceOnUse" markerWidth="11" markerHeight="11" orient="auto"><circle cx="5" cy="5" r="5" class="arrowMarkerPath" style="stroke-width: 1; stroke-dasharray: 1, 0;"></circle></marker><marker id="rendered-01-system-architecture_flowchart-crossEnd" class="marker cross flowchart" viewBox="0 0 11 11" refX="12" refY="5.2" markerUnits="userSpaceOnUse" markerWidth="11" markerHeight="11" orient="auto"><path d="M 1,1 l 9,9 M 10,1 l -9,9" class="arrowMarkerPath" style="stroke-width: 2; stroke-dasharray: 1, 0;"></path></marker><marker id="rendered-01-system-architecture_flowchart-crossStart" class="marker cross flowchart" viewBox="0 0 11 11" refX="-1" refY="5.2" markerUnits="userSpaceOnUse" markerWidth="11" markerHeight="11" orient="auto"><path d="M 1,1 l 9,9 M 10,1 l -9,9" class="arrowMarkerPath" style="stroke-width: 2; stroke-dasharray: 1, 0;"></path></marker><g class="root"><g class="clusters"><g class="cluster default flowchart-label" id="Data"><rect style="" rx="0" ry="0" x="28.15625" y="922" width="1829.203125" height="121.28311920166016"></rect><g class="cluster-label" transform="translate(904.1875, 922)"><foreignObject width="77.140625" height="19"><div xmlns="http://www.w3.org/1999/xhtml" style="display: inline-block; white-space: nowrap;"><span class="nodeLabel">Data Layer</span></div></foreignObject></g></g><g class="cluster default flowchart-label" id="External"><rect style="" rx="0" ry="0" x="1883.63671875" y="922" width="362.9375" height="121.28311920166016"></rect><g class="cluster-label" transform="translate(2003.73828125, 922)"><foreignObject width="122.734375" height="19"><div xmlns="http://www.w3.org/1999/xhtml" style="display: inline-block; white-space: nowrap;"><span class="nodeLabel">External Services</span></div></foreignObject></g></g><g class="cluster default flowchart-label" id="Realtime"><rect style="" rx="0" ry="0" x="200.5546875" y="0" width="2076.09765625" height="84"></rect><g class="cluster-label" transform="translate(1184.806640625, 0)"><foreignObject width="107.59375" height="19"><div xmlns="http://www.w3.org/1999/xhtml" style="display: inline-block; white-space: nowrap;"><span class="nodeLabel">Realtime Layer</span></div></foreignObject></g></g><g class="cluster default flowchart-label" id="Services"><rect style="" rx="0" ry="0" x="0" y="679" width="1832.40625" height="193"></rect><g class="cluster-label" transform="translate(865.5625, 679)"><foreignObject width="101.28125" height="19"><div xmlns="http://www.w3.org/1999/xhtml" style="display: inline-block; white-space: nowrap;"><span class="nodeLabel">Business Logic</span></div></foreignObject></g></g><g class="cluster default flowchart-label" id="Backend"><rect style="" rx="0" ry="0" x="1852.40625" y="402" width="393.58203125" height="361"></rect><g class="cluster-label" transform="translate(1948.259765625, 402)"><foreignObject width="201.875" height="19"><div xmlns="http://www.w3.org/1999/xhtml" style="display: inline-block; white-space: nowrap;"><span class="nodeLabel">Backend API (Express.js 5.x)</span></div></foreignObject></g></g><g class="cluster default flowchart-label" id="CDN"><rect style="" rx="0" ry="0" x="1896.33203125" y="268" width="390.078125" height="84"></rect><g class="cluster-label" transform="translate(2048.11328125, 268)"><foreignObject width="86.515625" height="19"><div xmlns="http://www.w3.org/1999/xhtml" style="display: inline-block; white-space: nowrap;"><span class="nodeLabel">CDN / Proxy</span></div></foreignObject></g></g><g class="cluster default flowchart-label" id="Clients"><rect style="" rx="0" ry="0" x="1868.17578125" y="134" width="443.34375" height="84"></rect><g class="cluster-label" transform="translate(2022.75390625, 134)"><foreignObject width="134.1875" height="19"><div xmlns="http://www.w3.org/1999/xhtml" style="display: inline-block; white-space: nowrap;"><span class="nodeLabel">Client Applications</span></div></foreignObject></g></g></g><g class="edgePaths"><path d="M2238.145,193L2238.145,197.167C2238.145,201.333,2238.145,209.667,2238.145,218C2238.145,226.333,2238.145,234.667,2238.145,243C2238.145,251.333,2238.145,259.667,2224.91,267.749C2211.675,275.832,2185.205,283.664,2171.97,287.58L2158.735,291.496" id="L-Web-Nginx-0" class=" edge-thickness-normal edge-pattern-solid flowchart-link LS-Web LE-Nginx" style="fill:none;" marker-end="url(#rendered-01-system-architecture_flowchart-pointEnd)"></path><path d="M2103.238,193L2103.238,197.167C2103.238,201.333,2103.238,209.667,2103.238,218C2103.238,226.333,2103.238,234.667,2103.238,243C2103.238,251.333,2103.238,259.667,2102.686,267.129C2102.134,274.591,2101.029,281.182,2100.477,284.477L2099.924,287.773" id="L-Mobile-Nginx-0" class=" edge-thickness-normal edge-pattern-solid flowchart-link LS-Mobile LE-Nginx" style="fill:none;" marker-end="url(#rendered-01-system-architecture_flowchart-pointEnd)"></path><path d="M1954.941,193L1954.941,197.167C1954.941,201.333,1954.941,209.667,1954.941,218C1954.941,226.333,1954.941,234.667,1954.941,243C1954.941,251.333,1954.941,259.667,1968.108,267.748C1981.275,275.83,2007.609,283.66,2020.776,287.575L2033.943,291.49" id="L-Admin-Nginx-0" class=" edge-thickness-normal edge-pattern-solid flowchart-link LS-Admin LE-Nginx" style="fill:none;" marker-end="url(#rendered-01-system-architecture_flowchart-pointEnd)"></path><path d="M2096.199,327L2096.199,331.167C2096.199,335.333,2096.199,343.667,2096.199,352C2096.199,360.333,2096.199,368.667,2096.199,377C2096.199,385.333,2096.199,393.667,2096.199,401.117C2096.199,408.567,2096.199,415.133,2096.199,418.417L2096.199,421.7" id="L-Nginx-Router-0" class=" edge-thickness-normal edge-pattern-solid flowchart-link LS-Nginx LE-Router" style="fill:none;" marker-end="url(#rendered-01-system-architecture_flowchart-pointEnd)"></path><path d="M2096.199,461L2096.199,465.167C2096.199,469.333,2096.199,477.667,2096.199,485.117C2096.199,492.567,2096.199,499.133,2096.199,502.417L2096.199,505.7" id="L-Router-Middleware-0" class=" edge-thickness-normal edge-pattern-solid flowchart-link LS-Router LE-Middleware" style="fill:none;" marker-end="url(#rendered-01-system-architecture_flowchart-pointEnd)"></path><path d="M2076.527,545L2071.706,549.167C2066.884,553.333,2057.241,561.667,2052.419,569.117C2047.598,576.567,2047.598,583.133,2047.598,586.417L2047.598,589.7" id="L-Middleware-Controllers-0" class=" edge-thickness-normal edge-pattern-solid flowchart-link LS-Middleware LE-Controllers" style="fill:none;" marker-end="url(#rendered-01-system-architecture_flowchart-pointEnd)"></path><path d="M2013.708,629L2005.402,633.167C1997.096,637.333,1980.484,645.667,1972.177,654C1963.871,662.333,1963.871,670.667,1963.871,678.117C1963.871,685.567,1963.871,692.133,1963.871,695.417L1963.871,698.7" id="L-Controllers-Routes-0" class=" edge-thickness-normal edge-pattern-solid flowchart-link LS-Controllers LE-Routes" style="fill:none;" marker-end="url(#rendered-01-system-architecture_flowchart-pointEnd)"></path><path d="M2094.551,626.821L2108.901,631.351C2123.251,635.881,2151.952,644.94,2166.302,653.637C2180.652,662.333,2180.652,670.667,2180.652,681.833C2180.652,693,2180.652,707,2180.652,721C2180.652,735,2180.652,749,2077.016,760.167C1973.379,771.333,1766.105,779.667,1662.469,787.117C1558.832,794.567,1558.832,801.133,1558.832,804.417L1558.832,807.7" id="L-Controllers-AuthService-0" class=" edge-thickness-normal edge-pattern-solid flowchart-link LS-Controllers LE-AuthService" style="fill:none;" marker-end="url(#rendered-01-system-architecture_flowchart-pointEnd)"></path><path d="M2093.358,629L2104.574,633.167C2115.789,637.333,2138.221,645.667,2149.437,654C2160.652,662.333,2160.652,670.667,2160.652,681.833C2160.652,693,2160.652,707,2160.652,721C2160.652,735,2160.652,749,2027.334,760.167C1894.016,771.333,1627.379,779.667,1494.061,787.117C1360.742,794.567,1360.742,801.133,1360.742,804.417L1360.742,807.7" id="L-Controllers-TenantService-0" class=" edge-thickness-normal edge-pattern-solid flowchart-link LS-Controllers LE-TenantService" style="fill:none;" marker-end="url(#rendered-01-system-architecture_flowchart-pointEnd)"></path><path d="M2085.263,629L2094.494,633.167C2103.726,637.333,2122.189,645.667,2131.421,654C2140.652,662.333,2140.652,670.667,2140.652,681.833C2140.652,693,2140.652,707,2140.652,721C2140.652,735,2140.652,749,1983.744,760.167C1826.836,771.333,1513.02,779.667,1356.111,787.117C1199.203,794.567,1199.203,801.133,1199.203,804.417L1199.203,807.7" id="L-Controllers-UserService-0" class=" edge-thickness-normal edge-pattern-solid flowchart-link LS-Controllers LE-UserService" style="fill:none;" marker-end="url(#rendered-01-system-architecture_flowchart-pointEnd)"></path><path d="M2077.167,629L2084.415,633.167C2091.662,637.333,2106.157,645.667,2113.405,654C2120.652,662.333,2120.652,670.667,2120.652,681.833C2120.652,693,2120.652,707,2120.652,721C2120.652,735,2120.652,749,1941.618,760.167C1762.583,771.333,1404.514,779.667,1225.48,787.117C1046.445,794.567,1046.445,801.133,1046.445,804.417L1046.445,807.7" id="L-Controllers-RoleService-0" class=" edge-thickness-normal edge-pattern-solid flowchart-link LS-Controllers LE-RoleService" style="fill:none;" marker-end="url(#rendered-01-system-architecture_flowchart-pointEnd)"></path><path d="M2069.072,629L2074.336,633.167C2079.599,637.333,2090.126,645.667,2095.389,654C2100.652,662.333,2100.652,670.667,2100.652,681.833C2100.652,693,2100.652,707,2100.652,721C2100.652,735,2100.652,749,1895.555,760.167C1690.458,771.333,1280.264,779.667,1075.167,787.117C870.07,794.567,870.07,801.133,870.07,804.417L870.07,807.7" id="L-Controllers-CalibrationService-0" class=" edge-thickness-normal edge-pattern-solid flowchart-link LS-Controllers LE-CalibrationService" style="fill:none;" marker-end="url(#rendered-01-system-architecture_flowchart-pointEnd)"></path><path d="M2060.977,629L2064.256,633.167C2067.535,637.333,2074.094,645.667,2077.373,654C2080.652,662.333,2080.652,670.667,2080.652,681.833C2080.652,693,2080.652,707,2080.652,721C2080.652,735,2080.652,749,1848.833,760.167C1617.013,771.333,1153.374,779.667,921.554,787.117C689.734,794.567,689.734,801.133,689.734,804.417L689.734,807.7" id="L-Controllers-StockService-0" class=" edge-thickness-normal edge-pattern-solid flowchart-link LS-Controllers LE-StockService" style="fill:none;" marker-end="url(#rendered-01-system-architecture_flowchart-pointEnd)"></path><path d="M2052.882,629L2054.177,633.167C2055.472,637.333,2058.062,645.667,2059.357,654C2060.652,662.333,2060.652,670.667,2060.652,681.833C2060.652,693,2060.652,707,2060.652,721C2060.652,735,2060.652,749,1802.249,760.167C1543.846,771.333,1027.04,779.667,768.637,787.117C510.234,794.567,510.234,801.133,510.234,804.417L510.234,807.7" id="L-Controllers-WarehouseService-0" class=" edge-thickness-normal edge-pattern-solid flowchart-link LS-Controllers LE-WarehouseService" style="fill:none;" marker-end="url(#rendered-01-system-architecture_flowchart-pointEnd)"></path><path d="M2000.645,626.926L1986.451,631.439C1972.257,635.951,1943.868,644.975,1929.674,653.654C1915.48,662.333,1915.48,670.667,1672.578,681.525C1429.675,692.382,943.869,705.765,700.966,712.456L458.064,719.147" id="L-Controllers-KanbanService-0" class=" edge-thickness-normal edge-pattern-solid flowchart-link LS-Controllers LE-KanbanService" style="fill:none;" marker-end="url(#rendered-01-system-architecture_flowchart-pointEnd)"></path><path d="M1532.48,847L1526.021,851.167C1519.562,855.333,1506.644,863.667,1552.019,872C1597.393,880.333,1701.06,888.667,1752.893,897C1804.727,905.333,1804.727,913.667,1802.721,921.664C1800.716,929.661,1796.706,937.321,1794.7,941.151L1792.695,944.982" id="L-AuthService-Redis-0" class=" edge-thickness-normal edge-pattern-solid flowchart-link LS-AuthService LE-Redis" style="fill:none;" marker-end="url(#rendered-01-system-architecture_flowchart-pointEnd)"></path><path d="M1608.447,847L1620.608,851.167C1632.768,855.333,1657.089,863.667,1733.136,872C1809.184,880.333,1936.957,888.667,2000.844,897C2064.73,905.333,2064.73,913.667,2056.336,924.555C2047.942,935.443,2031.153,948.886,2022.759,955.607L2014.364,962.329" id="L-AuthService-RabbitMQ-0" class=" edge-thickness-normal edge-pattern-solid flowchart-link LS-AuthService LE-RabbitMQ" style="fill:none;" marker-end="url(#rendered-01-system-architecture_flowchart-pointEnd)"></path><path d="M1678.991,847L1669.737,851.167C1660.484,855.333,1641.976,863.667,1688.197,872C1734.418,880.333,1845.367,888.667,1900.842,897C1956.316,905.333,1956.316,913.667,1959.817,924.329C1963.318,934.992,1970.319,947.984,1973.82,954.48L1977.32,960.976" id="L-EmailService-RabbitMQ-0" class=" edge-thickness-normal edge-pattern-solid flowchart-link LS-EmailService LE-RabbitMQ" style="fill:none;" marker-end="url(#rendered-01-system-architecture_flowchart-pointEnd)"></path><path d="M1741.193,847L1747.185,851.167C1753.177,855.333,1765.161,863.667,1835.039,872C1904.918,880.333,2032.691,888.667,2096.578,897C2160.465,905.333,2160.465,913.667,2160.465,924.224C2160.465,934.781,2160.465,947.561,2160.465,953.951L2160.465,960.342" id="L-EmailService-SMTP-0" class=" edge-thickness-normal edge-pattern-solid flowchart-link LS-EmailService LE-SMTP" style="fill:none;" marker-end="url(#rendered-01-system-architecture_flowchart-pointEnd)"></path><path d="M1506.441,844.733L1490.281,849.278C1474.121,853.822,1441.801,862.911,1425.641,871.622C1409.48,880.333,1409.48,888.667,1409.48,897C1409.48,905.333,1409.48,913.667,1315.727,926.864C1221.973,940.061,1034.466,958.122,940.713,967.152L846.959,976.183" id="L-AuthService-PostgreSQL-0" class=" edge-thickness-normal edge-pattern-solid flowchart-link LS-AuthService LE-PostgreSQL" style="fill:none;" marker-end="url(#rendered-01-system-architecture_flowchart-pointEnd)"></path><path d="M1360.742,847L1360.742,851.167C1360.742,855.333,1360.742,863.667,1360.742,872C1360.742,880.333,1360.742,888.667,1360.742,897C1360.742,905.333,1360.742,913.667,1275.111,926.774C1189.48,939.88,1018.217,957.761,932.586,966.701L846.955,975.641" id="L-TenantService-PostgreSQL-0" class=" edge-thickness-normal edge-pattern-solid flowchart-link LS-TenantService LE-PostgreSQL" style="fill:none;" marker-end="url(#rendered-01-system-architecture_flowchart-pointEnd)"></path><path d="M1199.203,847L1199.203,851.167C1199.203,855.333,1199.203,863.667,1199.203,872C1199.203,880.333,1199.203,888.667,1199.203,897C1199.203,905.333,1199.203,913.667,1140.491,926.325C1081.778,938.983,964.354,955.965,905.641,964.456L846.929,972.948" id="L-UserService-PostgreSQL-0" class=" edge-thickness-normal edge-pattern-solid flowchart-link LS-UserService LE-PostgreSQL" style="fill:none;" marker-end="url(#rendered-01-system-architecture_flowchart-pointEnd)"></path><path d="M1046.445,847L1046.445,851.167C1046.445,855.333,1046.445,863.667,1046.445,872C1046.445,880.333,1046.445,888.667,1046.445,897C1046.445,905.333,1046.445,913.667,1013.18,925.402C979.914,937.137,913.383,952.273,880.117,959.842L846.852,967.41" id="L-RoleService-PostgreSQL-0" class=" edge-thickness-normal edge-pattern-solid flowchart-link LS-RoleService LE-PostgreSQL" style="fill:none;" marker-end="url(#rendered-01-system-architecture_flowchart-pointEnd)"></path><path d="M870.07,847L870.07,851.167C870.07,855.333,870.07,863.667,870.07,872C870.07,880.333,870.07,888.667,870.07,897C870.07,905.333,870.07,913.667,864.553,922.44C859.036,931.214,848.001,940.429,842.483,945.036L836.966,949.643" id="L-CalibrationService-PostgreSQL-0" class=" edge-thickness-normal edge-pattern-solid flowchart-link LS-CalibrationService LE-PostgreSQL" style="fill:none;" marker-end="url(#rendered-01-system-architecture_flowchart-pointEnd)"></path><path d="M689.734,847L689.734,851.167C689.734,855.333,689.734,863.667,689.734,872C689.734,880.333,689.734,888.667,689.734,897C689.734,905.333,689.734,913.667,695.252,922.44C700.769,931.214,711.804,940.429,717.321,945.036L722.839,949.643" id="L-StockService-PostgreSQL-0" class=" edge-thickness-normal edge-pattern-solid flowchart-link LS-StockService LE-PostgreSQL" style="fill:none;" marker-end="url(#rendered-01-system-architecture_flowchart-pointEnd)"></path><path d="M510.234,847L510.234,851.167C510.234,855.333,510.234,863.667,510.234,872C510.234,880.333,510.234,888.667,510.234,897C510.234,905.333,510.234,913.667,544.02,925.431C577.806,937.195,645.378,952.39,679.164,959.988L712.95,967.586" id="L-WarehouseService-PostgreSQL-0" class=" edge-thickness-normal edge-pattern-solid flowchart-link LS-WarehouseService LE-PostgreSQL" style="fill:none;" marker-end="url(#rendered-01-system-architecture_flowchart-pointEnd)"></path><path d="M394.844,738L395.837,742.167C396.829,746.333,398.813,754.667,399.805,763C400.797,771.333,400.797,779.667,400.797,790.833C400.797,802,400.797,816,400.797,830C400.797,844,400.797,858,400.797,869.167C400.797,880.333,400.797,888.667,400.797,897C400.797,905.333,400.797,913.667,452.812,926.154C504.827,938.641,608.857,955.281,660.873,963.602L712.888,971.922" id="L-KanbanService-PostgreSQL-0" class=" edge-thickness-normal edge-pattern-solid flowchart-link LS-KanbanService LE-PostgreSQL" style="fill:none;" marker-end="url(#rendered-01-system-architecture_flowchart-pointEnd)"></path><path d="M367.903,738L362.291,742.167C356.68,746.333,345.457,754.667,339.846,763C334.234,771.333,334.234,779.667,330.092,787.422C325.95,795.177,317.665,802.353,313.523,805.942L309.381,809.53" id="L-KanbanService-NotificationService-0" class=" edge-thickness-normal edge-pattern-solid flowchart-link LS-KanbanService LE-NotificationService" style="fill:none;" marker-end="url(#rendered-01-system-architecture_flowchart-pointEnd)"></path><path d="M390.797,704L390.797,699.833C390.797,695.667,390.797,687.333,390.797,679C390.797,670.667,390.797,662.333,390.797,651.167C390.797,640,390.797,626,390.797,612C390.797,598,390.797,584,390.797,570C390.797,556,390.797,542,390.797,528C390.797,514,390.797,500,390.797,486C390.797,472,390.797,458,390.797,444C390.797,430,390.797,416,390.797,404.833C390.797,393.667,390.797,385.333,390.797,377C390.797,368.667,390.797,360.333,390.797,349.167C390.797,338,390.797,324,390.797,310C390.797,296,390.797,282,390.797,270.833C390.797,259.667,390.797,251.333,390.797,243C390.797,234.667,390.797,226.333,390.797,215.167C390.797,204,390.797,190,390.797,176C390.797,162,390.797,148,390.797,136.833C390.797,125.667,390.797,117.333,390.797,109C390.797,100.667,390.797,92.333,388.968,84.777C387.138,77.221,383.48,70.443,381.651,67.053L379.821,63.664" id="L-KanbanService-SocketIO-0" class=" edge-thickness-normal edge-pattern-solid flowchart-link LS-KanbanService LE-SocketIO" style="fill:none;" marker-end="url(#rendered-01-system-architecture_flowchart-pointEnd)"></path><path d="M281.702,813L280.71,808.833C279.718,804.667,277.734,796.333,276.742,788C275.75,779.667,275.75,771.333,275.75,760.167C275.75,749,275.75,735,275.75,721C275.75,707,275.75,693,275.75,681.833C275.75,670.667,275.75,662.333,275.75,651.167C275.75,640,275.75,626,275.75,612C275.75,598,275.75,584,275.75,570C275.75,556,275.75,542,275.75,528C275.75,514,275.75,500,275.75,486C275.75,472,275.75,458,275.75,444C275.75,430,275.75,416,275.75,404.833C275.75,393.667,275.75,385.333,275.75,377C275.75,368.667,275.75,360.333,275.75,349.167C275.75,338,275.75,324,275.75,310C275.75,296,275.75,282,275.75,270.833C275.75,259.667,275.75,251.333,275.75,243C275.75,234.667,275.75,226.333,275.75,215.167C275.75,204,275.75,190,275.75,176C275.75,162,275.75,148,275.75,136.833C275.75,125.667,275.75,117.333,275.75,109C275.75,100.667,275.75,92.333,284.11,84.366C292.471,76.398,309.192,68.796,317.552,64.995L325.913,61.194" id="L-NotificationService-SocketIO-0" class=" edge-thickness-normal edge-pattern-solid flowchart-link LS-NotificationService LE-SocketIO" style="fill:none;" marker-end="url(#rendered-01-system-architecture_flowchart-pointEnd)"></path><path d="M285.75,847L285.75,851.167C285.75,855.333,285.75,863.667,285.75,872C285.75,880.333,285.75,888.667,285.75,897C285.75,905.333,285.75,913.667,356.935,926.569C428.12,939.471,570.49,956.943,641.675,965.679L712.861,974.414" id="L-NotificationService-PostgreSQL-0" class=" edge-thickness-normal edge-pattern-solid flowchart-link LS-NotificationService LE-PostgreSQL" style="fill:none;" marker-end="url(#rendered-01-system-architecture_flowchart-pointEnd)"></path><path d="M443.52,43.693L742.624,50.411C1041.728,57.129,1639.936,70.564,1939.04,81.449C2238.145,92.333,2238.145,100.667,2238.145,109C2238.145,117.333,2238.145,125.667,2238.145,133.117C2238.145,140.567,2238.145,147.133,2238.145,150.417L2238.145,153.7" id="L-SocketIO-Web-0" class=" edge-thickness-normal edge-pattern-solid flowchart-link LS-SocketIO LE-Web" style="fill:none;" marker-end="url(#rendered-01-system-architecture_flowchart-pointEnd)"></path><path d="M96.313,847L96.313,851.167C96.313,855.333,96.313,863.667,96.313,872C96.313,880.333,96.313,888.667,96.313,897C96.313,905.333,96.313,913.667,199.067,926.949C301.822,940.231,507.332,958.462,610.087,967.577L712.842,976.693" id="L-BackupService-PostgreSQL-0" class=" edge-thickness-normal edge-pattern-solid flowchart-link LS-BackupService LE-PostgreSQL" style="fill:none;" marker-end="url(#rendered-01-system-architecture_flowchart-pointEnd)"></path><path d="M2148.733,545L2161.609,549.167C2174.485,553.333,2200.236,561.667,2213.112,572.833C2225.988,584,2225.988,598,2225.988,612C2225.988,626,2225.988,640,2225.988,651.167C2225.988,662.333,2225.988,670.667,2225.988,681.833C2225.988,693,2225.988,707,2225.988,721C2225.988,735,2225.988,749,2225.988,760.167C2225.988,771.333,2225.988,779.667,2225.988,790.833C2225.988,802,2225.988,816,2225.988,830C2225.988,844,2225.988,858,2148.673,869.167C2071.357,880.333,1916.725,888.667,1839.41,897C1762.094,905.333,1762.094,913.667,1762.69,921.461C1763.287,929.255,1764.48,936.51,1765.077,940.137L1765.674,943.764" id="L-Middleware-Redis-0" class=" edge-thickness-normal edge-pattern-solid flowchart-link LS-Middleware LE-Redis" style="fill:none;" marker-end="url(#rendered-01-system-architecture_flowchart-pointEnd)"></path></g><g class="edgeLabels"><g class="edgeLabel"><g class="label" transform="translate(0, 0)"><foreignObject width="0" height="0"><div xmlns="http://www.w3.org/1999/xhtml" style="display: inline-block; white-space: nowrap;"><span class="edgeLabel"></span></div></foreignObject></g></g><g class="edgeLabel"><g class="label" transform="translate(0, 0)"><foreignObject width="0" height="0"><div xmlns="http://www.w3.org/1999/xhtml" style="display: inline-block; white-space: nowrap;"><span class="edgeLabel"></span></div></foreignObject></g></g><g class="edgeLabel"><g class="label" transform="translate(0, 0)"><foreignObject width="0" height="0"><div xmlns="http://www.w3.org/1999/xhtml" style="display: inline-block; white-space: nowrap;"><span class="edgeLabel"></span></div></foreignObject></g></g><g class="edgeLabel"><g class="label" transform="translate(0, 0)"><foreignObject width="0" height="0"><div xmlns="http://www.w3.org/1999/xhtml" style="display: inline-block; white-space: nowrap;"><span class="edgeLabel"></span></div></foreignObject></g></g><g class="edgeLabel"><g class="label" transform="translate(0, 0)"><foreignObject width="0" height="0"><div xmlns="http://www.w3.org/1999/xhtml" style="display: inline-block; white-space: nowrap;"><span class="edgeLabel"></span></div></foreignObject></g></g><g class="edgeLabel"><g class="label" transform="translate(0, 0)"><foreignObject width="0" height="0"><div xmlns="http://www.w3.org/1999/xhtml" style="display: inline-block; white-space: nowrap;"><span class="edgeLabel"></span></div></foreignObject></g></g><g class="edgeLabel"><g class="label" transform="translate(0, 0)"><foreignObject width="0" height="0"><div xmlns="http://www.w3.org/1999/xhtml" style="display: inline-block; white-space: nowrap;"><span class="edgeLabel"></span></div></foreignObject></g></g><g class="edgeLabel"><g class="label" transform="translate(0, 0)"><foreignObject width="0" height="0"><div xmlns="http://www.w3.org/1999/xhtml" style="display: inline-block; white-space: nowrap;"><span class="edgeLabel"></span></div></foreignObject></g></g><g class="edgeLabel"><g class="label" transform="translate(0, 0)"><foreignObject width="0" height="0"><div xmlns="http://www.w3.org/1999/xhtml" style="display: inline-block; white-space: nowrap;"><span class="edgeLabel"></span></div></foreignObject></g></g><g class="edgeLabel"><g class="label" transform="translate(0, 0)"><foreignObject width="0" height="0"><div xmlns="http://www.w3.org/1999/xhtml" style="display: inline-block; white-space: nowrap;"><span class="edgeLabel"></span></div></foreignObject></g></g><g class="edgeLabel"><g class="label" transform="translate(0, 0)"><foreignObject width="0" height="0"><div xmlns="http://www.w3.org/1999/xhtml" style="display: inline-block; white-space: nowrap;"><span class="edgeLabel"></span></div></foreignObject></g></g><g class="edgeLabel"><g class="label" transform="translate(0, 0)"><foreignObject width="0" height="0"><div xmlns="http://www.w3.org/1999/xhtml" style="display: inline-block; white-space: nowrap;"><span class="edgeLabel"></span></div></foreignObject></g></g><g class="edgeLabel"><g class="label" transform="translate(0, 0)"><foreignObject width="0" height="0"><div xmlns="http://www.w3.org/1999/xhtml" style="display: inline-block; white-space: nowrap;"><span class="edgeLabel"></span></div></foreignObject></g></g><g class="edgeLabel"><g class="label" transform="translate(0, 0)"><foreignObject width="0" height="0"><div xmlns="http://www.w3.org/1999/xhtml" style="display: inline-block; white-space: nowrap;"><span class="edgeLabel"></span></div></foreignObject></g></g><g class="edgeLabel"><g class="label" transform="translate(0, 0)"><foreignObject width="0" height="0"><div xmlns="http://www.w3.org/1999/xhtml" style="display: inline-block; white-space: nowrap;"><span class="edgeLabel"></span></div></foreignObject></g></g><g class="edgeLabel"><g class="label" transform="translate(0, 0)"><foreignObject width="0" height="0"><div xmlns="http://www.w3.org/1999/xhtml" style="display: inline-block; white-space: nowrap;"><span class="edgeLabel"></span></div></foreignObject></g></g><g class="edgeLabel"><g class="label" transform="translate(0, 0)"><foreignObject width="0" height="0"><div xmlns="http://www.w3.org/1999/xhtml" style="display: inline-block; white-space: nowrap;"><span class="edgeLabel"></span></div></foreignObject></g></g><g class="edgeLabel"><g class="label" transform="translate(0, 0)"><foreignObject width="0" height="0"><div xmlns="http://www.w3.org/1999/xhtml" style="display: inline-block; white-space: nowrap;"><span class="edgeLabel"></span></div></foreignObject></g></g><g class="edgeLabel"><g class="label" transform="translate(0, 0)"><foreignObject width="0" height="0"><div xmlns="http://www.w3.org/1999/xhtml" style="display: inline-block; white-space: nowrap;"><span class="edgeLabel"></span></div></foreignObject></g></g><g class="edgeLabel"><g class="label" transform="translate(0, 0)"><foreignObject width="0" height="0"><div xmlns="http://www.w3.org/1999/xhtml" style="display: inline-block; white-space: nowrap;"><span class="edgeLabel"></span></div></foreignObject></g></g><g class="edgeLabel"><g class="label" transform="translate(0, 0)"><foreignObject width="0" height="0"><div xmlns="http://www.w3.org/1999/xhtml" style="display: inline-block; white-space: nowrap;"><span class="edgeLabel"></span></div></foreignObject></g></g><g class="edgeLabel"><g class="label" transform="translate(0, 0)"><foreignObject width="0" height="0"><div xmlns="http://www.w3.org/1999/xhtml" style="display: inline-block; white-space: nowrap;"><span class="edgeLabel"></span></div></foreignObject></g></g><g class="edgeLabel"><g class="label" transform="translate(0, 0)"><foreignObject width="0" height="0"><div xmlns="http://www.w3.org/1999/xhtml" style="display: inline-block; white-space: nowrap;"><span class="edgeLabel"></span></div></foreignObject></g></g><g class="edgeLabel"><g class="label" transform="translate(0, 0)"><foreignObject width="0" height="0"><div xmlns="http://www.w3.org/1999/xhtml" style="display: inline-block; white-space: nowrap;"><span class="edgeLabel"></span></div></foreignObject></g></g><g class="edgeLabel"><g class="label" transform="translate(0, 0)"><foreignObject width="0" height="0"><div xmlns="http://www.w3.org/1999/xhtml" style="display: inline-block; white-space: nowrap;"><span class="edgeLabel"></span></div></foreignObject></g></g><g class="edgeLabel"><g class="label" transform="translate(0, 0)"><foreignObject width="0" height="0"><div xmlns="http://www.w3.org/1999/xhtml" style="display: inline-block; white-space: nowrap;"><span class="edgeLabel"></span></div></foreignObject></g></g><g class="edgeLabel"><g class="label" transform="translate(0, 0)"><foreignObject width="0" height="0"><div xmlns="http://www.w3.org/1999/xhtml" style="display: inline-block; white-space: nowrap;"><span class="edgeLabel"></span></div></foreignObject></g></g><g class="edgeLabel"><g class="label" transform="translate(0, 0)"><foreignObject width="0" height="0"><div xmlns="http://www.w3.org/1999/xhtml" style="display: inline-block; white-space: nowrap;"><span class="edgeLabel"></span></div></foreignObject></g></g><g class="edgeLabel"><g class="label" transform="translate(0, 0)"><foreignObject width="0" height="0"><div xmlns="http://www.w3.org/1999/xhtml" style="display: inline-block; white-space: nowrap;"><span class="edgeLabel"></span></div></foreignObject></g></g><g class="edgeLabel"><g class="label" transform="translate(0, 0)"><foreignObject width="0" height="0"><div xmlns="http://www.w3.org/1999/xhtml" style="display: inline-block; white-space: nowrap;"><span class="edgeLabel"></span></div></foreignObject></g></g><g class="edgeLabel"><g class="label" transform="translate(0, 0)"><foreignObject width="0" height="0"><div xmlns="http://www.w3.org/1999/xhtml" style="display: inline-block; white-space: nowrap;"><span class="edgeLabel"></span></div></foreignObject></g></g><g class="edgeLabel"><g class="label" transform="translate(0, 0)"><foreignObject width="0" height="0"><div xmlns="http://www.w3.org/1999/xhtml" style="display: inline-block; white-space: nowrap;"><span class="edgeLabel"></span></div></foreignObject></g></g><g class="edgeLabel"><g class="label" transform="translate(0, 0)"><foreignObject width="0" height="0"><div xmlns="http://www.w3.org/1999/xhtml" style="display: inline-block; white-space: nowrap;"><span class="edgeLabel"></span></div></foreignObject></g></g><g class="edgeLabel"><g class="label" transform="translate(0, 0)"><foreignObject width="0" height="0"><div xmlns="http://www.w3.org/1999/xhtml" style="display: inline-block; white-space: nowrap;"><span class="edgeLabel"></span></div></foreignObject></g></g></g><g class="nodes"><g class="node default default flowchart-label" id="flowchart-PostgreSQL-22" label-offset-y="12.42770932863968" data-node="true" data-id="PostgreSQL" transform="translate(779.90234375, 982.6415596008301)"><path style="" d="M 0,12.42770932863968 a 61.78125,12.42770932863968 0,0,0 123.5625 0 a 61.78125,12.42770932863968 0,0,0 -123.5625 0 l 0,46.42770932863968 a 61.78125,12.42770932863968 0,0,0 123.5625 0 l 0,-46.42770932863968" transform="translate(-61.78125,-35.64156399295952)"></path><g class="label" style="" transform="translate(-54.28125, -9.5)"><rect></rect><foreignObject width="108.5625" height="19"><div xmlns="http://www.w3.org/1999/xhtml" style="display: inline-block; white-space: nowrap;"><span class="nodeLabel">PostgreSQL 14+</span></div></foreignObject></g></g><g class="node default default flowchart-label" id="flowchart-Redis-23" label-offset-y="11.143827074961894" data-node="true" data-id="Redis" transform="translate(1772.09375, 982.6415596008301)"><path style="" d="M 0,11.143827074961894 a 50.265625,11.143827074961894 0,0,0 100.53125 0 a 50.265625,11.143827074961894 0,0,0 -100.53125 0 l 0,45.14382707496189 a 50.265625,11.143827074961894 0,0,0 100.53125 0 l 0,-45.14382707496189" transform="translate(-50.265625,-33.71574061244284)"></path><g class="label" style="" transform="translate(-42.765625, -9.5)"><rect></rect><foreignObject width="85.53125" height="19"><div xmlns="http://www.w3.org/1999/xhtml" style="display: inline-block; white-space: nowrap;"><span class="nodeLabel">Redis Cache</span></div></foreignObject></g></g><g class="node default default flowchart-label" id="flowchart-RabbitMQ-20" data-node="true" data-id="RabbitMQ" transform="translate(1988.99609375, 982.6415596008301)"><rect class="basic label-container" style="" rx="0" ry="0" x="-70.359375" y="-17" width="140.71875" height="34"></rect><g class="label" style="" transform="translate(-62.859375, -9.5)"><rect></rect><foreignObject width="125.71875" height="19"><div xmlns="http://www.w3.org/1999/xhtml" style="display: inline-block; white-space: nowrap;"><span class="nodeLabel">RabbitMQ (AMQP)</span></div></foreignObject></g></g><g class="node default default flowchart-label" id="flowchart-SMTP-21" data-node="true" data-id="SMTP" transform="translate(2160.46484375, 982.6415596008301)"><rect class="basic label-container" style="" rx="0" ry="0" x="-51.109375" y="-17" width="102.21875" height="34"></rect><g class="label" style="" transform="translate(-43.609375, -9.5)"><rect></rect><foreignObject width="87.21875" height="19"><div xmlns="http://www.w3.org/1999/xhtml" style="display: inline-block; white-space: nowrap;"><span class="nodeLabel">SMTP Server</span></div></foreignObject></g></g><g class="node default default flowchart-label" id="flowchart-SocketIO-19" data-node="true" data-id="SocketIO" transform="translate(368.12890625, 42)"><rect class="basic label-container" style="" rx="0" ry="0" x="-75.390625" y="-17" width="150.78125" height="34"></rect><g class="label" style="" transform="translate(-67.890625, -9.5)"><rect></rect><foreignObject width="135.78125" height="19"><div xmlns="http://www.w3.org/1999/xhtml" style="display: inline-block; white-space: nowrap;"><span class="nodeLabel">Socket.IO Gateway</span></div></foreignObject></g></g><g class="node default default flowchart-label" id="flowchart-AuthService-8" data-node="true" data-id="AuthService" transform="translate(1558.83203125, 830)"><rect class="basic label-container" style="" rx="0" ry="0" x="-52.390625" y="-17" width="104.78125" height="34"></rect><g class="label" style="" transform="translate(-44.890625, -9.5)"><rect></rect><foreignObject width="89.78125" height="19"><div xmlns="http://www.w3.org/1999/xhtml" style="display: inline-block; white-space: nowrap;"><span class="nodeLabel">Auth Service</span></div></foreignObject></g></g><g class="node default default flowchart-label" id="flowchart-TenantService-9" data-node="true" data-id="TenantService" transform="translate(1360.7421875, 830)"><rect class="basic label-container" style="" rx="0" ry="0" x="-59.8828125" y="-17" width="119.765625" height="34"></rect><g class="label" style="" transform="translate(-52.3828125, -9.5)"><rect></rect><foreignObject width="104.765625" height="19"><div xmlns="http://www.w3.org/1999/xhtml" style="display: inline-block; white-space: nowrap;"><span class="nodeLabel">Tenant Service</span></div></foreignObject></g></g><g class="node default default flowchart-label" id="flowchart-UserService-10" data-node="true" data-id="UserService" transform="translate(1199.203125, 830)"><rect class="basic label-container" style="" rx="0" ry="0" x="-51.65625" y="-17" width="103.3125" height="34"></rect><g class="label" style="" transform="translate(-44.15625, -9.5)"><rect></rect><foreignObject width="88.3125" height="19"><div xmlns="http://www.w3.org/1999/xhtml" style="display: inline-block; white-space: nowrap;"><span class="nodeLabel">User Service</span></div></foreignObject></g></g><g class="node default default flowchart-label" id="flowchart-RoleService-11" data-node="true" data-id="RoleService" transform="translate(1046.4453125, 830)"><rect class="basic label-container" style="" rx="0" ry="0" x="-51.1015625" y="-17" width="102.203125" height="34"></rect><g class="label" style="" transform="translate(-43.6015625, -9.5)"><rect></rect><foreignObject width="87.203125" height="19"><div xmlns="http://www.w3.org/1999/xhtml" style="display: inline-block; white-space: nowrap;"><span class="nodeLabel">Role Service</span></div></foreignObject></g></g><g class="node default default flowchart-label" id="flowchart-CalibrationService-12" data-node="true" data-id="CalibrationService" transform="translate(870.0703125, 830)"><rect class="basic label-container" style="" rx="0" ry="0" x="-75.2734375" y="-17" width="150.546875" height="34"></rect><g class="label" style="" transform="translate(-67.7734375, -9.5)"><rect></rect><foreignObject width="135.546875" height="19"><div xmlns="http://www.w3.org/1999/xhtml" style="display: inline-block; white-space: nowrap;"><span class="nodeLabel">Calibration Service</span></div></foreignObject></g></g><g class="node default default flowchart-label" id="flowchart-StockService-13" data-node="true" data-id="StockService" transform="translate(689.734375, 830)"><rect class="basic label-container" style="" rx="0" ry="0" x="-55.0625" y="-17" width="110.125" height="34"></rect><g class="label" style="" transform="translate(-47.5625, -9.5)"><rect></rect><foreignObject width="95.125" height="19"><div xmlns="http://www.w3.org/1999/xhtml" style="display: inline-block; white-space: nowrap;"><span class="nodeLabel">Stock Service</span></div></foreignObject></g></g><g class="node default default flowchart-label" id="flowchart-WarehouseService-14" data-node="true" data-id="WarehouseService" transform="translate(510.234375, 830)"><rect class="basic label-container" style="" rx="0" ry="0" x="-74.4375" y="-17" width="148.875" height="34"></rect><g class="label" style="" transform="translate(-66.9375, -9.5)"><rect></rect><foreignObject width="133.875" height="19"><div xmlns="http://www.w3.org/1999/xhtml" style="display: inline-block; white-space: nowrap;"><span class="nodeLabel">Warehouse Service</span></div></foreignObject></g></g><g class="node default default flowchart-label" id="flowchart-KanbanService-15" data-node="true" data-id="KanbanService" transform="translate(390.796875, 721)"><rect class="basic label-container" style="" rx="0" ry="0" x="-61.96875" y="-17" width="123.9375" height="34"></rect><g class="label" style="" transform="translate(-54.46875, -9.5)"><rect></rect><foreignObject width="108.9375" height="19"><div xmlns="http://www.w3.org/1999/xhtml" style="display: inline-block; white-space: nowrap;"><span class="nodeLabel">Kanban Service</span></div></foreignObject></g></g><g class="node default default flowchart-label" id="flowchart-NotificationService-16" data-node="true" data-id="NotificationService" transform="translate(285.75, 830)"><rect class="basic label-container" style="" rx="0" ry="0" x="-78.125" y="-17" width="156.25" height="34"></rect><g class="label" style="" transform="translate(-70.625, -9.5)"><rect></rect><foreignObject width="141.25" height="19"><div xmlns="http://www.w3.org/1999/xhtml" style="display: inline-block; white-space: nowrap;"><span class="nodeLabel">Notification Service</span></div></foreignObject></g></g><g class="node default default flowchart-label" id="flowchart-EmailService-17" data-node="true" data-id="EmailService" transform="translate(1716.74609375, 830)"><rect class="basic label-container" style="" rx="0" ry="0" x="-55.5234375" y="-17" width="111.046875" height="34"></rect><g class="label" style="" transform="translate(-48.0234375, -9.5)"><rect></rect><foreignObject width="96.046875" height="19"><div xmlns="http://www.w3.org/1999/xhtml" style="display: inline-block; white-space: nowrap;"><span class="nodeLabel">Email Service</span></div></foreignObject></g></g><g class="node default default flowchart-label" id="flowchart-BackupService-18" data-node="true" data-id="BackupService" transform="translate(96.3125, 830)"><rect class="basic label-container" style="" rx="0" ry="0" x="-61.3125" y="-17" width="122.625" height="34"></rect><g class="label" style="" transform="translate(-53.8125, -9.5)"><rect></rect><foreignObject width="107.625" height="19"><div xmlns="http://www.w3.org/1999/xhtml" style="display: inline-block; white-space: nowrap;"><span class="nodeLabel">Backup Service</span></div></foreignObject></g></g><g class="node default default flowchart-label" id="flowchart-Router-4" data-node="true" data-id="Router" transform="translate(2096.19921875, 444)"><rect class="basic label-container" style="" rx="0" ry="0" x="-44.9609375" y="-17" width="89.921875" height="34"></rect><g class="label" style="" transform="translate(-37.4609375, -9.5)"><rect></rect><foreignObject width="74.921875" height="19"><div xmlns="http://www.w3.org/1999/xhtml" style="display: inline-block; white-space: nowrap;"><span class="nodeLabel">API Router</span></div></foreignObject></g></g><g class="node default default flowchart-label" id="flowchart-Middleware-5" data-node="true" data-id="Middleware" transform="translate(2096.19921875, 528)"><rect class="basic label-container" style="" rx="0" ry="0" x="-71.1484375" y="-17" width="142.296875" height="34"></rect><g class="label" style="" transform="translate(-63.6484375, -9.5)"><rect></rect><foreignObject width="127.296875" height="19"><div xmlns="http://www.w3.org/1999/xhtml" style="display: inline-block; white-space: nowrap;"><span class="nodeLabel">Middleware Chain</span></div></foreignObject></g></g><g class="node default default flowchart-label" id="flowchart-Controllers-6" data-node="true" data-id="Controllers" transform="translate(2047.59765625, 612)"><rect class="basic label-container" style="" rx="0" ry="0" x="-46.953125" y="-17" width="93.90625" height="34"></rect><g class="label" style="" transform="translate(-39.453125, -9.5)"><rect></rect><foreignObject width="78.90625" height="19"><div xmlns="http://www.w3.org/1999/xhtml" style="display: inline-block; white-space: nowrap;"><span class="nodeLabel">Controllers</span></div></foreignObject></g></g><g class="node default default flowchart-label" id="flowchart-Routes-7" data-node="true" data-id="Routes" transform="translate(1963.87109375, 721)"><rect class="basic label-container" style="" rx="0" ry="0" x="-61.78125" y="-17" width="123.5625" height="34"></rect><g class="label" style="" transform="translate(-54.28125, -9.5)"><rect></rect><foreignObject width="108.5625" height="19"><div xmlns="http://www.w3.org/1999/xhtml" style="display: inline-block; white-space: nowrap;"><span class="nodeLabel">Route Handlers</span></div></foreignObject></g></g><g class="node default default flowchart-label" id="flowchart-Nginx-3" data-node="true" data-id="Nginx" transform="translate(2096.19921875, 310)"><rect class="basic label-container" style="" rx="0" ry="0" x="-79.234375" y="-17" width="158.46875" height="34"></rect><g class="label" style="" transform="translate(-71.734375, -9.5)"><rect></rect><foreignObject width="143.46875" height="19"><div xmlns="http://www.w3.org/1999/xhtml" style="display: inline-block; white-space: nowrap;"><span class="nodeLabel">Nginx Reverse Proxy</span></div></foreignObject></g></g><g class="node default default flowchart-label" id="flowchart-Web-0" data-node="true" data-id="Web" transform="translate(2238.14453125, 176)"><rect class="basic label-container" style="" rx="0" ry="0" x="-38.375" y="-17" width="76.75" height="34"></rect><g class="label" style="" transform="translate(-30.875, -9.5)"><rect></rect><foreignObject width="61.75" height="19"><div xmlns="http://www.w3.org/1999/xhtml" style="display: inline-block; white-space: nowrap;"><span class="nodeLabel">Web App</span></div></foreignObject></g></g><g class="node default default flowchart-label" id="flowchart-Mobile-1" data-node="true" data-id="Mobile" transform="translate(2103.23828125, 176)"><rect class="basic label-container" style="" rx="0" ry="0" x="-46.53125" y="-17" width="93.0625" height="34"></rect><g class="label" style="" transform="translate(-39.03125, -9.5)"><rect></rect><foreignObject width="78.0625" height="19"><div xmlns="http://www.w3.org/1999/xhtml" style="display: inline-block; white-space: nowrap;"><span class="nodeLabel">Mobile App</span></div></foreignObject></g></g><g class="node default default flowchart-label" id="flowchart-Admin-2" data-node="true" data-id="Admin" transform="translate(1954.94140625, 176)"><rect class="basic label-container" style="" rx="0" ry="0" x="-51.765625" y="-17" width="103.53125" height="34"></rect><g class="label" style="" transform="translate(-44.265625, -9.5)"><rect></rect><foreignObject width="88.53125" height="19"><div xmlns="http://www.w3.org/1999/xhtml" style="display: inline-block; white-space: nowrap;"><span class="nodeLabel">Admin Panel</span></div></foreignObject></g></g></g></g></g></svg>