<svg id="rendered-01-system-architecture" width="100%" xmlns="http://www.w3.org/2000/svg" style="max-width: 2029.98046875px;" viewBox="-8 -8 2029.98046875 816.2831420898438" role="graphics-document document" aria-roledescription="flowchart-v2"><style>#rendered-01-system-architecture{font-family:"trebuchet ms",verdana,arial,sans-serif;font-size:16px;fill:#333;}#rendered-01-system-architecture .error-icon{fill:#552222;}#rendered-01-system-architecture .error-text{fill:#552222;stroke:#552222;}#rendered-01-system-architecture .edge-thickness-normal{stroke-width:2px;}#rendered-01-system-architecture .edge-thickness-thick{stroke-width:3.5px;}#rendered-01-system-architecture .edge-pattern-solid{stroke-dasharray:0;}#rendered-01-system-architecture .edge-pattern-dashed{stroke-dasharray:3;}#rendered-01-system-architecture .edge-pattern-dotted{stroke-dasharray:2;}#rendered-01-system-architecture .marker{fill:#333333;stroke:#333333;}#rendered-01-system-architecture .marker.cross{stroke:#333333;}#rendered-01-system-architecture svg{font-family:"trebuchet ms",verdana,arial,sans-serif;font-size:16px;}#rendered-01-system-architecture .label{font-family:"trebuchet ms",verdana,arial,sans-serif;color:#333;}#rendered-01-system-architecture .cluster-label text{fill:#333;}#rendered-01-system-architecture .cluster-label span,#rendered-01-system-architecture p{color:#333;}#rendered-01-system-architecture .label text,#rendered-01-system-architecture span,#rendered-01-system-architecture p{fill:#333;color:#333;}#rendered-01-system-architecture .node rect,#rendered-01-system-architecture .node circle,#rendered-01-system-architecture .node ellipse,#rendered-01-system-architecture .node polygon,#rendered-01-system-architecture .node path{fill:#ECECFF;stroke:#9370DB;stroke-width:1px;}#rendered-01-system-architecture .flowchart-label text{text-anchor:middle;}#rendered-01-system-architecture .node .katex path{fill:#000;stroke:#000;stroke-width:1px;}#rendered-01-system-architecture .node .label{text-align:center;}#rendered-01-system-architecture .node.clickable{cursor:pointer;}#rendered-01-system-architecture .arrowheadPath{fill:#333333;}#rendered-01-system-architecture .edgePath .path{stroke:#333333;stroke-width:2.0px;}#rendered-01-system-architecture .flowchart-link{stroke:#333333;fill:none;}#rendered-01-system-architecture .edgeLabel{background-color:#e8e8e8;text-align:center;}#rendered-01-system-architecture .edgeLabel rect{opacity:0.5;background-color:#e8e8e8;fill:#e8e8e8;}#rendered-01-system-architecture .labelBkg{background-color:rgba(232, 232, 232, 0.5);}#rendered-01-system-architecture .cluster rect{fill:#ffffde;stroke:#aaaa33;stroke-width:1px;}#rendered-01-system-architecture .cluster text{fill:#333;}#rendered-01-system-architecture .cluster span,#rendered-01-system-architecture p{color:#333;}#rendered-01-system-architecture div.mermaidTooltip{position:absolute;text-align:center;max-width:200px;padding:2px;font-family:"trebuchet ms",verdana,arial,sans-serif;font-size:12px;background:hsl(80, 100%, 96.2745098039%);border:1px solid #aaaa33;border-radius:2px;pointer-events:none;z-index:100;}#rendered-01-system-architecture .flowchartTitleText{text-anchor:middle;font-size:18px;fill:#333;}#rendered-01-system-architecture :root{--mermaid-font-family:"trebuchet ms",verdana,arial,sans-serif;}</style><g><marker id="rendered-01-system-architecture_flowchart-pointEnd" class="marker flowchart" viewBox="0 0 10 10" refX="6" refY="5" markerUnits="userSpaceOnUse" markerWidth="12" markerHeight="12" orient="auto"><path d="M 0 0 L 10 5 L 0 10 z" class="arrowMarkerPath" style="stroke-width: 1; stroke-dasharray: 1, 0;"></path></marker><marker id="rendered-01-system-architecture_flowchart-pointStart" class="marker flowchart" viewBox="0 0 10 10" refX="4.5" refY="5" markerUnits="userSpaceOnUse" markerWidth="12" markerHeight="12" orient="auto"><path d="M 0 5 L 10 10 L 10 0 z" class="arrowMarkerPath" style="stroke-width: 1; stroke-dasharray: 1, 0;"></path></marker><marker id="rendered-01-system-architecture_flowchart-circleEnd" class="marker flowchart" viewBox="0 0 10 10" refX="11" refY="5" markerUnits="userSpaceOnUse" markerWidth="11" markerHeight="11" orient="auto"><circle cx="5" cy="5" r="5" class="arrowMarkerPath" style="stroke-width: 1; stroke-dasharray: 1, 0;"></circle></marker><marker id="rendered-01-system-architecture_flowchart-circleStart" class="marker flowchart" viewBox="0 0 10 10" refX="-1" refY="5" markerUnits="userSpaceOnUse" markerWidth="11" markerHeight="11" orient="auto"><circle cx="5" cy="5" r="5" class="arrowMarkerPath" style="stroke-width: 1; stroke-dasharray: 1, 0;"></circle></marker><marker id="rendered-01-system-architecture_flowchart-crossEnd" class="marker cross flowchart" viewBox="0 0 11 11" refX="12" refY="5.2" markerUnits="userSpaceOnUse" markerWidth="11" markerHeight="11" orient="auto"><path d="M 1,1 l 9,9 M 10,1 l -9,9" class="arrowMarkerPath" style="stroke-width: 2; stroke-dasharray: 1, 0;"></path></marker><marker id="rendered-01-system-architecture_flowchart-crossStart" class="marker cross flowchart" viewBox="0 0 11 11" refX="-1" refY="5.2" markerUnits="userSpaceOnUse" markerWidth="11" markerHeight="11" orient="auto"><path d="M 1,1 l 9,9 M 10,1 l -9,9" class="arrowMarkerPath" style="stroke-width: 2; stroke-dasharray: 1, 0;"></path></marker><g class="root"><g class="clusters"><g class="cluster default flowchart-label" id="Data"><rect style="" rx="0" ry="0" x="28.15625" y="679" width="1513.15625" height="121.28311920166016"></rect><g class="cluster-label" transform="translate(746.1640625, 679)"><foreignObject width="77.140625" height="19"><div xmlns="http://www.w3.org/1999/xhtml" style="display: inline-block; white-space: nowrap;"><span class="nodeLabel">Data Layer</span></div></foreignObject></g></g><g class="cluster default flowchart-label" id="External"><rect style="" rx="0" ry="0" x="1567.58984375" y="679" width="362.9375" height="121.28311920166016"></rect><g class="cluster-label" transform="translate(1687.69140625, 679)"><foreignObject width="122.734375" height="19"><div xmlns="http://www.w3.org/1999/xhtml" style="display: inline-block; white-space: nowrap;"><span class="nodeLabel">External Services</span></div></foreignObject></g></g><g class="cluster default flowchart-label" id="Services"><rect style="" rx="0" ry="0" x="0" y="545" width="1604.234375" height="84"></rect><g class="cluster-label" transform="translate(751.4765625, 545)"><foreignObject width="101.28125" height="19"><div xmlns="http://www.w3.org/1999/xhtml" style="display: inline-block; white-space: nowrap;"><span class="nodeLabel">Business Logic</span></div></foreignObject></g></g><g class="cluster default flowchart-label" id="Backend"><rect style="" rx="0" ry="0" x="1624.234375" y="268" width="334.09765625" height="361"></rect><g class="cluster-label" transform="translate(1690.345703125, 268)"><foreignObject width="201.875" height="19"><div xmlns="http://www.w3.org/1999/xhtml" style="display: inline-block; white-space: nowrap;"><span class="nodeLabel">Backend API (Express.js 5.x)</span></div></foreignObject></g></g><g class="cluster default flowchart-label" id="CDN"><rect style="" rx="0" ry="0" x="1580.28515625" y="134" width="380.3203125" height="84"></rect><g class="cluster-label" transform="translate(1727.1875, 134)"><foreignObject width="86.515625" height="19"><div xmlns="http://www.w3.org/1999/xhtml" style="display: inline-block; white-space: nowrap;"><span class="nodeLabel">CDN / Proxy</span></div></foreignObject></g></g><g class="cluster default flowchart-label" id="Clients"><rect style="" rx="0" ry="0" x="1570.63671875" y="0" width="443.34375" height="84"></rect><g class="cluster-label" transform="translate(1725.21484375, 0)"><foreignObject width="134.1875" height="19"><div xmlns="http://www.w3.org/1999/xhtml" style="display: inline-block; white-space: nowrap;"><span class="nodeLabel">Client Applications</span></div></foreignObject></g></g></g><g class="edgePaths"><path d="M1940.605,59L1940.605,63.167C1940.605,67.333,1940.605,75.667,1940.605,84C1940.605,92.333,1940.605,100.667,1940.605,109C1940.605,117.333,1940.605,125.667,1919.835,134.006C1899.064,142.346,1857.523,150.692,1836.752,154.865L1815.981,159.038" id="L-Web-Nginx-0" class=" edge-thickness-normal edge-pattern-solid flowchart-link LS-Web LE-Nginx" style="fill:none;" marker-end="url(#rendered-01-system-architecture_flowchart-pointEnd)"></path><path d="M1805.699,59L1805.699,63.167C1805.699,67.333,1805.699,75.667,1805.699,84C1805.699,92.333,1805.699,100.667,1805.699,109C1805.699,117.333,1805.699,125.667,1799.112,133.565C1792.524,141.463,1779.35,148.925,1772.762,152.657L1766.175,156.388" id="L-Mobile-Nginx-0" class=" edge-thickness-normal edge-pattern-solid flowchart-link LS-Mobile LE-Nginx" style="fill:none;" marker-end="url(#rendered-01-system-architecture_flowchart-pointEnd)"></path><path d="M1657.402,59L1657.402,63.167C1657.402,67.333,1657.402,75.667,1657.402,84C1657.402,92.333,1657.402,100.667,1657.402,109C1657.402,117.333,1657.402,125.667,1663.99,133.565C1670.577,141.463,1683.752,148.925,1690.339,152.657L1696.927,156.388" id="L-Admin-Nginx-0" class=" edge-thickness-normal edge-pattern-solid flowchart-link LS-Admin LE-Nginx" style="fill:none;" marker-end="url(#rendered-01-system-architecture_flowchart-pointEnd)"></path><path d="M1731.551,193L1731.551,197.167C1731.551,201.333,1731.551,209.667,1731.551,218C1731.551,226.333,1731.551,234.667,1731.551,243C1731.551,251.333,1731.551,259.667,1731.551,267.117C1731.551,274.567,1731.551,281.133,1731.551,284.417L1731.551,287.7" id="L-Nginx-Router-0" class=" edge-thickness-normal edge-pattern-solid flowchart-link LS-Nginx LE-Router" style="fill:none;" marker-end="url(#rendered-01-system-architecture_flowchart-pointEnd)"></path><path d="M1731.551,327L1731.551,331.167C1731.551,335.333,1731.551,343.667,1731.551,351.117C1731.551,358.567,1731.551,365.133,1731.551,368.417L1731.551,371.7" id="L-Router-Middleware-0" class=" edge-thickness-normal edge-pattern-solid flowchart-link LS-Router LE-Middleware" style="fill:none;" marker-end="url(#rendered-01-system-architecture_flowchart-pointEnd)"></path><path d="M1731.551,411L1731.551,415.167C1731.551,419.333,1731.551,427.667,1731.551,435.117C1731.551,442.567,1731.551,449.133,1731.551,452.417L1731.551,455.7" id="L-Middleware-Controllers-0" class=" edge-thickness-normal edge-pattern-solid flowchart-link LS-Middleware LE-Controllers" style="fill:none;" marker-end="url(#rendered-01-system-architecture_flowchart-pointEnd)"></path><path d="M1770.31,495L1779.81,499.167C1789.309,503.333,1808.309,511.667,1817.809,520C1827.309,528.333,1827.309,536.667,1827.309,544.117C1827.309,551.567,1827.309,558.133,1827.309,561.417L1827.309,564.7" id="L-Controllers-Routes-0" class=" edge-thickness-normal edge-pattern-solid flowchart-link LS-Controllers LE-Routes" style="fill:none;" marker-end="url(#rendered-01-system-architecture_flowchart-pointEnd)"></path><path d="M1762.215,495L1769.73,499.167C1777.246,503.333,1792.277,511.667,1799.793,520C1807.309,528.333,1807.309,536.667,1733.451,547.027C1659.594,557.388,1511.879,569.776,1438.022,575.97L1364.164,582.163" id="L-Controllers-AuthService-0" class=" edge-thickness-normal edge-pattern-solid flowchart-link LS-Controllers LE-AuthService" style="fill:none;" marker-end="url(#rendered-01-system-architecture_flowchart-pointEnd)"></path><path d="M1754.119,495L1759.651,499.167C1765.182,503.333,1776.246,511.667,1781.777,520C1787.309,528.333,1787.309,536.667,1689.048,547.137C1590.786,557.606,1394.264,570.213,1296.003,576.516L1197.742,582.819" id="L-Controllers-TenantService-0" class=" edge-thickness-normal edge-pattern-solid flowchart-link LS-Controllers LE-TenantService" style="fill:none;" marker-end="url(#rendered-01-system-architecture_flowchart-pointEnd)"></path><path d="M1746.024,495L1749.572,499.167C1753.119,503.333,1760.214,511.667,1763.761,520C1767.309,528.333,1767.309,536.667,1644.087,547.333C1520.866,557.999,1274.423,570.997,1151.202,577.497L1027.98,583.996" id="L-Controllers-UserService-0" class=" edge-thickness-normal edge-pattern-solid flowchart-link LS-Controllers LE-UserService" style="fill:none;" marker-end="url(#rendered-01-system-architecture_flowchart-pointEnd)"></path><path d="M1737.929,495L1739.492,499.167C1741.055,503.333,1744.182,511.667,1745.745,520C1747.309,528.333,1747.309,536.667,1601.869,547.408C1456.429,558.15,1165.549,571.3,1020.109,577.875L874.67,584.45" id="L-Controllers-RoleService-0" class=" edge-thickness-normal edge-pattern-solid flowchart-link LS-Controllers LE-RoleService" style="fill:none;" marker-end="url(#rendered-01-system-architecture_flowchart-pointEnd)"></path><path d="M1729.834,495L1729.413,499.167C1728.992,503.333,1728.15,511.667,1727.729,520C1727.309,528.333,1727.309,536.667,1559.835,547.314C1392.362,557.961,1057.415,570.922,889.941,577.402L722.468,583.882" id="L-Controllers-CalibrationService-0" class=" edge-thickness-normal edge-pattern-solid flowchart-link LS-Controllers LE-CalibrationService" style="fill:none;" marker-end="url(#rendered-01-system-architecture_flowchart-pointEnd)"></path><path d="M1721.738,495L1719.333,499.167C1716.929,503.333,1712.119,511.667,1709.714,520C1707.309,528.333,1707.309,536.667,1509.744,547.494C1312.18,558.322,917.051,571.643,719.486,578.304L521.922,584.965" id="L-Controllers-StockService-0" class=" edge-thickness-normal edge-pattern-solid flowchart-link LS-Controllers LE-StockService" style="fill:none;" marker-end="url(#rendered-01-system-architecture_flowchart-pointEnd)"></path><path d="M1713.643,495L1709.254,499.167C1704.865,503.333,1696.087,511.667,1691.698,520C1687.309,528.333,1687.309,536.667,1466.39,547.436C1245.472,558.206,803.635,571.411,582.716,578.014L361.798,584.617" id="L-Controllers-WarehouseService-0" class=" edge-thickness-normal edge-pattern-solid flowchart-link LS-Controllers LE-WarehouseService" style="fill:none;" marker-end="url(#rendered-01-system-architecture_flowchart-pointEnd)"></path><path d="M1281.174,604L1274.969,608.167C1268.763,612.333,1256.352,620.667,1290.937,629C1325.521,637.333,1407.1,645.667,1447.89,654C1488.68,662.333,1488.68,670.667,1486.674,678.664C1484.669,686.661,1480.659,694.321,1478.654,698.151L1476.648,701.982" id="L-AuthService-Redis-0" class=" edge-thickness-normal edge-pattern-solid flowchart-link LS-AuthService LE-Redis" style="fill:none;" marker-end="url(#rendered-01-system-architecture_flowchart-pointEnd)"></path><path d="M1358.883,601.995L1374.609,606.496C1390.335,610.996,1421.786,619.998,1486.753,628.666C1551.72,637.333,1650.202,645.667,1699.443,654C1748.684,662.333,1748.684,670.667,1740.289,681.555C1731.895,692.443,1715.106,705.886,1706.712,712.607L1698.317,719.329" id="L-AuthService-RabbitMQ-0" class=" edge-thickness-normal edge-pattern-solid flowchart-link LS-AuthService LE-RabbitMQ" style="fill:none;" marker-end="url(#rendered-01-system-architecture_flowchart-pointEnd)"></path><path d="M1436.433,604L1429.577,608.167C1422.721,612.333,1409.009,620.667,1442.982,629C1476.954,637.333,1558.612,645.667,1599.441,654C1640.27,662.333,1640.27,670.667,1643.77,681.329C1647.271,691.992,1654.272,704.984,1657.773,711.48L1661.274,717.976" id="L-EmailService-RabbitMQ-0" class=" edge-thickness-normal edge-pattern-solid flowchart-link LS-EmailService LE-RabbitMQ" style="fill:none;" marker-end="url(#rendered-01-system-architecture_flowchart-pointEnd)"></path><path d="M1498.636,604L1507.025,608.167C1515.415,612.333,1532.194,620.667,1589.824,629C1647.454,637.333,1745.936,645.667,1795.177,654C1844.418,662.333,1844.418,670.667,1844.418,681.224C1844.418,691.781,1844.418,704.561,1844.418,710.951L1844.418,717.342" id="L-EmailService-SMTP-0" class=" edge-thickness-normal edge-pattern-solid flowchart-link LS-EmailService LE-SMTP" style="fill:none;" marker-end="url(#rendered-01-system-architecture_flowchart-pointEnd)"></path><path d="M1255.823,604L1243.404,608.167C1230.985,612.333,1206.147,620.667,1193.728,629C1181.309,637.333,1181.309,645.667,1181.309,654C1181.309,662.333,1181.309,670.667,1117.277,683.439C1053.246,696.211,925.183,713.422,861.151,722.027L797.12,730.633" id="L-AuthService-PostgreSQL-0" class=" edge-thickness-normal edge-pattern-solid flowchart-link LS-AuthService LE-PostgreSQL" style="fill:none;" marker-end="url(#rendered-01-system-architecture_flowchart-pointEnd)"></path><path d="M1132.57,604L1132.57,608.167C1132.57,612.333,1132.57,620.667,1132.57,629C1132.57,637.333,1132.57,645.667,1132.57,654C1132.57,662.333,1132.57,670.667,1076.66,683.257C1020.75,695.848,908.929,712.696,853.018,721.12L797.108,729.543" id="L-TenantService-PostgreSQL-0" class=" edge-thickness-normal edge-pattern-solid flowchart-link LS-TenantService LE-PostgreSQL" style="fill:none;" marker-end="url(#rendered-01-system-architecture_flowchart-pointEnd)"></path><path d="M971.031,604L971.031,608.167C971.031,612.333,971.031,620.667,971.031,629C971.031,637.333,971.031,645.667,971.031,654C971.031,662.333,971.031,670.667,942.027,682.133C913.023,693.6,855.015,708.199,826.011,715.499L797.007,722.799" id="L-UserService-PostgreSQL-0" class=" edge-thickness-normal edge-pattern-solid flowchart-link LS-UserService LE-PostgreSQL" style="fill:none;" marker-end="url(#rendered-01-system-architecture_flowchart-pointEnd)"></path><path d="M818.273,604L818.273,608.167C818.273,612.333,818.273,620.667,818.273,629C818.273,637.333,818.273,645.667,818.273,654C818.273,662.333,818.273,670.667,812.889,679.375C807.505,688.082,796.737,697.165,791.353,701.706L785.969,706.247" id="L-RoleService-PostgreSQL-0" class=" edge-thickness-normal edge-pattern-solid flowchart-link LS-RoleService LE-PostgreSQL" style="fill:none;" marker-end="url(#rendered-01-system-architecture_flowchart-pointEnd)"></path><path d="M641.898,604L641.898,608.167C641.898,612.333,641.898,620.667,641.898,629C641.898,637.333,641.898,645.667,641.898,654C641.898,662.333,641.898,670.667,647.283,679.375C652.667,688.082,663.435,697.165,668.819,701.706L674.203,706.247" id="L-CalibrationService-PostgreSQL-0" class=" edge-thickness-normal edge-pattern-solid flowchart-link LS-CalibrationService LE-PostgreSQL" style="fill:none;" marker-end="url(#rendered-01-system-architecture_flowchart-pointEnd)"></path><path d="M461.563,604L461.563,608.167C461.563,612.333,461.563,620.667,461.563,629C461.563,637.333,461.563,645.667,461.563,654C461.563,662.333,461.563,670.667,495.158,682.42C528.753,694.174,595.944,709.348,629.539,716.935L663.135,724.522" id="L-StockService-PostgreSQL-0" class=" edge-thickness-normal edge-pattern-solid flowchart-link LS-StockService LE-PostgreSQL" style="fill:none;" marker-end="url(#rendered-01-system-architecture_flowchart-pointEnd)"></path><path d="M282.063,604L282.063,608.167C282.063,612.333,282.063,620.667,282.063,629C282.063,637.333,282.063,645.667,282.063,654C282.063,662.333,282.063,670.667,345.561,683.428C409.059,696.189,536.056,713.379,599.554,721.974L663.053,730.568" id="L-WarehouseService-PostgreSQL-0" class=" edge-thickness-normal edge-pattern-solid flowchart-link LS-WarehouseService LE-PostgreSQL" style="fill:none;" marker-end="url(#rendered-01-system-architecture_flowchart-pointEnd)"></path><path d="M96.313,604L96.313,608.167C96.313,612.333,96.313,620.667,96.313,629C96.313,637.333,96.313,645.667,96.313,654C96.313,662.333,96.313,670.667,190.765,683.871C285.218,697.075,474.123,715.15,568.576,724.188L663.029,733.225" id="L-BackupService-PostgreSQL-0" class=" edge-thickness-normal edge-pattern-solid flowchart-link LS-BackupService LE-PostgreSQL" style="fill:none;" marker-end="url(#rendered-01-system-architecture_flowchart-pointEnd)"></path><path d="M1802.699,409.52L1822.931,413.933C1843.163,418.347,1883.626,427.173,1903.858,438.587C1924.09,450,1924.09,464,1924.09,478C1924.09,492,1924.09,506,1924.09,517.167C1924.09,528.333,1924.09,536.667,1924.09,547.833C1924.09,559,1924.09,573,1924.09,587C1924.09,601,1924.09,615,1844.416,626.167C1764.742,637.333,1605.395,645.667,1525.721,654C1446.047,662.333,1446.047,670.667,1446.644,678.461C1447.24,686.255,1448.434,693.51,1449.03,697.137L1449.627,700.764" id="L-Middleware-Redis-0" class=" edge-thickness-normal edge-pattern-solid flowchart-link LS-Middleware LE-Redis" style="fill:none;" marker-end="url(#rendered-01-system-architecture_flowchart-pointEnd)"></path></g><g class="edgeLabels"><g class="edgeLabel"><g class="label" transform="translate(0, 0)"><foreignObject width="0" height="0"><div xmlns="http://www.w3.org/1999/xhtml" style="display: inline-block; white-space: nowrap;"><span class="edgeLabel"></span></div></foreignObject></g></g><g class="edgeLabel"><g class="label" transform="translate(0, 0)"><foreignObject width="0" height="0"><div xmlns="http://www.w3.org/1999/xhtml" style="display: inline-block; white-space: nowrap;"><span class="edgeLabel"></span></div></foreignObject></g></g><g class="edgeLabel"><g class="label" transform="translate(0, 0)"><foreignObject width="0" height="0"><div xmlns="http://www.w3.org/1999/xhtml" style="display: inline-block; white-space: nowrap;"><span class="edgeLabel"></span></div></foreignObject></g></g><g class="edgeLabel"><g class="label" transform="translate(0, 0)"><foreignObject width="0" height="0"><div xmlns="http://www.w3.org/1999/xhtml" style="display: inline-block; white-space: nowrap;"><span class="edgeLabel"></span></div></foreignObject></g></g><g class="edgeLabel"><g class="label" transform="translate(0, 0)"><foreignObject width="0" height="0"><div xmlns="http://www.w3.org/1999/xhtml" style="display: inline-block; white-space: nowrap;"><span class="edgeLabel"></span></div></foreignObject></g></g><g class="edgeLabel"><g class="label" transform="translate(0, 0)"><foreignObject width="0" height="0"><div xmlns="http://www.w3.org/1999/xhtml" style="display: inline-block; white-space: nowrap;"><span class="edgeLabel"></span></div></foreignObject></g></g><g class="edgeLabel"><g class="label" transform="translate(0, 0)"><foreignObject width="0" height="0"><div xmlns="http://www.w3.org/1999/xhtml" style="display: inline-block; white-space: nowrap;"><span class="edgeLabel"></span></div></foreignObject></g></g><g class="edgeLabel"><g class="label" transform="translate(0, 0)"><foreignObject width="0" height="0"><div xmlns="http://www.w3.org/1999/xhtml" style="display: inline-block; white-space: nowrap;"><span class="edgeLabel"></span></div></foreignObject></g></g><g class="edgeLabel"><g class="label" transform="translate(0, 0)"><foreignObject width="0" height="0"><div xmlns="http://www.w3.org/1999/xhtml" style="display: inline-block; white-space: nowrap;"><span class="edgeLabel"></span></div></foreignObject></g></g><g class="edgeLabel"><g class="label" transform="translate(0, 0)"><foreignObject width="0" height="0"><div xmlns="http://www.w3.org/1999/xhtml" style="display: inline-block; white-space: nowrap;"><span class="edgeLabel"></span></div></foreignObject></g></g><g class="edgeLabel"><g class="label" transform="translate(0, 0)"><foreignObject width="0" height="0"><div xmlns="http://www.w3.org/1999/xhtml" style="display: inline-block; white-space: nowrap;"><span class="edgeLabel"></span></div></foreignObject></g></g><g class="edgeLabel"><g class="label" transform="translate(0, 0)"><foreignObject width="0" height="0"><div xmlns="http://www.w3.org/1999/xhtml" style="display: inline-block; white-space: nowrap;"><span class="edgeLabel"></span></div></foreignObject></g></g><g class="edgeLabel"><g class="label" transform="translate(0, 0)"><foreignObject width="0" height="0"><div xmlns="http://www.w3.org/1999/xhtml" style="display: inline-block; white-space: nowrap;"><span class="edgeLabel"></span></div></foreignObject></g></g><g class="edgeLabel"><g class="label" transform="translate(0, 0)"><foreignObject width="0" height="0"><div xmlns="http://www.w3.org/1999/xhtml" style="display: inline-block; white-space: nowrap;"><span class="edgeLabel"></span></div></foreignObject></g></g><g class="edgeLabel"><g class="label" transform="translate(0, 0)"><foreignObject width="0" height="0"><div xmlns="http://www.w3.org/1999/xhtml" style="display: inline-block; white-space: nowrap;"><span class="edgeLabel"></span></div></foreignObject></g></g><g class="edgeLabel"><g class="label" transform="translate(0, 0)"><foreignObject width="0" height="0"><div xmlns="http://www.w3.org/1999/xhtml" style="display: inline-block; white-space: nowrap;"><span class="edgeLabel"></span></div></foreignObject></g></g><g class="edgeLabel"><g class="label" transform="translate(0, 0)"><foreignObject width="0" height="0"><div xmlns="http://www.w3.org/1999/xhtml" style="display: inline-block; white-space: nowrap;"><span class="edgeLabel"></span></div></foreignObject></g></g><g class="edgeLabel"><g class="label" transform="translate(0, 0)"><foreignObject width="0" height="0"><div xmlns="http://www.w3.org/1999/xhtml" style="display: inline-block; white-space: nowrap;"><span class="edgeLabel"></span></div></foreignObject></g></g><g class="edgeLabel"><g class="label" transform="translate(0, 0)"><foreignObject width="0" height="0"><div xmlns="http://www.w3.org/1999/xhtml" style="display: inline-block; white-space: nowrap;"><span class="edgeLabel"></span></div></foreignObject></g></g><g class="edgeLabel"><g class="label" transform="translate(0, 0)"><foreignObject width="0" height="0"><div xmlns="http://www.w3.org/1999/xhtml" style="display: inline-block; white-space: nowrap;"><span class="edgeLabel"></span></div></foreignObject></g></g><g class="edgeLabel"><g class="label" transform="translate(0, 0)"><foreignObject width="0" height="0"><div xmlns="http://www.w3.org/1999/xhtml" style="display: inline-block; white-space: nowrap;"><span class="edgeLabel"></span></div></foreignObject></g></g><g class="edgeLabel"><g class="label" transform="translate(0, 0)"><foreignObject width="0" height="0"><div xmlns="http://www.w3.org/1999/xhtml" style="display: inline-block; white-space: nowrap;"><span class="edgeLabel"></span></div></foreignObject></g></g><g class="edgeLabel"><g class="label" transform="translate(0, 0)"><foreignObject width="0" height="0"><div xmlns="http://www.w3.org/1999/xhtml" style="display: inline-block; white-space: nowrap;"><span class="edgeLabel"></span></div></foreignObject></g></g><g class="edgeLabel"><g class="label" transform="translate(0, 0)"><foreignObject width="0" height="0"><div xmlns="http://www.w3.org/1999/xhtml" style="display: inline-block; white-space: nowrap;"><span class="edgeLabel"></span></div></foreignObject></g></g><g class="edgeLabel"><g class="label" transform="translate(0, 0)"><foreignObject width="0" height="0"><div xmlns="http://www.w3.org/1999/xhtml" style="display: inline-block; white-space: nowrap;"><span class="edgeLabel"></span></div></foreignObject></g></g><g class="edgeLabel"><g class="label" transform="translate(0, 0)"><foreignObject width="0" height="0"><div xmlns="http://www.w3.org/1999/xhtml" style="display: inline-block; white-space: nowrap;"><span class="edgeLabel"></span></div></foreignObject></g></g><g class="edgeLabel"><g class="label" transform="translate(0, 0)"><foreignObject width="0" height="0"><div xmlns="http://www.w3.org/1999/xhtml" style="display: inline-block; white-space: nowrap;"><span class="edgeLabel"></span></div></foreignObject></g></g></g><g class="nodes"><g class="node default default flowchart-label" id="flowchart-PostgreSQL-19" label-offset-y="12.42770932863968" data-node="true" data-id="PostgreSQL" transform="translate(730.0859375, 739.6415596008301)"><path style="" d="M 0,12.42770932863968 a 61.78125,12.42770932863968 0,0,0 123.5625 0 a 61.78125,12.42770932863968 0,0,0 -123.5625 0 l 0,46.42770932863968 a 61.78125,12.42770932863968 0,0,0 123.5625 0 l 0,-46.42770932863968" transform="translate(-61.78125,-35.64156399295952)"></path><g class="label" style="" transform="translate(-54.28125, -9.5)"><rect></rect><foreignObject width="108.5625" height="19"><div xmlns="http://www.w3.org/1999/xhtml" style="display: inline-block; white-space: nowrap;"><span class="nodeLabel">PostgreSQL 14+</span></div></foreignObject></g></g><g class="node default default flowchart-label" id="flowchart-Redis-20" label-offset-y="11.143827074961894" data-node="true" data-id="Redis" transform="translate(1456.046875, 739.6415596008301)"><path style="" d="M 0,11.143827074961894 a 50.265625,11.143827074961894 0,0,0 100.53125 0 a 50.265625,11.143827074961894 0,0,0 -100.53125 0 l 0,45.14382707496189 a 50.265625,11.143827074961894 0,0,0 100.53125 0 l 0,-45.14382707496189" transform="translate(-50.265625,-33.71574061244284)"></path><g class="label" style="" transform="translate(-42.765625, -9.5)"><rect></rect><foreignObject width="85.53125" height="19"><div xmlns="http://www.w3.org/1999/xhtml" style="display: inline-block; white-space: nowrap;"><span class="nodeLabel">Redis Cache</span></div></foreignObject></g></g><g class="node default default flowchart-label" id="flowchart-RabbitMQ-17" data-node="true" data-id="RabbitMQ" transform="translate(1672.94921875, 739.6415596008301)"><rect class="basic label-container" style="" rx="0" ry="0" x="-70.359375" y="-17" width="140.71875" height="34"></rect><g class="label" style="" transform="translate(-62.859375, -9.5)"><rect></rect><foreignObject width="125.71875" height="19"><div xmlns="http://www.w3.org/1999/xhtml" style="display: inline-block; white-space: nowrap;"><span class="nodeLabel">RabbitMQ (AMQP)</span></div></foreignObject></g></g><g class="node default default flowchart-label" id="flowchart-SMTP-18" data-node="true" data-id="SMTP" transform="translate(1844.41796875, 739.6415596008301)"><rect class="basic label-container" style="" rx="0" ry="0" x="-51.109375" y="-17" width="102.21875" height="34"></rect><g class="label" style="" transform="translate(-43.609375, -9.5)"><rect></rect><foreignObject width="87.21875" height="19"><div xmlns="http://www.w3.org/1999/xhtml" style="display: inline-block; white-space: nowrap;"><span class="nodeLabel">SMTP Server</span></div></foreignObject></g></g><g class="node default default flowchart-label" id="flowchart-AuthService-8" data-node="true" data-id="AuthService" transform="translate(1306.4921875, 587)"><rect class="basic label-container" style="" rx="0" ry="0" x="-52.390625" y="-17" width="104.78125" height="34"></rect><g class="label" style="" transform="translate(-44.890625, -9.5)"><rect></rect><foreignObject width="89.78125" height="19"><div xmlns="http://www.w3.org/1999/xhtml" style="display: inline-block; white-space: nowrap;"><span class="nodeLabel">Auth Service</span></div></foreignObject></g></g><g class="node default default flowchart-label" id="flowchart-TenantService-9" data-node="true" data-id="TenantService" transform="translate(1132.5703125, 587)"><rect class="basic label-container" style="" rx="0" ry="0" x="-59.8828125" y="-17" width="119.765625" height="34"></rect><g class="label" style="" transform="translate(-52.3828125, -9.5)"><rect></rect><foreignObject width="104.765625" height="19"><div xmlns="http://www.w3.org/1999/xhtml" style="display: inline-block; white-space: nowrap;"><span class="nodeLabel">Tenant Service</span></div></foreignObject></g></g><g class="node default default flowchart-label" id="flowchart-UserService-10" data-node="true" data-id="UserService" transform="translate(971.03125, 587)"><rect class="basic label-container" style="" rx="0" ry="0" x="-51.65625" y="-17" width="103.3125" height="34"></rect><g class="label" style="" transform="translate(-44.15625, -9.5)"><rect></rect><foreignObject width="88.3125" height="19"><div xmlns="http://www.w3.org/1999/xhtml" style="display: inline-block; white-space: nowrap;"><span class="nodeLabel">User Service</span></div></foreignObject></g></g><g class="node default default flowchart-label" id="flowchart-RoleService-11" data-node="true" data-id="RoleService" transform="translate(818.2734375, 587)"><rect class="basic label-container" style="" rx="0" ry="0" x="-51.1015625" y="-17" width="102.203125" height="34"></rect><g class="label" style="" transform="translate(-43.6015625, -9.5)"><rect></rect><foreignObject width="87.203125" height="19"><div xmlns="http://www.w3.org/1999/xhtml" style="display: inline-block; white-space: nowrap;"><span class="nodeLabel">Role Service</span></div></foreignObject></g></g><g class="node default default flowchart-label" id="flowchart-CalibrationService-12" data-node="true" data-id="CalibrationService" transform="translate(641.8984375, 587)"><rect class="basic label-container" style="" rx="0" ry="0" x="-75.2734375" y="-17" width="150.546875" height="34"></rect><g class="label" style="" transform="translate(-67.7734375, -9.5)"><rect></rect><foreignObject width="135.546875" height="19"><div xmlns="http://www.w3.org/1999/xhtml" style="display: inline-block; white-space: nowrap;"><span class="nodeLabel">Calibration Service</span></div></foreignObject></g></g><g class="node default default flowchart-label" id="flowchart-StockService-13" data-node="true" data-id="StockService" transform="translate(461.5625, 587)"><rect class="basic label-container" style="" rx="0" ry="0" x="-55.0625" y="-17" width="110.125" height="34"></rect><g class="label" style="" transform="translate(-47.5625, -9.5)"><rect></rect><foreignObject width="95.125" height="19"><div xmlns="http://www.w3.org/1999/xhtml" style="display: inline-block; white-space: nowrap;"><span class="nodeLabel">Stock Service</span></div></foreignObject></g></g><g class="node default default flowchart-label" id="flowchart-WarehouseService-14" data-node="true" data-id="WarehouseService" transform="translate(282.0625, 587)"><rect class="basic label-container" style="" rx="0" ry="0" x="-74.4375" y="-17" width="148.875" height="34"></rect><g class="label" style="" transform="translate(-66.9375, -9.5)"><rect></rect><foreignObject width="133.875" height="19"><div xmlns="http://www.w3.org/1999/xhtml" style="display: inline-block; white-space: nowrap;"><span class="nodeLabel">Warehouse Service</span></div></foreignObject></g></g><g class="node default default flowchart-label" id="flowchart-EmailService-15" data-node="true" data-id="EmailService" transform="translate(1464.40625, 587)"><rect class="basic label-container" style="" rx="0" ry="0" x="-55.5234375" y="-17" width="111.046875" height="34"></rect><g class="label" style="" transform="translate(-48.0234375, -9.5)"><rect></rect><foreignObject width="96.046875" height="19"><div xmlns="http://www.w3.org/1999/xhtml" style="display: inline-block; white-space: nowrap;"><span class="nodeLabel">Email Service</span></div></foreignObject></g></g><g class="node default default flowchart-label" id="flowchart-BackupService-16" data-node="true" data-id="BackupService" transform="translate(96.3125, 587)"><rect class="basic label-container" style="" rx="0" ry="0" x="-61.3125" y="-17" width="122.625" height="34"></rect><g class="label" style="" transform="translate(-53.8125, -9.5)"><rect></rect><foreignObject width="107.625" height="19"><div xmlns="http://www.w3.org/1999/xhtml" style="display: inline-block; white-space: nowrap;"><span class="nodeLabel">Backup Service</span></div></foreignObject></g></g><g class="node default default flowchart-label" id="flowchart-Router-4" data-node="true" data-id="Router" transform="translate(1731.55078125, 310)"><rect class="basic label-container" style="" rx="0" ry="0" x="-44.9609375" y="-17" width="89.921875" height="34"></rect><g class="label" style="" transform="translate(-37.4609375, -9.5)"><rect></rect><foreignObject width="74.921875" height="19"><div xmlns="http://www.w3.org/1999/xhtml" style="display: inline-block; white-space: nowrap;"><span class="nodeLabel">API Router</span></div></foreignObject></g></g><g class="node default default flowchart-label" id="flowchart-Middleware-5" data-node="true" data-id="Middleware" transform="translate(1731.55078125, 394)"><rect class="basic label-container" style="" rx="0" ry="0" x="-71.1484375" y="-17" width="142.296875" height="34"></rect><g class="label" style="" transform="translate(-63.6484375, -9.5)"><rect></rect><foreignObject width="127.296875" height="19"><div xmlns="http://www.w3.org/1999/xhtml" style="display: inline-block; white-space: nowrap;"><span class="nodeLabel">Middleware Chain</span></div></foreignObject></g></g><g class="node default default flowchart-label" id="flowchart-Controllers-6" data-node="true" data-id="Controllers" transform="translate(1731.55078125, 478)"><rect class="basic label-container" style="" rx="0" ry="0" x="-46.953125" y="-17" width="93.90625" height="34"></rect><g class="label" style="" transform="translate(-39.453125, -9.5)"><rect></rect><foreignObject width="78.90625" height="19"><div xmlns="http://www.w3.org/1999/xhtml" style="display: inline-block; white-space: nowrap;"><span class="nodeLabel">Controllers</span></div></foreignObject></g></g><g class="node default default flowchart-label" id="flowchart-Routes-7" data-node="true" data-id="Routes" transform="translate(1827.30859375, 587)"><rect class="basic label-container" style="" rx="0" ry="0" x="-61.78125" y="-17" width="123.5625" height="34"></rect><g class="label" style="" transform="translate(-54.28125, -9.5)"><rect></rect><foreignObject width="108.5625" height="19"><div xmlns="http://www.w3.org/1999/xhtml" style="display: inline-block; white-space: nowrap;"><span class="nodeLabel">Route Handlers</span></div></foreignObject></g></g><g class="node default default flowchart-label" id="flowchart-Nginx-3" data-node="true" data-id="Nginx" transform="translate(1731.55078125, 176)"><rect class="basic label-container" style="" rx="0" ry="0" x="-79.234375" y="-17" width="158.46875" height="34"></rect><g class="label" style="" transform="translate(-71.734375, -9.5)"><rect></rect><foreignObject width="143.46875" height="19"><div xmlns="http://www.w3.org/1999/xhtml" style="display: inline-block; white-space: nowrap;"><span class="nodeLabel">Nginx Reverse Proxy</span></div></foreignObject></g></g><g class="node default default flowchart-label" id="flowchart-Web-0" data-node="true" data-id="Web" transform="translate(1940.60546875, 42)"><rect class="basic label-container" style="" rx="0" ry="0" x="-38.375" y="-17" width="76.75" height="34"></rect><g class="label" style="" transform="translate(-30.875, -9.5)"><rect></rect><foreignObject width="61.75" height="19"><div xmlns="http://www.w3.org/1999/xhtml" style="display: inline-block; white-space: nowrap;"><span class="nodeLabel">Web App</span></div></foreignObject></g></g><g class="node default default flowchart-label" id="flowchart-Mobile-1" data-node="true" data-id="Mobile" transform="translate(1805.69921875, 42)"><rect class="basic label-container" style="" rx="0" ry="0" x="-46.53125" y="-17" width="93.0625" height="34"></rect><g class="label" style="" transform="translate(-39.03125, -9.5)"><rect></rect><foreignObject width="78.0625" height="19"><div xmlns="http://www.w3.org/1999/xhtml" style="display: inline-block; white-space: nowrap;"><span class="nodeLabel">Mobile App</span></div></foreignObject></g></g><g class="node default default flowchart-label" id="flowchart-Admin-2" data-node="true" data-id="Admin" transform="translate(1657.40234375, 42)"><rect class="basic label-container" style="" rx="0" ry="0" x="-51.765625" y="-17" width="103.53125" height="34"></rect><g class="label" style="" transform="translate(-44.265625, -9.5)"><rect></rect><foreignObject width="88.53125" height="19"><div xmlns="http://www.w3.org/1999/xhtml" style="display: inline-block; white-space: nowrap;"><span class="nodeLabel">Admin Panel</span></div></foreignObject></g></g></g></g></g></svg>