<svg id="rendered-03-rbac-abac" width="100%" xmlns="http://www.w3.org/2000/svg" style="max-width: 1908.90234375px;" viewBox="-8 -8 1908.90234375 640" role="graphics-document document" aria-roledescription="flowchart-v2"><style>#rendered-03-rbac-abac{font-family:"trebuchet ms",verdana,arial,sans-serif;font-size:16px;fill:#333;}#rendered-03-rbac-abac .error-icon{fill:#552222;}#rendered-03-rbac-abac .error-text{fill:#552222;stroke:#552222;}#rendered-03-rbac-abac .edge-thickness-normal{stroke-width:2px;}#rendered-03-rbac-abac .edge-thickness-thick{stroke-width:3.5px;}#rendered-03-rbac-abac .edge-pattern-solid{stroke-dasharray:0;}#rendered-03-rbac-abac .edge-pattern-dashed{stroke-dasharray:3;}#rendered-03-rbac-abac .edge-pattern-dotted{stroke-dasharray:2;}#rendered-03-rbac-abac .marker{fill:#333333;stroke:#333333;}#rendered-03-rbac-abac .marker.cross{stroke:#333333;}#rendered-03-rbac-abac svg{font-family:"trebuchet ms",verdana,arial,sans-serif;font-size:16px;}#rendered-03-rbac-abac .label{font-family:"trebuchet ms",verdana,arial,sans-serif;color:#333;}#rendered-03-rbac-abac .cluster-label text{fill:#333;}#rendered-03-rbac-abac .cluster-label span,#rendered-03-rbac-abac p{color:#333;}#rendered-03-rbac-abac .label text,#rendered-03-rbac-abac span,#rendered-03-rbac-abac p{fill:#333;color:#333;}#rendered-03-rbac-abac .node rect,#rendered-03-rbac-abac .node circle,#rendered-03-rbac-abac .node ellipse,#rendered-03-rbac-abac .node polygon,#rendered-03-rbac-abac .node path{fill:#ECECFF;stroke:#9370DB;stroke-width:1px;}#rendered-03-rbac-abac .flowchart-label text{text-anchor:middle;}#rendered-03-rbac-abac .node .katex path{fill:#000;stroke:#000;stroke-width:1px;}#rendered-03-rbac-abac .node .label{text-align:center;}#rendered-03-rbac-abac .node.clickable{cursor:pointer;}#rendered-03-rbac-abac .arrowheadPath{fill:#333333;}#rendered-03-rbac-abac .edgePath .path{stroke:#333333;stroke-width:2.0px;}#rendered-03-rbac-abac .flowchart-link{stroke:#333333;fill:none;}#rendered-03-rbac-abac .edgeLabel{background-color:#e8e8e8;text-align:center;}#rendered-03-rbac-abac .edgeLabel rect{opacity:0.5;background-color:#e8e8e8;fill:#e8e8e8;}#rendered-03-rbac-abac .labelBkg{background-color:rgba(232, 232, 232, 0.5);}#rendered-03-rbac-abac .cluster rect{fill:#ffffde;stroke:#aaaa33;stroke-width:1px;}#rendered-03-rbac-abac .cluster text{fill:#333;}#rendered-03-rbac-abac .cluster span,#rendered-03-rbac-abac p{color:#333;}#rendered-03-rbac-abac div.mermaidTooltip{position:absolute;text-align:center;max-width:200px;padding:2px;font-family:"trebuchet ms",verdana,arial,sans-serif;font-size:12px;background:hsl(80, 100%, 96.2745098039%);border:1px solid #aaaa33;border-radius:2px;pointer-events:none;z-index:100;}#rendered-03-rbac-abac .flowchartTitleText{text-anchor:middle;font-size:18px;fill:#333;}#rendered-03-rbac-abac :root{--mermaid-font-family:"trebuchet ms",verdana,arial,sans-serif;}</style><g><marker id="rendered-03-rbac-abac_flowchart-pointEnd" class="marker flowchart" viewBox="0 0 10 10" refX="6" refY="5" markerUnits="userSpaceOnUse" markerWidth="12" markerHeight="12" orient="auto"><path d="M 0 0 L 10 5 L 0 10 z" class="arrowMarkerPath" style="stroke-width: 1; stroke-dasharray: 1, 0;"></path></marker><marker id="rendered-03-rbac-abac_flowchart-pointStart" class="marker flowchart" viewBox="0 0 10 10" refX="4.5" refY="5" markerUnits="userSpaceOnUse" markerWidth="12" markerHeight="12" orient="auto"><path d="M 0 5 L 10 10 L 10 0 z" class="arrowMarkerPath" style="stroke-width: 1; stroke-dasharray: 1, 0;"></path></marker><marker id="rendered-03-rbac-abac_flowchart-circleEnd" class="marker flowchart" viewBox="0 0 10 10" refX="11" refY="5" markerUnits="userSpaceOnUse" markerWidth="11" markerHeight="11" orient="auto"><circle cx="5" cy="5" r="5" class="arrowMarkerPath" style="stroke-width: 1; stroke-dasharray: 1, 0;"></circle></marker><marker id="rendered-03-rbac-abac_flowchart-circleStart" class="marker flowchart" viewBox="0 0 10 10" refX="-1" refY="5" markerUnits="userSpaceOnUse" markerWidth="11" markerHeight="11" orient="auto"><circle cx="5" cy="5" r="5" class="arrowMarkerPath" style="stroke-width: 1; stroke-dasharray: 1, 0;"></circle></marker><marker id="rendered-03-rbac-abac_flowchart-crossEnd" class="marker cross flowchart" viewBox="0 0 11 11" refX="12" refY="5.2" markerUnits="userSpaceOnUse" markerWidth="11" markerHeight="11" orient="auto"><path d="M 1,1 l 9,9 M 10,1 l -9,9" class="arrowMarkerPath" style="stroke-width: 2; stroke-dasharray: 1, 0;"></path></marker><marker id="rendered-03-rbac-abac_flowchart-crossStart" class="marker cross flowchart" viewBox="0 0 11 11" refX="-1" refY="5.2" markerUnits="userSpaceOnUse" markerWidth="11" markerHeight="11" orient="auto"><path d="M 1,1 l 9,9 M 10,1 l -9,9" class="arrowMarkerPath" style="stroke-width: 2; stroke-dasharray: 1, 0;"></path></marker><g class="root"><g class="clusters"><g class="cluster default flowchart-label" id="AccessTypes"><rect style="" rx="0" ry="0" x="0" y="109" width="704.3125" height="84"></rect><g class="cluster-label" transform="translate(306.6796875, 109)"><foreignObject width="90.953125" height="19"><div xmlns="http://www.w3.org/1999/xhtml" style="display: inline-block; white-space: nowrap;"><span class="nodeLabel">Access Types</span></div></foreignObject></g></g><g class="cluster default flowchart-label" id="RBACModels"><rect style="" rx="0" ry="0" x="724.3125" y="0" width="649.45703125" height="386"></rect><g class="cluster-label" transform="translate(1003.556640625, 0)"><foreignObject width="90.96875" height="19"><div xmlns="http://www.w3.org/1999/xhtml" style="display: inline-block; white-space: nowrap;"><span class="nodeLabel">RBAC Models</span></div></foreignObject></g></g><g class="cluster default flowchart-label" id="Layer1"><rect style="" rx="0" ry="0" x="1393.76953125" y="0" width="328.859375" height="386"></rect><g class="cluster-label" transform="translate(1484.44140625, 0)"><foreignObject width="147.515625" height="19"><div xmlns="http://www.w3.org/1999/xhtml" style="display: inline-block; white-space: nowrap;"><span class="nodeLabel">Authorization Layers</span></div></foreignObject></g></g></g><g class="edgePaths"><path d="M1558.199,59L1558.199,63.167C1558.199,67.333,1558.199,75.667,1558.199,84C1558.199,92.333,1558.199,100.667,1558.199,108.117C1558.199,115.567,1558.199,122.133,1558.199,125.417L1558.199,128.7" id="L-Auth-RBAC-0" class=" edge-thickness-normal edge-pattern-solid flowchart-link LS-Auth LE-RBAC" style="fill:none;" marker-end="url(#rendered-03-rbac-abac_flowchart-pointEnd)"></path><path d="M1558.199,168L1558.199,172.167C1558.199,176.333,1558.199,184.667,1558.199,193C1558.199,201.333,1558.199,209.667,1558.199,217.117C1558.199,224.567,1558.199,231.133,1558.199,234.417L1558.199,237.7" id="L-RBAC-Dynamic-0" class=" edge-thickness-normal edge-pattern-solid flowchart-link LS-RBAC LE-Dynamic" style="fill:none;" marker-end="url(#rendered-03-rbac-abac_flowchart-pointEnd)"></path><path d="M1558.199,277L1558.199,281.167C1558.199,285.333,1558.199,293.667,1558.199,301.117C1558.199,308.567,1558.199,315.133,1558.199,318.417L1558.199,321.7" id="L-Dynamic-ABAC-0" class=" edge-thickness-normal edge-pattern-solid flowchart-link LS-Dynamic LE-ABAC" style="fill:none;" marker-end="url(#rendered-03-rbac-abac_flowchart-pointEnd)"></path><path d="M1168.32,57.336L1147.745,61.78C1127.169,66.224,1086.018,75.112,1065.443,83.723C1044.867,92.333,1044.867,100.667,1044.867,108.117C1044.867,115.567,1044.867,122.133,1044.867,125.417L1044.867,128.7" id="L-Role-MenuGroup-0" class=" edge-thickness-normal edge-pattern-solid flowchart-link LS-Role LE-MenuGroup" style="fill:none;" marker-end="url(#rendered-03-rbac-abac_flowchart-pointEnd)"></path><path d="M1044.867,168L1044.867,172.167C1044.867,176.333,1044.867,184.667,1044.867,193C1044.867,201.333,1044.867,209.667,1030.161,217.772C1015.454,225.876,986.041,233.753,971.334,237.691L956.627,241.629" id="L-MenuGroup-RoleMenuPerm-0" class=" edge-thickness-normal edge-pattern-solid flowchart-link LS-MenuGroup LE-RoleMenuPerm" style="fill:none;" marker-end="url(#rendered-03-rbac-abac_flowchart-pointEnd)"></path><path d="M888.023,277L888.023,281.167C888.023,285.333,888.023,293.667,920.216,302.607C952.409,311.548,1016.794,321.096,1048.987,325.869L1081.179,330.643" id="L-RoleMenuPerm-Permission-0" class=" edge-thickness-normal edge-pattern-solid flowchart-link LS-RoleMenuPerm LE-Permission" style="fill:none;" marker-end="url(#rendered-03-rbac-abac_flowchart-pointEnd)"></path><path d="M1268.243,59L1275.33,63.167C1282.417,67.333,1296.592,75.667,1303.679,84C1310.766,92.333,1310.766,100.667,1310.766,111.833C1310.766,123,1310.766,137,1310.766,151C1310.766,165,1310.766,179,1310.766,190.167C1310.766,201.333,1310.766,209.667,1310.766,220.833C1310.766,232,1310.766,246,1310.766,260C1310.766,274,1310.766,288,1297.771,298.912C1284.776,309.824,1258.786,317.648,1245.791,321.56L1232.796,325.472" id="L-Role-Permission-0" class=" edge-thickness-normal edge-pattern-dotted flowchart-link LS-Role LE-Permission" style="fill:none;stroke-width:2px;stroke-dasharray:3;" marker-end="url(#rendered-03-rbac-abac_flowchart-pointEnd)"></path><path d="M1171.25,277L1171.25,281.167C1171.25,285.333,1171.25,293.667,1171.25,301.117C1171.25,308.567,1171.25,315.133,1171.25,318.417L1171.25,321.7" id="L-UserPerm-Permission-0" class=" edge-thickness-normal edge-pattern-solid flowchart-link LS-UserPerm LE-Permission" style="fill:none;" marker-end="url(#rendered-03-rbac-abac_flowchart-pointEnd)"></path><path d="M112.125,168L112.125,172.167C112.125,176.333,112.125,184.667,227.799,193C343.473,201.333,574.82,209.667,697.829,217.597C820.837,225.527,835.507,233.054,842.841,236.817L850.176,240.58" id="L-Global-RoleMenuPerm-0" class=" edge-thickness-normal edge-pattern-dotted flowchart-link LS-Global LE-RoleMenuPerm" style="fill:none;stroke-width:2px;stroke-dasharray:3;" marker-end="url(#rendered-03-rbac-abac_flowchart-pointEnd)"></path><path d="M324.523,168L324.523,172.167C324.523,176.333,324.523,184.667,408.131,193C491.738,201.333,658.953,209.667,747.966,217.504C836.979,225.341,847.791,232.682,853.196,236.352L858.602,240.023" id="L-Self-RoleMenuPerm-0" class=" edge-thickness-normal edge-pattern-dotted flowchart-link LS-Self LE-RoleMenuPerm" style="fill:none;stroke-width:2px;stroke-dasharray:3;" marker-end="url(#rendered-03-rbac-abac_flowchart-pointEnd)"></path><path d="M564.555,168L564.555,172.167C564.555,176.333,564.555,184.667,641.273,193C717.992,201.333,871.43,209.667,935.417,217.741C999.405,225.815,973.942,233.63,961.211,237.537L948.479,241.445" id="L-Tenant-RoleMenuPerm-0" class=" edge-thickness-normal edge-pattern-dotted flowchart-link LS-Tenant LE-RoleMenuPerm" style="fill:none;stroke-width:2px;stroke-dasharray:3;" marker-end="url(#rendered-03-rbac-abac_flowchart-pointEnd)"></path><path d="M1558.199,361L1558.199,365.167C1558.199,369.333,1558.199,377.667,1558.199,386C1558.199,394.333,1558.199,402.667,1558.199,410.117C1558.199,417.567,1558.199,424.133,1558.199,427.417L1558.199,430.7" id="L-ABAC-DataIsolation-0" class=" edge-thickness-normal edge-pattern-solid flowchart-link LS-ABAC LE-DataIsolation" style="fill:none;" marker-end="url(#rendered-03-rbac-abac_flowchart-pointEnd)"></path></g><g class="edgeLabels"><g class="edgeLabel"><g class="label" transform="translate(0, 0)"><foreignObject width="0" height="0"><div xmlns="http://www.w3.org/1999/xhtml" style="display: inline-block; white-space: nowrap;"><span class="edgeLabel"></span></div></foreignObject></g></g><g class="edgeLabel"><g class="label" transform="translate(0, 0)"><foreignObject width="0" height="0"><div xmlns="http://www.w3.org/1999/xhtml" style="display: inline-block; white-space: nowrap;"><span class="edgeLabel"></span></div></foreignObject></g></g><g class="edgeLabel"><g class="label" transform="translate(0, 0)"><foreignObject width="0" height="0"><div xmlns="http://www.w3.org/1999/xhtml" style="display: inline-block; white-space: nowrap;"><span class="edgeLabel"></span></div></foreignObject></g></g><g class="edgeLabel"><g class="label" transform="translate(0, 0)"><foreignObject width="0" height="0"><div xmlns="http://www.w3.org/1999/xhtml" style="display: inline-block; white-space: nowrap;"><span class="edgeLabel"></span></div></foreignObject></g></g><g class="edgeLabel"><g class="label" transform="translate(0, 0)"><foreignObject width="0" height="0"><div xmlns="http://www.w3.org/1999/xhtml" style="display: inline-block; white-space: nowrap;"><span class="edgeLabel"></span></div></foreignObject></g></g><g class="edgeLabel"><g class="label" transform="translate(0, 0)"><foreignObject width="0" height="0"><div xmlns="http://www.w3.org/1999/xhtml" style="display: inline-block; white-space: nowrap;"><span class="edgeLabel"></span></div></foreignObject></g></g><g class="edgeLabel"><g class="label" transform="translate(0, 0)"><foreignObject width="0" height="0"><div xmlns="http://www.w3.org/1999/xhtml" style="display: inline-block; white-space: nowrap;"><span class="edgeLabel"></span></div></foreignObject></g></g><g class="edgeLabel"><g class="label" transform="translate(0, 0)"><foreignObject width="0" height="0"><div xmlns="http://www.w3.org/1999/xhtml" style="display: inline-block; white-space: nowrap;"><span class="edgeLabel"></span></div></foreignObject></g></g><g class="edgeLabel"><g class="label" transform="translate(0, 0)"><foreignObject width="0" height="0"><div xmlns="http://www.w3.org/1999/xhtml" style="display: inline-block; white-space: nowrap;"><span class="edgeLabel"></span></div></foreignObject></g></g><g class="edgeLabel"><g class="label" transform="translate(0, 0)"><foreignObject width="0" height="0"><div xmlns="http://www.w3.org/1999/xhtml" style="display: inline-block; white-space: nowrap;"><span class="edgeLabel"></span></div></foreignObject></g></g><g class="edgeLabel"><g class="label" transform="translate(0, 0)"><foreignObject width="0" height="0"><div xmlns="http://www.w3.org/1999/xhtml" style="display: inline-block; white-space: nowrap;"><span class="edgeLabel"></span></div></foreignObject></g></g><g class="edgeLabel"><g class="label" transform="translate(0, 0)"><foreignObject width="0" height="0"><div xmlns="http://www.w3.org/1999/xhtml" style="display: inline-block; white-space: nowrap;"><span class="edgeLabel"></span></div></foreignObject></g></g></g><g class="nodes"><g class="root" transform="translate(1216.49609375, 428)"><g class="clusters"><g class="cluster default flowchart-label" id="DataIsolation"><rect style="" rx="0" ry="0" x="8" y="8" width="668.40625" height="188"></rect><g class="cluster-label" transform="translate(292.8671875, 8)"><foreignObject width="98.671875" height="19"><div xmlns="http://www.w3.org/1999/xhtml" style="display: inline-block; white-space: nowrap;"><span class="nodeLabel">Data Isolation</span></div></foreignObject></g></g></g><g class="edgePaths"><path d="M182.859,60L187.026,60C191.193,60,199.526,60,206.976,60C214.426,60,220.993,60,224.276,60L227.559,60" id="L-JWT-Middleware-0" class=" edge-thickness-normal edge-pattern-solid flowchart-link LS-JWT LE-Middleware" style="fill:none;" marker-end="url(#rendered-03-rbac-abac_flowchart-pointEnd)"></path><path d="M440.688,60L444.854,60C449.021,60,457.354,60,471.153,63.84C484.951,67.679,504.215,75.358,513.846,79.198L523.478,83.037" id="L-Middleware-Query-0" class=" edge-thickness-normal edge-pattern-solid flowchart-link LS-Middleware LE-Query" style="fill:none;" marker-end="url(#rendered-03-rbac-abac_flowchart-pointEnd)"></path><path d="M424.602,144L431.449,144C438.297,144,451.992,144,468.472,140.16C484.951,136.321,504.215,128.642,513.846,124.802L523.478,120.963" id="L-TenantId-Query-0" class=" edge-thickness-normal edge-pattern-solid flowchart-link LS-TenantId LE-Query" style="fill:none;" marker-end="url(#rendered-03-rbac-abac_flowchart-pointEnd)"></path></g><g class="edgeLabels"><g class="edgeLabel"><g class="label" transform="translate(0, 0)"><foreignObject width="0" height="0"><div xmlns="http://www.w3.org/1999/xhtml" style="display: inline-block; white-space: nowrap;"><span class="edgeLabel"></span></div></foreignObject></g></g><g class="edgeLabel"><g class="label" transform="translate(0, 0)"><foreignObject width="0" height="0"><div xmlns="http://www.w3.org/1999/xhtml" style="display: inline-block; white-space: nowrap;"><span class="edgeLabel"></span></div></foreignObject></g></g><g class="edgeLabel"><g class="label" transform="translate(0, 0)"><foreignObject width="0" height="0"><div xmlns="http://www.w3.org/1999/xhtml" style="display: inline-block; white-space: nowrap;"><span class="edgeLabel"></span></div></foreignObject></g></g></g><g class="nodes"><g class="node default default flowchart-label" id="flowchart-TenantId-111" data-node="true" data-id="TenantId" transform="translate(336.7734375, 144)"><rect class="basic label-container" style="" rx="0" ry="0" x="-87.828125" y="-17" width="175.65625" height="34"></rect><g class="label" style="" transform="translate(-80.328125, -9.5)"><rect></rect><foreignObject width="160.65625" height="19"><div xmlns="http://www.w3.org/1999/xhtml" style="display: inline-block; white-space: nowrap;"><span class="nodeLabel">tenantId (Foreign Key)</span></div></foreignObject></g></g><g class="node default default flowchart-label" id="flowchart-JWT-112" data-node="true" data-id="JWT" transform="translate(107.9296875, 60)"><rect class="basic label-container" style="" rx="0" ry="0" x="-74.9296875" y="-17" width="149.859375" height="34"></rect><g class="label" style="" transform="translate(-67.4296875, -9.5)"><rect></rect><foreignObject width="134.859375" height="19"><div xmlns="http://www.w3.org/1999/xhtml" style="display: inline-block; white-space: nowrap;"><span class="nodeLabel">tenantId from JWT</span></div></foreignObject></g></g><g class="node default default flowchart-label" id="flowchart-Middleware-113" data-node="true" data-id="Middleware" transform="translate(336.7734375, 60)"><rect class="basic label-container" style="" rx="0" ry="0" x="-103.9140625" y="-17" width="207.828125" height="34"></rect><g class="label" style="" transform="translate(-96.4140625, -9.5)"><rect></rect><foreignObject width="192.828125" height="19"><div xmlns="http://www.w3.org/1999/xhtml" style="display: inline-block; white-space: nowrap;"><span class="nodeLabel">tenantContext middleware</span></div></foreignObject></g></g><g class="node default default flowchart-label" id="flowchart-Query-114" data-node="true" data-id="Query" transform="translate(571.046875, 102)"><rect class="basic label-container" style="" rx="0" ry="0" x="-80.359375" y="-17" width="160.71875" height="34"></rect><g class="label" style="" transform="translate(-72.859375, -9.5)"><rect></rect><foreignObject width="145.71875" height="19"><div xmlns="http://www.w3.org/1999/xhtml" style="display: inline-block; white-space: nowrap;"><span class="nodeLabel">Auto-scoped queries</span></div></foreignObject></g></g></g></g><g class="node default default flowchart-label" id="flowchart-Global-108" data-node="true" data-id="Global" transform="translate(112.125, 151)"><rect class="basic label-container" style="" rx="0" ry="0" x="-77.125" y="-17" width="154.25" height="34"></rect><g class="label" style="" transform="translate(-69.625, -9.5)"><rect></rect><foreignObject width="139.25" height="19"><div xmlns="http://www.w3.org/1999/xhtml" style="display: inline-block; white-space: nowrap;"><span class="nodeLabel">Global: user:create</span></div></foreignObject></g></g><g class="node default default flowchart-label" id="flowchart-Self-109" data-node="true" data-id="Self" transform="translate(324.5234375, 151)"><rect class="basic label-container" style="" rx="0" ry="0" x="-85.2734375" y="-17" width="170.546875" height="34"></rect><g class="label" style="" transform="translate(-77.7734375, -9.5)"><rect></rect><foreignObject width="155.546875" height="19"><div xmlns="http://www.w3.org/1999/xhtml" style="display: inline-block; white-space: nowrap;"><span class="nodeLabel">Self: user:self:update</span></div></foreignObject></g></g><g class="node default default flowchart-label" id="flowchart-Tenant-110" data-node="true" data-id="Tenant" transform="translate(564.5546875, 151)"><rect class="basic label-container" style="" rx="0" ry="0" x="-104.7578125" y="-17" width="209.515625" height="34"></rect><g class="label" style="" transform="translate(-97.2578125, -9.5)"><rect></rect><foreignObject width="194.515625" height="19"><div xmlns="http://www.w3.org/1999/xhtml" style="display: inline-block; white-space: nowrap;"><span class="nodeLabel">Tenant: user:tenant:create</span></div></foreignObject></g></g><g class="node default default flowchart-label" id="flowchart-Role-103" data-node="true" data-id="Role" transform="translate(1239.328125, 42)"><rect class="basic label-container" style="" rx="0" ry="0" x="-71.0078125" y="-17" width="142.015625" height="34"></rect><g class="label" style="" transform="translate(-63.5078125, -9.5)"><rect></rect><foreignObject width="127.015625" height="19"><div xmlns="http://www.w3.org/1999/xhtml" style="display: inline-block; white-space: nowrap;"><span class="nodeLabel">Role (Role model)</span></div></foreignObject></g></g><g class="node default default flowchart-label" id="flowchart-MenuGroup-104" data-node="true" data-id="MenuGroup" transform="translate(1044.8671875, 151)"><rect class="basic label-container" style="" rx="0" ry="0" x="-94.0546875" y="-17" width="188.109375" height="34"></rect><g class="label" style="" transform="translate(-86.5546875, -9.5)"><rect></rect><foreignObject width="173.109375" height="19"><div xmlns="http://www.w3.org/1999/xhtml" style="display: inline-block; white-space: nowrap;"><span class="nodeLabel">MenuGroup (Navigation)</span></div></foreignObject></g></g><g class="node default default flowchart-label" id="flowchart-RoleMenuPerm-105" data-node="true" data-id="RoleMenuPerm" transform="translate(888.0234375, 260)"><rect class="basic label-container" style="" rx="0" ry="0" x="-128.7109375" y="-17" width="257.421875" height="34"></rect><g class="label" style="" transform="translate(-121.2109375, -9.5)"><rect></rect><foreignObject width="242.421875" height="19"><div xmlns="http://www.w3.org/1999/xhtml" style="display: inline-block; white-space: nowrap;"><span class="nodeLabel">RoleMenuPermission (Read/Write)</span></div></foreignObject></g></g><g class="node default default flowchart-label" id="flowchart-Permission-106" data-node="true" data-id="Permission" transform="translate(1171.25, 344)"><rect class="basic label-container" style="" rx="0" ry="0" x="-84.828125" y="-17" width="169.65625" height="34"></rect><g class="label" style="" transform="translate(-77.328125, -9.5)"><rect></rect><foreignObject width="154.65625" height="19"><div xmlns="http://www.w3.org/1999/xhtml" style="display: inline-block; white-space: nowrap;"><span class="nodeLabel">Permission (Granular)</span></div></foreignObject></g></g><g class="node default default flowchart-label" id="flowchart-UserPerm-107" data-node="true" data-id="UserPerm" transform="translate(1171.25, 260)"><rect class="basic label-container" style="" rx="0" ry="0" x="-104.515625" y="-17" width="209.03125" height="34"></rect><g class="label" style="" transform="translate(-97.015625, -9.5)"><rect></rect><foreignObject width="194.03125" height="19"><div xmlns="http://www.w3.org/1999/xhtml" style="display: inline-block; white-space: nowrap;"><span class="nodeLabel">UserPermission (Individual)</span></div></foreignObject></g></g><g class="node default default flowchart-label" id="flowchart-Auth-99" data-node="true" data-id="Auth" transform="translate(1558.19921875, 42)"><rect class="basic label-container" style="" rx="0" ry="0" x="-77.703125" y="-17" width="155.40625" height="34"></rect><g class="label" style="" transform="translate(-70.203125, -9.5)"><rect></rect><foreignObject width="140.40625" height="19"><div xmlns="http://www.w3.org/1999/xhtml" style="display: inline-block; white-space: nowrap;"><span class="nodeLabel">JWT Authentication</span></div></foreignObject></g></g><g class="node default default flowchart-label" id="flowchart-RBAC-100" data-node="true" data-id="RBAC" transform="translate(1558.19921875, 151)"><rect class="basic label-container" style="" rx="0" ry="0" x="-72.4921875" y="-17" width="144.984375" height="34"></rect><g class="label" style="" transform="translate(-64.9921875, -9.5)"><rect></rect><foreignObject width="129.984375" height="19"><div xmlns="http://www.w3.org/1999/xhtml" style="display: inline-block; white-space: nowrap;"><span class="nodeLabel">RBAC - Role Based</span></div></foreignObject></g></g><g class="node default default flowchart-label" id="flowchart-Dynamic-101" data-node="true" data-id="Dynamic" transform="translate(1558.19921875, 260)"><rect class="basic label-container" style="" rx="0" ry="0" x="-129.4296875" y="-17" width="258.859375" height="34"></rect><g class="label" style="" transform="translate(-121.9296875, -9.5)"><rect></rect><foreignObject width="243.859375" height="19"><div xmlns="http://www.w3.org/1999/xhtml" style="display: inline-block; white-space: nowrap;"><span class="nodeLabel">Dynamic RBAC - Permission Matrix</span></div></foreignObject></g></g><g class="node default default flowchart-label" id="flowchart-ABAC-102" data-node="true" data-id="ABAC" transform="translate(1558.19921875, 344)"><rect class="basic label-container" style="" rx="0" ry="0" x="-89.5859375" y="-17" width="179.171875" height="34"></rect><g class="label" style="" transform="translate(-82.0859375, -9.5)"><rect></rect><foreignObject width="164.171875" height="19"><div xmlns="http://www.w3.org/1999/xhtml" style="display: inline-block; white-space: nowrap;"><span class="nodeLabel">ABAC - Attribute Based</span></div></foreignObject></g></g></g></g></g></svg>