<svg id="rendered-05-middleware-pipeline" width="100%" xmlns="http://www.w3.org/2000/svg" style="max-width: 2147.0625px;" viewBox="-8 -8 2147.0625 297.92889404296875" role="graphics-document document" aria-roledescription="flowchart-v2"><style>#rendered-05-middleware-pipeline{font-family:"trebuchet ms",verdana,arial,sans-serif;font-size:16px;fill:#333;}#rendered-05-middleware-pipeline .error-icon{fill:#552222;}#rendered-05-middleware-pipeline .error-text{fill:#552222;stroke:#552222;}#rendered-05-middleware-pipeline .edge-thickness-normal{stroke-width:2px;}#rendered-05-middleware-pipeline .edge-thickness-thick{stroke-width:3.5px;}#rendered-05-middleware-pipeline .edge-pattern-solid{stroke-dasharray:0;}#rendered-05-middleware-pipeline .edge-pattern-dashed{stroke-dasharray:3;}#rendered-05-middleware-pipeline .edge-pattern-dotted{stroke-dasharray:2;}#rendered-05-middleware-pipeline .marker{fill:#333333;stroke:#333333;}#rendered-05-middleware-pipeline .marker.cross{stroke:#333333;}#rendered-05-middleware-pipeline svg{font-family:"trebuchet ms",verdana,arial,sans-serif;font-size:16px;}#rendered-05-middleware-pipeline .label{font-family:"trebuchet ms",verdana,arial,sans-serif;color:#333;}#rendered-05-middleware-pipeline .cluster-label text{fill:#333;}#rendered-05-middleware-pipeline .cluster-label span,#rendered-05-middleware-pipeline p{color:#333;}#rendered-05-middleware-pipeline .label text,#rendered-05-middleware-pipeline span,#rendered-05-middleware-pipeline p{fill:#333;color:#333;}#rendered-05-middleware-pipeline .node rect,#rendered-05-middleware-pipeline .node circle,#rendered-05-middleware-pipeline .node ellipse,#rendered-05-middleware-pipeline .node polygon,#rendered-05-middleware-pipeline .node path{fill:#ECECFF;stroke:#9370DB;stroke-width:1px;}#rendered-05-middleware-pipeline .flowchart-label text{text-anchor:middle;}#rendered-05-middleware-pipeline .node .katex path{fill:#000;stroke:#000;stroke-width:1px;}#rendered-05-middleware-pipeline .node .label{text-align:center;}#rendered-05-middleware-pipeline .node.clickable{cursor:pointer;}#rendered-05-middleware-pipeline .arrowheadPath{fill:#333333;}#rendered-05-middleware-pipeline .edgePath .path{stroke:#333333;stroke-width:2.0px;}#rendered-05-middleware-pipeline .flowchart-link{stroke:#333333;fill:none;}#rendered-05-middleware-pipeline .edgeLabel{background-color:#e8e8e8;text-align:center;}#rendered-05-middleware-pipeline .edgeLabel rect{opacity:0.5;background-color:#e8e8e8;fill:#e8e8e8;}#rendered-05-middleware-pipeline .labelBkg{background-color:rgba(232, 232, 232, 0.5);}#rendered-05-middleware-pipeline .cluster rect{fill:#ffffde;stroke:#aaaa33;stroke-width:1px;}#rendered-05-middleware-pipeline .cluster text{fill:#333;}#rendered-05-middleware-pipeline .cluster span,#rendered-05-middleware-pipeline p{color:#333;}#rendered-05-middleware-pipeline div.mermaidTooltip{position:absolute;text-align:center;max-width:200px;padding:2px;font-family:"trebuchet ms",verdana,arial,sans-serif;font-size:12px;background:hsl(80, 100%, 96.2745098039%);border:1px solid #aaaa33;border-radius:2px;pointer-events:none;z-index:100;}#rendered-05-middleware-pipeline .flowchartTitleText{text-anchor:middle;font-size:18px;fill:#333;}#rendered-05-middleware-pipeline :root{--mermaid-font-family:"trebuchet ms",verdana,arial,sans-serif;}</style><g><marker id="rendered-05-middleware-pipeline_flowchart-pointEnd" class="marker flowchart" viewBox="0 0 10 10" refX="6" refY="5" markerUnits="userSpaceOnUse" markerWidth="12" markerHeight="12" orient="auto"><path d="M 0 0 L 10 5 L 0 10 z" class="arrowMarkerPath" style="stroke-width: 1; stroke-dasharray: 1, 0;"></path></marker><marker id="rendered-05-middleware-pipeline_flowchart-pointStart" class="marker flowchart" viewBox="0 0 10 10" refX="4.5" refY="5" markerUnits="userSpaceOnUse" markerWidth="12" markerHeight="12" orient="auto"><path d="M 0 5 L 10 10 L 10 0 z" class="arrowMarkerPath" style="stroke-width: 1; stroke-dasharray: 1, 0;"></path></marker><marker id="rendered-05-middleware-pipeline_flowchart-circleEnd" class="marker flowchart" viewBox="0 0 10 10" refX="11" refY="5" markerUnits="userSpaceOnUse" markerWidth="11" markerHeight="11" orient="auto"><circle cx="5" cy="5" r="5" class="arrowMarkerPath" style="stroke-width: 1; stroke-dasharray: 1, 0;"></circle></marker><marker id="rendered-05-middleware-pipeline_flowchart-circleStart" class="marker flowchart" viewBox="0 0 10 10" refX="-1" refY="5" markerUnits="userSpaceOnUse" markerWidth="11" markerHeight="11" orient="auto"><circle cx="5" cy="5" r="5" class="arrowMarkerPath" style="stroke-width: 1; stroke-dasharray: 1, 0;"></circle></marker><marker id="rendered-05-middleware-pipeline_flowchart-crossEnd" class="marker cross flowchart" viewBox="0 0 11 11" refX="12" refY="5.2" markerUnits="userSpaceOnUse" markerWidth="11" markerHeight="11" orient="auto"><path d="M 1,1 l 9,9 M 10,1 l -9,9" class="arrowMarkerPath" style="stroke-width: 2; stroke-dasharray: 1, 0;"></path></marker><marker id="rendered-05-middleware-pipeline_flowchart-crossStart" class="marker cross flowchart" viewBox="0 0 11 11" refX="-1" refY="5.2" markerUnits="userSpaceOnUse" markerWidth="11" markerHeight="11" orient="auto"><path d="M 1,1 l 9,9 M 10,1 l -9,9" class="arrowMarkerPath" style="stroke-width: 2; stroke-dasharray: 1, 0;"></path></marker><g class="root"><g class="clusters"></g><g class="edgePaths"><path d="M140.734,193.403L144.901,193.403C149.068,193.403,157.401,193.403,164.851,193.403C172.301,193.403,178.868,193.403,182.151,193.403L185.434,193.403" id="L-Req-Sanitizer-0" class=" edge-thickness-normal edge-pattern-solid flowchart-link LS-Req LE-Sanitizer" style="fill:none;" marker-end="url(#rendered-05-middleware-pipeline_flowchart-pointEnd)"></path><path d="M319.578,193.403L323.745,193.403C327.911,193.403,336.245,193.403,343.695,193.403C351.145,193.403,357.711,193.403,360.995,193.403L364.278,193.403" id="L-Sanitizer-RateLimiter-0" class=" edge-thickness-normal edge-pattern-solid flowchart-link LS-Sanitizer LE-RateLimiter" style="fill:none;" marker-end="url(#rendered-05-middleware-pipeline_flowchart-pointEnd)"></path><path d="M477.806,176.403L489.044,170.596C500.282,164.789,522.758,153.174,537.28,147.367C551.801,141.56,558.368,141.56,561.651,141.56L564.934,141.56" id="L-RateLimiter-Auth-0" class=" edge-thickness-normal edge-pattern-solid flowchart-link LS-RateLimiter LE-Auth" style="fill:none;" marker-end="url(#rendered-05-middleware-pipeline_flowchart-pointEnd)"></path><path d="M678.473,124.56L690.501,117.864C702.529,111.168,726.585,97.775,744.581,91.079C762.577,84.383,774.514,84.383,780.482,84.383L786.45,84.383" id="L-Auth-TenantCtx-0" class=" edge-thickness-normal edge-pattern-solid flowchart-link LS-Auth LE-TenantCtx" style="fill:none;" marker-end="url(#rendered-05-middleware-pipeline_flowchart-pointEnd)"></path><path d="M916.156,84.383L923.008,84.383C929.859,84.383,943.563,84.383,953.697,84.383C963.832,84.383,970.399,84.383,973.682,84.383L976.966,84.383" id="L-TenantCtx-TenantScope-0" class=" edge-thickness-normal edge-pattern-solid flowchart-link LS-TenantCtx LE-TenantScope" style="fill:none;" marker-end="url(#rendered-05-middleware-pipeline_flowchart-pointEnd)"></path><path d="M1097.094,84.383L1101.26,84.383C1105.427,84.383,1113.76,84.383,1121.21,84.383C1128.66,84.383,1135.227,84.383,1138.51,84.383L1141.794,84.383" id="L-TenantScope-DynamicAccess-0" class=" edge-thickness-normal edge-pattern-solid flowchart-link LS-TenantScope LE-DynamicAccess" style="fill:none;" marker-end="url(#rendered-05-middleware-pipeline_flowchart-pointEnd)"></path><path d="M1260.974,57.883L1269.583,52.652C1278.191,47.422,1295.408,36.961,1311.823,31.73C1328.239,26.5,1343.852,26.5,1351.659,26.5L1359.466,26.5" id="L-DynamicAccess-InputValidation-0" class=" edge-thickness-normal edge-pattern-solid flowchart-link LS-DynamicAccess LE-InputValidation" style="fill:none;" marker-end="url(#rendered-05-middleware-pipeline_flowchart-pointEnd)"></path><path d="M1493.172,26.5L1501.862,26.5C1510.552,26.5,1527.932,26.5,1539.906,26.5C1551.879,26.5,1558.446,26.5,1561.729,26.5L1565.013,26.5" id="L-InputValidation-Controller-0" class=" edge-thickness-normal edge-pattern-solid flowchart-link LS-InputValidation LE-Controller" style="fill:none;" marker-end="url(#rendered-05-middleware-pipeline_flowchart-pointEnd)"></path><path d="M1718.766,26.5L1722.932,26.5C1727.099,26.5,1735.432,26.5,1742.882,26.5C1750.332,26.5,1756.899,26.5,1760.182,26.5L1763.466,26.5" id="L-Controller-ActivityLog-0" class=" edge-thickness-normal edge-pattern-solid flowchart-link LS-Controller LE-ActivityLog" style="fill:none;" marker-end="url(#rendered-05-middleware-pipeline_flowchart-pointEnd)"></path><path d="M1868.203,26.5L1872.37,26.5C1876.536,26.5,1884.87,26.5,1892.32,26.5C1899.77,26.5,1906.336,26.5,1909.62,26.5L1912.903,26.5" id="L-ActivityLog-AuditLog-0" class=" edge-thickness-normal edge-pattern-solid flowchart-link LS-ActivityLog LE-AuditLog" style="fill:none;" marker-end="url(#rendered-05-middleware-pipeline_flowchart-pointEnd)"></path><path d="M2000.75,26.5L2004.917,26.5C2009.083,26.5,2017.417,26.5,2024.867,26.5C2032.317,26.5,2038.883,26.5,2042.167,26.5L2045.45,26.5" id="L-AuditLog-Resp-0" class=" edge-thickness-normal edge-pattern-solid flowchart-link LS-AuditLog LE-Resp" style="fill:none;" marker-end="url(#rendered-05-middleware-pipeline_flowchart-pointEnd)"></path><path d="M678.473,158.56L690.501,165.257C702.529,171.953,726.585,185.346,741.896,192.042C757.207,198.738,763.774,198.738,767.057,198.738L770.341,198.738" id="L-Auth-JWT-0" class=" edge-thickness-normal edge-pattern-dotted flowchart-link LS-Auth LE-JWT" style="fill:none;stroke-width:2px;stroke-dasharray:3;" marker-end="url(#rendered-05-middleware-pipeline_flowchart-pointEnd)"></path><path d="M1260.974,110.883L1269.583,116.113C1278.191,121.344,1295.408,131.804,1307.3,137.035C1319.192,142.265,1325.758,142.265,1329.042,142.265L1332.325,142.265" id="L-DynamicAccess-Perm-0" class=" edge-thickness-normal edge-pattern-dotted flowchart-link LS-DynamicAccess LE-Perm" style="fill:none;stroke-width:2px;stroke-dasharray:3;" marker-end="url(#rendered-05-middleware-pipeline_flowchart-pointEnd)"></path><path d="M477.806,210.403L489.044,216.21C500.282,222.017,522.758,233.631,538.721,239.438C554.684,245.245,564.133,245.245,568.858,245.245L573.583,245.245" id="L-RateLimiter-Limits-0" class=" edge-thickness-normal edge-pattern-dotted flowchart-link LS-RateLimiter LE-Limits" style="fill:none;stroke-width:2px;stroke-dasharray:3;" marker-end="url(#rendered-05-middleware-pipeline_flowchart-pointEnd)"></path></g><g class="edgeLabels"><g class="edgeLabel"><g class="label" transform="translate(0, 0)"><foreignObject width="0" height="0"><div xmlns="http://www.w3.org/1999/xhtml" style="display: inline-block; white-space: nowrap;"><span class="edgeLabel"></span></div></foreignObject></g></g><g class="edgeLabel"><g class="label" transform="translate(0, 0)"><foreignObject width="0" height="0"><div xmlns="http://www.w3.org/1999/xhtml" style="display: inline-block; white-space: nowrap;"><span class="edgeLabel"></span></div></foreignObject></g></g><g class="edgeLabel"><g class="label" transform="translate(0, 0)"><foreignObject width="0" height="0"><div xmlns="http://www.w3.org/1999/xhtml" style="display: inline-block; white-space: nowrap;"><span class="edgeLabel"></span></div></foreignObject></g></g><g class="edgeLabel"><g class="label" transform="translate(0, 0)"><foreignObject width="0" height="0"><div xmlns="http://www.w3.org/1999/xhtml" style="display: inline-block; white-space: nowrap;"><span class="edgeLabel"></span></div></foreignObject></g></g><g class="edgeLabel"><g class="label" transform="translate(0, 0)"><foreignObject width="0" height="0"><div xmlns="http://www.w3.org/1999/xhtml" style="display: inline-block; white-space: nowrap;"><span class="edgeLabel"></span></div></foreignObject></g></g><g class="edgeLabel"><g class="label" transform="translate(0, 0)"><foreignObject width="0" height="0"><div xmlns="http://www.w3.org/1999/xhtml" style="display: inline-block; white-space: nowrap;"><span class="edgeLabel"></span></div></foreignObject></g></g><g class="edgeLabel"><g class="label" transform="translate(0, 0)"><foreignObject width="0" height="0"><div xmlns="http://www.w3.org/1999/xhtml" style="display: inline-block; white-space: nowrap;"><span class="edgeLabel"></span></div></foreignObject></g></g><g class="edgeLabel"><g class="label" transform="translate(0, 0)"><foreignObject width="0" height="0"><div xmlns="http://www.w3.org/1999/xhtml" style="display: inline-block; white-space: nowrap;"><span class="edgeLabel"></span></div></foreignObject></g></g><g class="edgeLabel"><g class="label" transform="translate(0, 0)"><foreignObject width="0" height="0"><div xmlns="http://www.w3.org/1999/xhtml" style="display: inline-block; white-space: nowrap;"><span class="edgeLabel"></span></div></foreignObject></g></g><g class="edgeLabel"><g class="label" transform="translate(0, 0)"><foreignObject width="0" height="0"><div xmlns="http://www.w3.org/1999/xhtml" style="display: inline-block; white-space: nowrap;"><span class="edgeLabel"></span></div></foreignObject></g></g><g class="edgeLabel"><g class="label" transform="translate(0, 0)"><foreignObject width="0" height="0"><div xmlns="http://www.w3.org/1999/xhtml" style="display: inline-block; white-space: nowrap;"><span class="edgeLabel"></span></div></foreignObject></g></g><g class="edgeLabel"><g class="label" transform="translate(0, 0)"><foreignObject width="0" height="0"><div xmlns="http://www.w3.org/1999/xhtml" style="display: inline-block; white-space: nowrap;"><span class="edgeLabel"></span></div></foreignObject></g></g><g class="edgeLabel"><g class="label" transform="translate(0, 0)"><foreignObject width="0" height="0"><div xmlns="http://www.w3.org/1999/xhtml" style="display: inline-block; white-space: nowrap;"><span class="edgeLabel"></span></div></foreignObject></g></g><g class="edgeLabel"><g class="label" transform="translate(0, 0)"><foreignObject width="0" height="0"><div xmlns="http://www.w3.org/1999/xhtml" style="display: inline-block; white-space: nowrap;"><span class="edgeLabel"></span></div></foreignObject></g></g></g><g class="nodes"><g class="node default default flowchart-label" id="flowchart-Req-149" data-node="true" data-id="Req" transform="translate(70.3671875, 193.4025650024414)"><rect class="basic label-container" style="fill:#e1f5fe;" rx="0" ry="0" x="-70.3671875" y="-17" width="140.734375" height="34"></rect><g class="label" style="" transform="translate(-62.8671875, -9.5)"><rect></rect><foreignObject width="125.734375" height="19"><div xmlns="http://www.w3.org/1999/xhtml" style="display: inline-block; white-space: nowrap;"><span class="nodeLabel">Incoming Request</span></div></foreignObject></g></g><g class="node default default flowchart-label" id="flowchart-Sanitizer-150" data-node="true" data-id="Sanitizer" transform="translate(255.15625, 193.4025650024414)"><rect class="basic label-container" style="" rx="0" ry="0" x="-64.421875" y="-26.5" width="128.84375" height="53"></rect><g class="label" style="" transform="translate(-56.921875, -19)"><rect></rect><foreignObject width="113.84375" height="38"><div xmlns="http://www.w3.org/1999/xhtml" style="display: inline-block; white-space: nowrap;"><span class="nodeLabel">Global Sanitizer<br/>XSS Protection</span></div></foreignObject></g></g><g class="node default default flowchart-label" id="flowchart-RateLimiter-152" data-node="true" data-id="RateLimiter" transform="translate(444.90625, 193.4025650024414)"><rect class="basic label-container" style="" rx="0" ry="0" x="-75.328125" y="-17" width="150.65625" height="34"></rect><g class="label" style="" transform="translate(-67.828125, -9.5)"><rect></rect><foreignObject width="135.65625" height="19"><div xmlns="http://www.w3.org/1999/xhtml" style="display: inline-block; white-space: nowrap;"><span class="nodeLabel">Token Rate Limiter</span></div></foreignObject></g></g><g class="node default default flowchart-label" id="flowchart-Auth-154" data-node="true" data-id="Auth" transform="translate(647.9375, 141.56045722961426)"><rect class="basic label-container" style="" rx="0" ry="0" x="-77.703125" y="-17" width="155.40625" height="34"></rect><g class="label" style="" transform="translate(-70.203125, -9.5)"><rect></rect><foreignObject width="140.40625" height="19"><div xmlns="http://www.w3.org/1999/xhtml" style="display: inline-block; white-space: nowrap;"><span class="nodeLabel">JWT Authentication</span></div></foreignObject></g></g><g class="node default default flowchart-label" id="flowchart-TenantCtx-156" data-node="true" data-id="TenantCtx" transform="translate(853.953125, 84.38269424438477)"><rect class="basic label-container" style="" rx="0" ry="0" x="-62.203125" y="-26.5" width="124.40625" height="53"></rect><g class="label" style="" transform="translate(-54.703125, -19)"><rect></rect><foreignObject width="109.40625" height="38"><div xmlns="http://www.w3.org/1999/xhtml" style="display: inline-block; white-space: nowrap;"><span class="nodeLabel">Tenant Context<br/>Identification</span></div></foreignObject></g></g><g class="node default default flowchart-label" id="flowchart-TenantScope-158" data-node="true" data-id="TenantScope" transform="translate(1039.6796875, 84.38269424438477)"><rect class="basic label-container" style="" rx="0" ry="0" x="-57.4140625" y="-26.5" width="114.828125" height="53"></rect><g class="label" style="" transform="translate(-49.9140625, -19)"><rect></rect><foreignObject width="99.828125" height="38"><div xmlns="http://www.w3.org/1999/xhtml" style="display: inline-block; white-space: nowrap;"><span class="nodeLabel">Tenant Scope<br/>Query Binding</span></div></foreignObject></g></g><g class="node default default flowchart-label" id="flowchart-DynamicAccess-160" data-node="true" data-id="DynamicAccess" transform="translate(1217.359375, 84.38269424438477)"><rect class="basic label-container" style="" rx="0" ry="0" x="-70.265625" y="-26.5" width="140.53125" height="53"></rect><g class="label" style="" transform="translate(-62.765625, -19)"><rect></rect><foreignObject width="125.53125" height="38"><div xmlns="http://www.w3.org/1999/xhtml" style="display: inline-block; white-space: nowrap;"><span class="nodeLabel">Dynamic Access<br/>Permission Matrix</span></div></foreignObject></g></g><g class="node default default flowchart-label" id="flowchart-InputValidation-162" data-node="true" data-id="InputValidation" transform="translate(1428.96875, 26.5)"><rect class="basic label-container" style="" rx="0" ry="0" x="-64.203125" y="-26.5" width="128.40625" height="53"></rect><g class="label" style="" transform="translate(-56.703125, -19)"><rect></rect><foreignObject width="113.40625" height="38"><div xmlns="http://www.w3.org/1999/xhtml" style="display: inline-block; white-space: nowrap;"><span class="nodeLabel">Input Validation<br/>Joi Schema</span></div></foreignObject></g></g><g class="node default default flowchart-label" id="flowchart-Controller-164" data-node="true" data-id="Controller" transform="translate(1644.5390625, 26.5)"><rect class="basic label-container" style="fill:#fff3e0;" rx="0" ry="0" x="-74.2265625" y="-17" width="148.453125" height="34"></rect><g class="label" style="" transform="translate(-66.7265625, -9.5)"><rect></rect><foreignObject width="133.453125" height="19"><div xmlns="http://www.w3.org/1999/xhtml" style="display: inline-block; white-space: nowrap;"><span class="nodeLabel">Controller Handler</span></div></foreignObject></g></g><g class="node default default flowchart-label" id="flowchart-ActivityLog-166" data-node="true" data-id="ActivityLog" transform="translate(1818.484375, 26.5)"><rect class="basic label-container" style="" rx="0" ry="0" x="-49.71875" y="-17" width="99.4375" height="34"></rect><g class="label" style="" transform="translate(-42.21875, -9.5)"><rect></rect><foreignObject width="84.4375" height="19"><div xmlns="http://www.w3.org/1999/xhtml" style="display: inline-block; white-space: nowrap;"><span class="nodeLabel">Activity Log</span></div></foreignObject></g></g><g class="node default default flowchart-label" id="flowchart-AuditLog-168" data-node="true" data-id="AuditLog" transform="translate(1959.4765625, 26.5)"><rect class="basic label-container" style="" rx="0" ry="0" x="-41.2734375" y="-17" width="82.546875" height="34"></rect><g class="label" style="" transform="translate(-33.7734375, -9.5)"><rect></rect><foreignObject width="67.546875" height="19"><div xmlns="http://www.w3.org/1999/xhtml" style="display: inline-block; white-space: nowrap;"><span class="nodeLabel">Audit Log</span></div></foreignObject></g></g><g class="node default default flowchart-label" id="flowchart-Resp-170" data-node="true" data-id="Resp" transform="translate(2090.90625, 26.5)"><rect class="basic label-container" style="fill:#e8f5e9;" rx="0" ry="0" x="-40.15625" y="-17" width="80.3125" height="34"></rect><g class="label" style="" transform="translate(-32.65625, -9.5)"><rect></rect><foreignObject width="65.3125" height="19"><div xmlns="http://www.w3.org/1999/xhtml" style="display: inline-block; white-space: nowrap;"><span class="nodeLabel">Response</span></div></foreignObject></g></g><g class="node default default flowchart-label" id="flowchart-JWT-172" label-offset-y="13.903683976919663" data-node="true" data-id="JWT" transform="translate(853.953125, 198.73822021484375)"><path style="fill:#f3e5f5;" d="M 0,13.903683976919663 a 78.3125,13.903683976919663 0,0,0 156.625 0 a 78.3125,13.903683976919663 0,0,0 -156.625 0 l 0,47.903683976919666 a 78.3125,13.903683976919663 0,0,0 156.625 0 l 0,-47.903683976919666" transform="translate(-78.3125,-37.8555259653795)"></path><g class="label" style="" transform="translate(-70.8125, -9.5)"><rect></rect><foreignObject width="141.625" height="19"><div xmlns="http://www.w3.org/1999/xhtml" style="display: inline-block; white-space: nowrap;"><span class="nodeLabel">Redis Session Cache</span></div></foreignObject></g></g><g class="node default default flowchart-label" id="flowchart-Perm-174" label-offset-y="14.843591306114156" data-node="true" data-id="Perm" transform="translate(1428.96875, 142.26538848876953)"><path style="fill:#f3e5f5;" d="M 0,14.843591306114156 a 91.34375,14.843591306114156 0,0,0 182.6875 0 a 91.34375,14.843591306114156 0,0,0 -182.6875 0 l 0,48.843591306114156 a 91.34375,14.843591306114156 0,0,0 182.6875 0 l 0,-48.843591306114156" transform="translate(-91.34375,-39.26538695917124)"></path><g class="label" style="" transform="translate(-83.84375, -9.5)"><rect></rect><foreignObject width="167.6875" height="19"><div xmlns="http://www.w3.org/1999/xhtml" style="display: inline-block; white-space: nowrap;"><span class="nodeLabel">Redis Permission Matrix</span></div></foreignObject></g></g><g class="node default default flowchart-label" id="flowchart-Limits-176" label-offset-y="13.12281014312014" data-node="true" data-id="Limits" transform="translate(647.9375, 245.24467277526855)"><path style="fill:#f3e5f5;" d="M 0,13.12281014312014 a 69.0546875,13.12281014312014 0,0,0 138.109375 0 a 69.0546875,13.12281014312014 0,0,0 -138.109375 0 l 0,47.12281014312014 a 69.0546875,13.12281014312014 0,0,0 138.109375 0 l 0,-47.12281014312014" transform="translate(-69.0546875,-36.68421521468021)"></path><g class="label" style="" transform="translate(-61.5546875, -9.5)"><rect></rect><foreignObject width="123.109375" height="19"><div xmlns="http://www.w3.org/1999/xhtml" style="display: inline-block; white-space: nowrap;"><span class="nodeLabel">Redis Rate Limits</span></div></foreignObject></g></g></g></g></g></svg>