<svg id="rendered-32-kanban-architecture" width="100%" xmlns="http://www.w3.org/2000/svg" style="max-width: 2121.609375px;" viewBox="-8 -8 2121.609375 1663.1790771484375" role="graphics-document document" aria-roledescription="flowchart-v2"><style>#rendered-32-kanban-architecture{font-family:"trebuchet ms",verdana,arial,sans-serif;font-size:16px;fill:#333;}#rendered-32-kanban-architecture .error-icon{fill:#552222;}#rendered-32-kanban-architecture .error-text{fill:#552222;stroke:#552222;}#rendered-32-kanban-architecture .edge-thickness-normal{stroke-width:2px;}#rendered-32-kanban-architecture .edge-thickness-thick{stroke-width:3.5px;}#rendered-32-kanban-architecture .edge-pattern-solid{stroke-dasharray:0;}#rendered-32-kanban-architecture .edge-pattern-dashed{stroke-dasharray:3;}#rendered-32-kanban-architecture .edge-pattern-dotted{stroke-dasharray:2;}#rendered-32-kanban-architecture .marker{fill:#333333;stroke:#333333;}#rendered-32-kanban-architecture .marker.cross{stroke:#333333;}#rendered-32-kanban-architecture svg{font-family:"trebuchet ms",verdana,arial,sans-serif;font-size:16px;}#rendered-32-kanban-architecture .label{font-family:"trebuchet ms",verdana,arial,sans-serif;color:#333;}#rendered-32-kanban-architecture .cluster-label text{fill:#333;}#rendered-32-kanban-architecture .cluster-label span,#rendered-32-kanban-architecture p{color:#333;}#rendered-32-kanban-architecture .label text,#rendered-32-kanban-architecture span,#rendered-32-kanban-architecture p{fill:#333;color:#333;}#rendered-32-kanban-architecture .node rect,#rendered-32-kanban-architecture .node circle,#rendered-32-kanban-architecture .node ellipse,#rendered-32-kanban-architecture .node polygon,#rendered-32-kanban-architecture .node path{fill:#ECECFF;stroke:#9370DB;stroke-width:1px;}#rendered-32-kanban-architecture .flowchart-label text{text-anchor:middle;}#rendered-32-kanban-architecture .node .katex path{fill:#000;stroke:#000;stroke-width:1px;}#rendered-32-kanban-architecture .node .label{text-align:center;}#rendered-32-kanban-architecture .node.clickable{cursor:pointer;}#rendered-32-kanban-architecture .arrowheadPath{fill:#333333;}#rendered-32-kanban-architecture .edgePath .path{stroke:#333333;stroke-width:2.0px;}#rendered-32-kanban-architecture .flowchart-link{stroke:#333333;fill:none;}#rendered-32-kanban-architecture .edgeLabel{background-color:#e8e8e8;text-align:center;}#rendered-32-kanban-architecture .edgeLabel rect{opacity:0.5;background-color:#e8e8e8;fill:#e8e8e8;}#rendered-32-kanban-architecture .labelBkg{background-color:rgba(232, 232, 232, 0.5);}#rendered-32-kanban-architecture .cluster rect{fill:#ffffde;stroke:#aaaa33;stroke-width:1px;}#rendered-32-kanban-architecture .cluster text{fill:#333;}#rendered-32-kanban-architecture .cluster span,#rendered-32-kanban-architecture p{color:#333;}#rendered-32-kanban-architecture div.mermaidTooltip{position:absolute;text-align:center;max-width:200px;padding:2px;font-family:"trebuchet ms",verdana,arial,sans-serif;font-size:12px;background:hsl(80, 100%, 96.2745098039%);border:1px solid #aaaa33;border-radius:2px;pointer-events:none;z-index:100;}#rendered-32-kanban-architecture .flowchartTitleText{text-anchor:middle;font-size:18px;fill:#333;}#rendered-32-kanban-architecture :root{--mermaid-font-family:"trebuchet ms",verdana,arial,sans-serif;}</style><g><marker id="rendered-32-kanban-architecture_flowchart-pointEnd" class="marker flowchart" viewBox="0 0 10 10" refX="6" refY="5" markerUnits="userSpaceOnUse" markerWidth="12" markerHeight="12" orient="auto"><path d="M 0 0 L 10 5 L 0 10 z" class="arrowMarkerPath" style="stroke-width: 1; stroke-dasharray: 1, 0;"></path></marker><marker id="rendered-32-kanban-architecture_flowchart-pointStart" class="marker flowchart" viewBox="0 0 10 10" refX="4.5" refY="5" markerUnits="userSpaceOnUse" markerWidth="12" markerHeight="12" orient="auto"><path d="M 0 5 L 10 10 L 10 0 z" class="arrowMarkerPath" style="stroke-width: 1; stroke-dasharray: 1, 0;"></path></marker><marker id="rendered-32-kanban-architecture_flowchart-circleEnd" class="marker flowchart" viewBox="0 0 10 10" refX="11" refY="5" markerUnits="userSpaceOnUse" markerWidth="11" markerHeight="11" orient="auto"><circle cx="5" cy="5" r="5" class="arrowMarkerPath" style="stroke-width: 1; stroke-dasharray: 1, 0;"></circle></marker><marker id="rendered-32-kanban-architecture_flowchart-circleStart" class="marker flowchart" viewBox="0 0 10 10" refX="-1" refY="5" markerUnits="userSpaceOnUse" markerWidth="11" markerHeight="11" orient="auto"><circle cx="5" cy="5" r="5" class="arrowMarkerPath" style="stroke-width: 1; stroke-dasharray: 1, 0;"></circle></marker><marker id="rendered-32-kanban-architecture_flowchart-crossEnd" class="marker cross flowchart" viewBox="0 0 11 11" refX="12" refY="5.2" markerUnits="userSpaceOnUse" markerWidth="11" markerHeight="11" orient="auto"><path d="M 1,1 l 9,9 M 10,1 l -9,9" class="arrowMarkerPath" style="stroke-width: 2; stroke-dasharray: 1, 0;"></path></marker><marker id="rendered-32-kanban-architecture_flowchart-crossStart" class="marker cross flowchart" viewBox="0 0 11 11" refX="-1" refY="5.2" markerUnits="userSpaceOnUse" markerWidth="11" markerHeight="11" orient="auto"><path d="M 1,1 l 9,9 M 10,1 l -9,9" class="arrowMarkerPath" style="stroke-width: 2; stroke-dasharray: 1, 0;"></path></marker><g class="root"><g class="clusters"><g class="cluster default flowchart-label" id="Store"><rect style="" rx="0" ry="0" x="601.30078125" y="545" width="953.140625" height="123.17910766601562"></rect><g class="cluster-label" transform="translate(1039.30078125, 545)"><foreignObject width="77.140625" height="19"><div xmlns="http://www.w3.org/1999/xhtml" style="display: inline-block; white-space: nowrap;"><span class="nodeLabel">Data Layer</span></div></foreignObject></g></g><g class="cluster default flowchart-label" id="Realtime"><rect style="fill:#f3e5f5;" rx="0" ry="0" x="3.3203125" y="545" width="577.98046875" height="974.1791076660156"></rect><g class="cluster-label" transform="translate(229.826171875, 545)"><foreignObject width="124.96875" height="19"><div xmlns="http://www.w3.org/1999/xhtml" style="display: inline-block; white-space: nowrap;"><span class="nodeLabel">Realtime + Notify</span></div></foreignObject></g></g><g class="cluster default flowchart-label" id="Svc"><rect style="fill:#fff3e0;" rx="0" ry="0" x="0" y="411" width="1589.17578125" height="84"></rect><g class="cluster-label" transform="translate(731.666015625, 411)"><foreignObject width="125.84375" height="19"><div xmlns="http://www.w3.org/1999/xhtml" style="display: inline-block; white-space: nowrap;"><span class="nodeLabel">kanban.service.js</span></div></foreignObject></g></g><g class="cluster default flowchart-label" id="API"><rect style="fill:#e8f5e9;" rx="0" ry="0" x="105.4453125" y="109" width="1455.953125" height="252"></rect><g class="cluster-label" transform="translate(728.265625, 109)"><foreignObject width="210.3125" height="19"><div xmlns="http://www.w3.org/1999/xhtml" style="display: inline-block; white-space: nowrap;"><span class="nodeLabel">Kanban API (/api/v1/kanban)</span></div></foreignObject></g></g><g class="cluster default flowchart-label" id="Client"><rect style="fill:#e3f2fd;" rx="0" ry="0" x="1622.734375" y="0" width="482.875" height="1647.1791076660156"></rect><g class="cluster-label" transform="translate(1797.7890625, 0)"><foreignObject width="132.765625" height="19"><div xmlns="http://www.w3.org/1999/xhtml" style="display: inline-block; white-space: nowrap;"><span class="nodeLabel">Frontend (Next.js)</span></div></foreignObject></g></g></g><g class="edgePaths"><path d="M1746.508,59L1746.508,63.167C1746.508,67.333,1746.508,75.667,1746.508,84C1746.508,92.333,1746.508,100.667,1629.5,111.2C1512.492,121.734,1278.476,134.468,1161.468,140.835L1044.46,147.202" id="L-BoardUI-Routes-0" class=" edge-thickness-normal edge-pattern-solid flowchart-link LS-BoardUI LE-Routes" style="fill:none;" marker-end="url(#rendered-32-kanban-architecture_flowchart-pointEnd)"></path><path d="M1977.945,59L1977.945,63.167C1977.945,67.333,1977.945,75.667,1977.945,84C1977.945,92.333,1977.945,100.667,1822.365,111.346C1666.785,122.026,1355.624,135.052,1200.044,141.565L1044.463,148.078" id="L-DashUI-Routes-0" class=" edge-thickness-normal edge-pattern-solid flowchart-link LS-DashUI LE-Routes" style="fill:none;" marker-end="url(#rendered-32-kanban-architecture_flowchart-pointEnd)"></path><path d="M1867.207,1588.179L1871.111,1582.429C1875.016,1576.679,1882.824,1565.179,1656.456,1553.679C1430.089,1542.179,969.544,1530.679,706.756,1459.72C443.968,1388.76,378.936,1258.341,346.42,1193.132L313.904,1127.922" id="L-SocketC-Socket-0" class=" edge-thickness-normal edge-pattern-dotted flowchart-link LS-SocketC LE-Socket" style="fill:none;stroke-width:2px;stroke-dasharray:3;" marker-end="url(#rendered-32-kanban-architecture_flowchart-pointEnd)"></path><path d="M974.668,168L974.668,172.167C974.668,176.333,974.668,184.667,974.668,192.117C974.668,199.567,974.668,206.133,974.668,209.417L974.668,212.7" id="L-Routes-Valid-0" class=" edge-thickness-normal edge-pattern-solid flowchart-link LS-Routes LE-Valid" style="fill:none;" marker-end="url(#rendered-32-kanban-architecture_flowchart-pointEnd)"></path><path d="M974.668,252L974.668,256.167C974.668,260.333,974.668,268.667,974.668,276.117C974.668,283.567,974.668,290.133,974.668,293.417L974.668,296.7" id="L-Valid-Ctrl-0" class=" edge-thickness-normal edge-pattern-solid flowchart-link LS-Valid LE-Ctrl" style="fill:none;" marker-end="url(#rendered-32-kanban-architecture_flowchart-pointEnd)"></path><path d="M895.152,323.027L770.201,329.356C645.25,335.685,395.348,348.342,270.396,358.838C145.445,369.333,145.445,377.667,145.445,386C145.445,394.333,145.445,402.667,145.445,410.117C145.445,417.567,145.445,424.133,145.445,427.417L145.445,430.7" id="L-Ctrl-Access-0" class=" edge-thickness-normal edge-pattern-solid flowchart-link LS-Ctrl LE-Access" style="fill:none;" marker-end="url(#rendered-32-kanban-architecture_flowchart-pointEnd)"></path><path d="M895.152,324.98L815.326,330.983C735.5,336.987,575.848,348.993,496.021,359.163C416.195,369.333,416.195,377.667,416.195,386C416.195,394.333,416.195,402.667,416.195,410.117C416.195,417.567,416.195,424.133,416.195,427.417L416.195,430.7" id="L-Ctrl-CardLogic-0" class=" edge-thickness-normal edge-pattern-solid flowchart-link LS-Ctrl LE-CardLogic" style="fill:none;" marker-end="url(#rendered-32-kanban-architecture_flowchart-pointEnd)"></path><path d="M895.152,329.139L853.507,334.449C811.862,339.759,728.572,350.38,686.926,359.857C645.281,369.333,645.281,377.667,645.281,386C645.281,394.333,645.281,402.667,645.281,410.117C645.281,417.567,645.281,424.133,645.281,427.417L645.281,430.7" id="L-Ctrl-SprintLogic-0" class=" edge-thickness-normal edge-pattern-solid flowchart-link LS-Ctrl LE-SprintLogic" style="fill:none;" marker-end="url(#rendered-32-kanban-architecture_flowchart-pointEnd)"></path><path d="M930.69,336L919.911,340.167C909.132,344.333,887.574,352.667,876.795,361C866.016,369.333,866.016,377.667,866.016,386C866.016,394.333,866.016,402.667,866.016,410.117C866.016,417.567,866.016,424.133,866.016,427.417L866.016,430.7" id="L-Ctrl-ColLogic-0" class=" edge-thickness-normal edge-pattern-solid flowchart-link LS-Ctrl LE-ColLogic" style="fill:none;" marker-end="url(#rendered-32-kanban-architecture_flowchart-pointEnd)"></path><path d="M1054.184,333.978L1078.094,338.481C1102.004,342.985,1149.824,351.993,1173.734,360.663C1197.645,369.333,1197.645,377.667,1197.645,386C1197.645,394.333,1197.645,402.667,1197.645,410.117C1197.645,417.567,1197.645,424.133,1197.645,427.417L1197.645,430.7" id="L-Ctrl-RelLogic-0" class=" edge-thickness-normal edge-pattern-solid flowchart-link LS-Ctrl LE-RelLogic" style="fill:none;" marker-end="url(#rendered-32-kanban-architecture_flowchart-pointEnd)"></path><path d="M1054.184,325.525L1126.237,331.437C1198.29,337.35,1342.397,349.175,1414.451,359.254C1486.504,369.333,1486.504,377.667,1486.504,386C1486.504,394.333,1486.504,402.667,1486.504,410.117C1486.504,417.567,1486.504,424.133,1486.504,427.417L1486.504,430.7" id="L-Ctrl-Metrics-0" class=" edge-thickness-normal edge-pattern-solid flowchart-link LS-Ctrl LE-Metrics" style="fill:none;" marker-end="url(#rendered-32-kanban-architecture_flowchart-pointEnd)"></path><path d="M365.448,470L353.01,474.167C340.572,478.333,315.696,486.667,303.258,495C290.82,503.333,290.82,511.667,262.646,520C234.473,528.333,178.125,536.667,149.951,547.382C121.777,558.097,121.777,571.193,121.777,577.741L121.777,584.29" id="L-CardLogic-Notify-0" class=" edge-thickness-normal edge-pattern-solid flowchart-link LS-CardLogic LE-Notify" style="fill:none;" marker-end="url(#rendered-32-kanban-architecture_flowchart-pointEnd)"></path><path d="M412.989,470L412.203,474.167C411.417,478.333,409.845,486.667,409.059,495C408.273,503.333,408.273,511.667,379.243,520C350.212,528.333,292.151,536.667,263.12,551.098C234.09,565.53,234.09,586.06,234.09,606.59C234.09,627.119,234.09,647.649,234.09,662.081C234.09,676.512,234.09,684.846,244.967,754.141C255.843,823.437,277.597,953.694,288.474,1018.823L299.35,1083.952" id="L-CardLogic-Socket-0" class=" edge-thickness-normal edge-pattern-solid flowchart-link LS-CardLogic LE-Socket" style="fill:none;" marker-end="url(#rendered-32-kanban-architecture_flowchart-pointEnd)"></path><path d="M602.966,470L592.595,474.167C582.224,478.333,561.481,486.667,551.11,495C540.738,503.333,540.738,511.667,496.297,520C451.855,528.333,362.973,536.667,318.531,551.098C274.09,565.53,274.09,586.06,274.09,606.59C274.09,627.119,274.09,647.649,274.09,662.081C274.09,676.512,274.09,684.846,278.658,754.131C283.226,823.417,292.363,953.654,296.931,1018.773L301.499,1083.892" id="L-SprintLogic-Socket-0" class=" edge-thickness-normal edge-pattern-solid flowchart-link LS-SprintLogic LE-Socket" style="fill:none;" marker-end="url(#rendered-32-kanban-architecture_flowchart-pointEnd)"></path><path d="M825.391,470L815.434,474.167C805.477,478.333,785.563,486.667,775.605,495C765.648,503.333,765.648,511.667,702.813,520C639.977,528.333,514.305,536.667,451.469,551.098C388.633,565.53,388.633,586.06,388.633,606.59C388.633,627.119,388.633,647.649,388.633,662.081C388.633,676.512,388.633,684.846,375.137,754.147C361.642,823.449,334.651,953.719,321.156,1018.854L307.66,1083.989" id="L-ColLogic-Socket-0" class=" edge-thickness-normal edge-pattern-solid flowchart-link LS-ColLogic LE-Socket" style="fill:none;" marker-end="url(#rendered-32-kanban-architecture_flowchart-pointEnd)"></path><path d="M1118.985,470L1099.705,474.167C1080.426,478.333,1041.867,486.667,1022.588,495C1003.309,503.333,1003.309,511.667,920.924,520C838.539,528.333,673.77,536.667,591.385,551.098C509,565.53,509,586.06,509,606.59C509,627.119,509,647.649,509,662.081C509,676.512,509,684.846,476.484,754.222C443.968,823.598,378.936,954.017,346.42,1019.227L313.904,1084.436" id="L-RelLogic-Socket-0" class=" edge-thickness-normal edge-pattern-solid flowchart-link LS-RelLogic LE-Socket" style="fill:none;" marker-end="url(#rendered-32-kanban-architecture_flowchart-pointEnd)"></path><path d="M424.778,470L426.881,474.167C428.984,478.333,433.191,486.667,435.295,495C437.398,503.333,437.398,511.667,550.999,520C664.6,528.333,891.802,536.667,963.603,548.113C1035.403,559.56,951.803,574.12,910.003,581.4L868.203,588.68" id="L-CardLogic-Att-0" class=" edge-thickness-normal edge-pattern-solid flowchart-link LS-CardLogic LE-Att" style="fill:none;" marker-end="url(#rendered-32-kanban-architecture_flowchart-pointEnd)"></path><path d="M145.445,470L145.445,474.167C145.445,478.333,145.445,486.667,145.445,495C145.445,503.333,145.445,511.667,259.046,520C372.647,528.333,599.849,536.667,760.095,548.961C920.342,561.256,1013.632,577.512,1060.278,585.64L1106.923,593.768" id="L-Access-PG-0" class=" edge-thickness-normal edge-pattern-solid flowchart-link LS-Access LE-PG" style="fill:none;" marker-end="url(#rendered-32-kanban-architecture_flowchart-pointEnd)"></path><path d="M458.51,470L468.882,474.167C479.253,478.333,499.996,486.667,510.367,495C520.738,503.333,520.738,511.667,623.783,520C726.827,528.333,932.915,536.667,1038.285,544.406C1143.655,552.146,1148.307,559.291,1150.632,562.864L1152.958,566.437" id="L-CardLogic-PG-0" class=" edge-thickness-normal edge-pattern-solid flowchart-link LS-CardLogic LE-PG" style="fill:none;" marker-end="url(#rendered-32-kanban-architecture_flowchart-pointEnd)"></path><path d="M685.906,470L695.863,474.167C705.82,478.333,725.734,486.667,735.691,495C745.648,503.333,745.648,511.667,831.269,520C916.889,528.333,1088.13,536.667,1169.074,545.004C1250.019,553.341,1240.666,561.682,1235.99,565.852L1231.313,570.023" id="L-SprintLogic-PG-0" class=" edge-thickness-normal edge-pattern-solid flowchart-link LS-SprintLogic LE-PG" style="fill:none;" marker-end="url(#rendered-32-kanban-architecture_flowchart-pointEnd)"></path><path d="M913.491,470L925.128,474.167C936.764,478.333,960.036,486.667,971.672,495C983.309,503.333,983.309,511.667,1042.912,520C1102.516,528.333,1221.723,536.667,1266.764,548.49C1311.805,560.313,1282.68,575.626,1268.117,583.282L1253.554,590.939" id="L-ColLogic-PG-0" class=" edge-thickness-normal edge-pattern-solid flowchart-link LS-ColLogic LE-PG" style="fill:none;" marker-end="url(#rendered-32-kanban-architecture_flowchart-pointEnd)"></path><path d="M1265.931,470L1282.668,474.167C1299.404,478.333,1332.878,486.667,1349.615,495C1366.352,503.333,1366.352,511.667,1366.352,520C1366.352,528.333,1366.352,536.667,1347.609,547.045C1328.866,557.423,1291.38,569.845,1272.637,576.057L1253.894,582.268" id="L-RelLogic-PG-0" class=" edge-thickness-normal edge-pattern-solid flowchart-link LS-RelLogic LE-PG" style="fill:none;" marker-end="url(#rendered-32-kanban-architecture_flowchart-pointEnd)"></path><path d="M1486.504,470L1486.504,474.167C1486.504,478.333,1486.504,486.667,1486.504,495C1486.504,503.333,1486.504,511.667,1486.504,520C1486.504,528.333,1486.504,536.667,1447.763,548.631C1409.022,560.595,1331.541,576.19,1292.8,583.987L1254.059,591.785" id="L-Metrics-PG-0" class=" edge-thickness-normal edge-pattern-solid flowchart-link LS-Metrics LE-PG" style="fill:none;" marker-end="url(#rendered-32-kanban-architecture_flowchart-pointEnd)"></path><path d="M121.777,623.59L121.777,631.021C121.777,638.453,121.777,653.316,121.777,664.914C121.777,676.512,121.777,684.846,150.393,754.204C179.008,823.561,236.239,953.944,264.855,1019.135L293.47,1084.326" id="L-Notify-Socket-0" class=" edge-thickness-normal edge-pattern-solid flowchart-link LS-Notify LE-Socket" style="fill:none;" marker-end="url(#rendered-32-kanban-architecture_flowchart-pointEnd)"></path><path d="M294.112,1123.179L259.364,1189.179C224.615,1255.179,155.118,1387.179,409.549,1458.929C663.979,1530.679,1242.337,1542.179,1534.924,1552.948C1827.511,1563.718,1834.328,1573.756,1837.736,1578.775L1841.144,1583.794" id="L-Socket-SocketC-0" class=" edge-thickness-normal edge-pattern-dotted flowchart-link LS-Socket LE-SocketC" style="fill:none;stroke-width:2px;stroke-dasharray:3;" marker-end="url(#rendered-32-kanban-architecture_flowchart-pointEnd)"></path><path d="M1180.504,643.179L1180.504,647.346C1180.504,651.512,1180.504,659.846,1180.504,668.179C1180.504,676.512,1180.504,684.846,1180.504,693.179C1180.504,701.512,1180.504,709.846,1180.504,714.012L1180.504,718.179" id="L-PG-Tables-0" class=" edge-thickness-normal edge-pattern-solid flowchart-link LS-PG LE-Tables" style="fill:none;"></path></g><g class="edgeLabels"><g class="edgeLabel"><g class="label" transform="translate(0, 0)"><foreignObject width="0" height="0"><div xmlns="http://www.w3.org/1999/xhtml" style="display: inline-block; white-space: nowrap;"><span class="edgeLabel"></span></div></foreignObject></g></g><g class="edgeLabel"><g class="label" transform="translate(0, 0)"><foreignObject width="0" height="0"><div xmlns="http://www.w3.org/1999/xhtml" style="display: inline-block; white-space: nowrap;"><span class="edgeLabel"></span></div></foreignObject></g></g><g class="edgeLabel" transform="translate(1890.6328125, 1553.6791076660156)"><g class="label" transform="translate(-33.4765625, -9.5)"><foreignObject width="66.953125" height="19"><div xmlns="http://www.w3.org/1999/xhtml" style="display: inline-block; white-space: nowrap;"><span class="edgeLabel">subscribe</span></div></foreignObject></g></g><g class="edgeLabel"><g class="label" transform="translate(0, 0)"><foreignObject width="0" height="0"><div xmlns="http://www.w3.org/1999/xhtml" style="display: inline-block; white-space: nowrap;"><span class="edgeLabel"></span></div></foreignObject></g></g><g class="edgeLabel"><g class="label" transform="translate(0, 0)"><foreignObject width="0" height="0"><div xmlns="http://www.w3.org/1999/xhtml" style="display: inline-block; white-space: nowrap;"><span class="edgeLabel"></span></div></foreignObject></g></g><g class="edgeLabel"><g class="label" transform="translate(0, 0)"><foreignObject width="0" height="0"><div xmlns="http://www.w3.org/1999/xhtml" style="display: inline-block; white-space: nowrap;"><span class="edgeLabel"></span></div></foreignObject></g></g><g class="edgeLabel"><g class="label" transform="translate(0, 0)"><foreignObject width="0" height="0"><div xmlns="http://www.w3.org/1999/xhtml" style="display: inline-block; white-space: nowrap;"><span class="edgeLabel"></span></div></foreignObject></g></g><g class="edgeLabel"><g class="label" transform="translate(0, 0)"><foreignObject width="0" height="0"><div xmlns="http://www.w3.org/1999/xhtml" style="display: inline-block; white-space: nowrap;"><span class="edgeLabel"></span></div></foreignObject></g></g><g class="edgeLabel"><g class="label" transform="translate(0, 0)"><foreignObject width="0" height="0"><div xmlns="http://www.w3.org/1999/xhtml" style="display: inline-block; white-space: nowrap;"><span class="edgeLabel"></span></div></foreignObject></g></g><g class="edgeLabel"><g class="label" transform="translate(0, 0)"><foreignObject width="0" height="0"><div xmlns="http://www.w3.org/1999/xhtml" style="display: inline-block; white-space: nowrap;"><span class="edgeLabel"></span></div></foreignObject></g></g><g class="edgeLabel"><g class="label" transform="translate(0, 0)"><foreignObject width="0" height="0"><div xmlns="http://www.w3.org/1999/xhtml" style="display: inline-block; white-space: nowrap;"><span class="edgeLabel"></span></div></foreignObject></g></g><g class="edgeLabel"><g class="label" transform="translate(0, 0)"><foreignObject width="0" height="0"><div xmlns="http://www.w3.org/1999/xhtml" style="display: inline-block; white-space: nowrap;"><span class="edgeLabel"></span></div></foreignObject></g></g><g class="edgeLabel"><g class="label" transform="translate(0, 0)"><foreignObject width="0" height="0"><div xmlns="http://www.w3.org/1999/xhtml" style="display: inline-block; white-space: nowrap;"><span class="edgeLabel"></span></div></foreignObject></g></g><g class="edgeLabel"><g class="label" transform="translate(0, 0)"><foreignObject width="0" height="0"><div xmlns="http://www.w3.org/1999/xhtml" style="display: inline-block; white-space: nowrap;"><span class="edgeLabel"></span></div></foreignObject></g></g><g class="edgeLabel"><g class="label" transform="translate(0, 0)"><foreignObject width="0" height="0"><div xmlns="http://www.w3.org/1999/xhtml" style="display: inline-block; white-space: nowrap;"><span class="edgeLabel"></span></div></foreignObject></g></g><g class="edgeLabel"><g class="label" transform="translate(0, 0)"><foreignObject width="0" height="0"><div xmlns="http://www.w3.org/1999/xhtml" style="display: inline-block; white-space: nowrap;"><span class="edgeLabel"></span></div></foreignObject></g></g><g class="edgeLabel"><g class="label" transform="translate(0, 0)"><foreignObject width="0" height="0"><div xmlns="http://www.w3.org/1999/xhtml" style="display: inline-block; white-space: nowrap;"><span class="edgeLabel"></span></div></foreignObject></g></g><g class="edgeLabel"><g class="label" transform="translate(0, 0)"><foreignObject width="0" height="0"><div xmlns="http://www.w3.org/1999/xhtml" style="display: inline-block; white-space: nowrap;"><span class="edgeLabel"></span></div></foreignObject></g></g><g class="edgeLabel"><g class="label" transform="translate(0, 0)"><foreignObject width="0" height="0"><div xmlns="http://www.w3.org/1999/xhtml" style="display: inline-block; white-space: nowrap;"><span class="edgeLabel"></span></div></foreignObject></g></g><g class="edgeLabel"><g class="label" transform="translate(0, 0)"><foreignObject width="0" height="0"><div xmlns="http://www.w3.org/1999/xhtml" style="display: inline-block; white-space: nowrap;"><span class="edgeLabel"></span></div></foreignObject></g></g><g class="edgeLabel"><g class="label" transform="translate(0, 0)"><foreignObject width="0" height="0"><div xmlns="http://www.w3.org/1999/xhtml" style="display: inline-block; white-space: nowrap;"><span class="edgeLabel"></span></div></foreignObject></g></g><g class="edgeLabel"><g class="label" transform="translate(0, 0)"><foreignObject width="0" height="0"><div xmlns="http://www.w3.org/1999/xhtml" style="display: inline-block; white-space: nowrap;"><span class="edgeLabel"></span></div></foreignObject></g></g><g class="edgeLabel"><g class="label" transform="translate(0, 0)"><foreignObject width="0" height="0"><div xmlns="http://www.w3.org/1999/xhtml" style="display: inline-block; white-space: nowrap;"><span class="edgeLabel"></span></div></foreignObject></g></g><g class="edgeLabel"><g class="label" transform="translate(0, 0)"><foreignObject width="0" height="0"><div xmlns="http://www.w3.org/1999/xhtml" style="display: inline-block; white-space: nowrap;"><span class="edgeLabel"></span></div></foreignObject></g></g><g class="edgeLabel" transform="translate(1820.6953125, 1553.6791076660156)"><g class="label" transform="translate(-16.4609375, -9.5)"><foreignObject width="32.921875" height="19"><div xmlns="http://www.w3.org/1999/xhtml" style="display: inline-block; white-space: nowrap;"><span class="edgeLabel">emit</span></div></foreignObject></g></g><g class="edgeLabel"><g class="label" transform="translate(0, 0)"><foreignObject width="0" height="0"><div xmlns="http://www.w3.org/1999/xhtml" style="display: inline-block; white-space: nowrap;"><span class="edgeLabel"></span></div></foreignObject></g></g></g><g class="nodes"><g class="root" transform="translate(1047.37109375, 710.1791076660156)"><g class="clusters"><g class="cluster default flowchart-label" id="Tables"><rect style="fill:#eceff1;" rx="0" ry="0" x="8" y="8" width="251.265625" height="776"></rect><g class="cluster-label" transform="translate(82.8828125, 8)"><foreignObject width="101.5" height="19"><div xmlns="http://www.w3.org/1999/xhtml" style="display: inline-block; white-space: nowrap;"><span class="nodeLabel">Kanban Tables</span></div></foreignObject></g></g></g><g class="edgePaths"></g><g class="edgeLabels"></g><g class="nodes"><g class="node default default flowchart-label" id="flowchart-T1-821" data-node="true" data-id="T1" transform="translate(133.6328125, 60)"><rect class="basic label-container" style="" rx="0" ry="0" x="-66.8671875" y="-17" width="133.734375" height="34"></rect><g class="label" style="" transform="translate(-59.3671875, -9.5)"><rect></rect><foreignObject width="118.734375" height="19"><div xmlns="http://www.w3.org/1999/xhtml" style="display: inline-block; white-space: nowrap;"><span class="nodeLabel">kanban_projects</span></div></foreignObject></g></g><g class="node default default flowchart-label" id="flowchart-T2-822" data-node="true" data-id="T2" transform="translate(133.6328125, 144)"><rect class="basic label-container" style="" rx="0" ry="0" x="-100.6328125" y="-17" width="201.265625" height="34"></rect><g class="label" style="" transform="translate(-93.1328125, -9.5)"><rect></rect><foreignObject width="186.265625" height="19"><div xmlns="http://www.w3.org/1999/xhtml" style="display: inline-block; white-space: nowrap;"><span class="nodeLabel">kanban_project_members</span></div></foreignObject></g></g><g class="node default default flowchart-label" id="flowchart-T3-823" data-node="true" data-id="T3" transform="translate(133.6328125, 228)"><rect class="basic label-container" style="" rx="0" ry="0" x="-66.5703125" y="-17" width="133.140625" height="34"></rect><g class="label" style="" transform="translate(-59.0703125, -9.5)"><rect></rect><foreignObject width="118.140625" height="19"><div xmlns="http://www.w3.org/1999/xhtml" style="display: inline-block; white-space: nowrap;"><span class="nodeLabel">kanban_columns</span></div></foreignObject></g></g><g class="node default default flowchart-label" id="flowchart-T4-824" data-node="true" data-id="T4" transform="translate(133.6328125, 312)"><rect class="basic label-container" style="" rx="0" ry="0" x="-56.3046875" y="-17" width="112.609375" height="34"></rect><g class="label" style="" transform="translate(-48.8046875, -9.5)"><rect></rect><foreignObject width="97.609375" height="19"><div xmlns="http://www.w3.org/1999/xhtml" style="display: inline-block; white-space: nowrap;"><span class="nodeLabel">kanban_cards</span></div></foreignObject></g></g><g class="node default default flowchart-label" id="flowchart-T5-825" data-node="true" data-id="T5" transform="translate(133.6328125, 396)"><rect class="basic label-container" style="" rx="0" ry="0" x="-61.203125" y="-17" width="122.40625" height="34"></rect><g class="label" style="" transform="translate(-53.703125, -9.5)"><rect></rect><foreignObject width="107.40625" height="19"><div xmlns="http://www.w3.org/1999/xhtml" style="display: inline-block; white-space: nowrap;"><span class="nodeLabel">kanban_sprints</span></div></foreignObject></g></g><g class="node default default flowchart-label" id="flowchart-T6-826" data-node="true" data-id="T6" transform="translate(133.6328125, 480)"><rect class="basic label-container" style="" rx="0" ry="0" x="-58.3203125" y="-17" width="116.640625" height="34"></rect><g class="label" style="" transform="translate(-50.8203125, -9.5)"><rect></rect><foreignObject width="101.640625" height="19"><div xmlns="http://www.w3.org/1999/xhtml" style="display: inline-block; white-space: nowrap;"><span class="nodeLabel">kanban_labels</span></div></foreignObject></g></g><g class="node default default flowchart-label" id="flowchart-T7-827" data-node="true" data-id="T7" transform="translate(133.6328125, 564)"><rect class="basic label-container" style="" rx="0" ry="0" x="-90.578125" y="-17" width="181.15625" height="34"></rect><g class="label" style="" transform="translate(-83.078125, -9.5)"><rect></rect><foreignObject width="166.15625" height="19"><div xmlns="http://www.w3.org/1999/xhtml" style="display: inline-block; white-space: nowrap;"><span class="nodeLabel">kanban_card_assignees</span></div></foreignObject></g></g><g class="node default default flowchart-label" id="flowchart-T8-828" data-node="true" data-id="T8" transform="translate(133.6328125, 648)"><rect class="basic label-container" style="" rx="0" ry="0" x="-78.2421875" y="-17" width="156.484375" height="34"></rect><g class="label" style="" transform="translate(-70.7421875, -9.5)"><rect></rect><foreignObject width="141.484375" height="19"><div xmlns="http://www.w3.org/1999/xhtml" style="display: inline-block; white-space: nowrap;"><span class="nodeLabel">kanban_card_labels</span></div></foreignObject></g></g><g class="node default default flowchart-label" id="flowchart-T9-829" data-node="true" data-id="T9" transform="translate(133.6328125, 732)"><rect class="basic label-container" style="" rx="0" ry="0" x="-88.65625" y="-17" width="177.3125" height="34"></rect><g class="label" style="" transform="translate(-81.15625, -9.5)"><rect></rect><foreignObject width="162.3125" height="19"><div xmlns="http://www.w3.org/1999/xhtml" style="display: inline-block; white-space: nowrap;"><span class="nodeLabel">kanban_card_relations</span></div></foreignObject></g></g></g></g><g class="node default default flowchart-label" id="flowchart-PG-819" label-offset-y="13.059701492537313" data-node="true" data-id="PG" transform="translate(1180.50390625, 606.5895538330078)"><path style="" d="M 0,13.059701492537313 a 68.359375,13.059701492537313 0,0,0 136.71875 0 a 68.359375,13.059701492537313 0,0,0 -136.71875 0 l 0,47.059701492537314 a 68.359375,13.059701492537313 0,0,0 136.71875 0 l 0,-47.059701492537314" transform="translate(-68.359375,-36.58955223880597)"></path><g class="label" style="" transform="translate(-60.859375, -9.5)"><rect></rect><foreignObject width="121.71875" height="19"><div xmlns="http://www.w3.org/1999/xhtml" style="display: inline-block; white-space: nowrap;"><span class="nodeLabel">PostgreSQL + RLS</span></div></foreignObject></g></g><g class="node default default flowchart-label" id="flowchart-Att-820" data-node="true" data-id="Att" transform="translate(765.37109375, 606.5895538330078)"><rect class="basic label-container" style="" rx="0" ry="0" x="-129.0703125" y="-17" width="258.140625" height="34"></rect><g class="label" style="" transform="translate(-121.5703125, -9.5)"><rect></rect><foreignObject width="243.140625" height="19"><div xmlns="http://www.w3.org/1999/xhtml" style="display: inline-block; white-space: nowrap;"><span class="nodeLabel">Attachment Service (card images)</span></div></foreignObject></g></g><g class="node default default flowchart-label" id="flowchart-Socket-817" data-node="true" data-id="Socket" transform="translate(303.0625, 1106.1791076660156)"><rect class="basic label-container" style="" rx="0" ry="0" x="-89.6015625" y="-17" width="179.203125" height="34"></rect><g class="label" style="" transform="translate(-82.1015625, -9.5)"><rect></rect><foreignObject width="164.203125" height="19"><div xmlns="http://www.w3.org/1999/xhtml" style="display: inline-block; white-space: nowrap;"><span class="nodeLabel">Socket.IO room board_</span></div></foreignObject></g></g><g class="node default default flowchart-label" id="flowchart-Notify-818" data-node="true" data-id="Notify" transform="translate(121.77734375, 606.5895538330078)"><rect class="basic label-container" style="" rx="0" ry="0" x="-77.3125" y="-17" width="154.625" height="34"></rect><g class="label" style="" transform="translate(-69.8125, -9.5)"><rect></rect><foreignObject width="139.625" height="19"><div xmlns="http://www.w3.org/1999/xhtml" style="display: inline-block; white-space: nowrap;"><span class="nodeLabel">notification.service</span></div></foreignObject></g></g><g class="node default default flowchart-label" id="flowchart-Access-811" data-node="true" data-id="Access" transform="translate(145.4453125, 453)"><rect class="basic label-container" style="" rx="0" ry="0" x="-110.4453125" y="-17" width="220.890625" height="34"></rect><g class="label" style="" transform="translate(-102.9453125, -9.5)"><rect></rect><foreignObject width="205.890625" height="19"><div xmlns="http://www.w3.org/1999/xhtml" style="display: inline-block; white-space: nowrap;"><span class="nodeLabel">resolveAccess / assertAccess</span></div></foreignObject></g></g><g class="node default default flowchart-label" id="flowchart-CardLogic-812" data-node="true" data-id="CardLogic" transform="translate(416.1953125, 453)"><rect class="basic label-container" style="" rx="0" ry="0" x="-110.3046875" y="-17" width="220.609375" height="34"></rect><g class="label" style="" transform="translate(-102.8046875, -9.5)"><rect></rect><foreignObject width="205.609375" height="19"><div xmlns="http://www.w3.org/1999/xhtml" style="display: inline-block; white-space: nowrap;"><span class="nodeLabel">Cards + card keys (card_seq)</span></div></foreignObject></g></g><g class="node default default flowchart-label" id="flowchart-SprintLogic-813" data-node="true" data-id="SprintLogic" transform="translate(645.28125, 453)"><rect class="basic label-container" style="" rx="0" ry="0" x="-68.78125" y="-17" width="137.5625" height="34"></rect><g class="label" style="" transform="translate(-61.28125, -9.5)"><rect></rect><foreignObject width="122.5625" height="19"><div xmlns="http://www.w3.org/1999/xhtml" style="display: inline-block; white-space: nowrap;"><span class="nodeLabel">Sprints + migrate</span></div></foreignObject></g></g><g class="node default default flowchart-label" id="flowchart-ColLogic-814" data-node="true" data-id="ColLogic" transform="translate(866.015625, 453)"><rect class="basic label-container" style="" rx="0" ry="0" x="-101.953125" y="-17" width="203.90625" height="34"></rect><g class="label" style="" transform="translate(-94.453125, -9.5)"><rect></rect><foreignObject width="188.90625" height="19"><div xmlns="http://www.w3.org/1999/xhtml" style="display: inline-block; white-space: nowrap;"><span class="nodeLabel">Columns (persistent Done)</span></div></foreignObject></g></g><g class="node default default flowchart-label" id="flowchart-RelLogic-815" data-node="true" data-id="RelLogic" transform="translate(1197.64453125, 453)"><rect class="basic label-container" style="" rx="0" ry="0" x="-102.6328125" y="-17" width="205.265625" height="34"></rect><g class="label" style="" transform="translate(-95.1328125, -9.5)"><rect></rect><foreignObject width="190.265625" height="19"><div xmlns="http://www.w3.org/1999/xhtml" style="display: inline-block; white-space: nowrap;"><span class="nodeLabel">Relations (both directions)</span></div></foreignObject></g></g><g class="node default default flowchart-label" id="flowchart-Metrics-816" data-node="true" data-id="Metrics" transform="translate(1486.50390625, 453)"><rect class="basic label-container" style="" rx="0" ry="0" x="-67.671875" y="-17" width="135.34375" height="34"></rect><g class="label" style="" transform="translate(-60.171875, -9.5)"><rect></rect><foreignObject width="120.34375" height="19"><div xmlns="http://www.w3.org/1999/xhtml" style="display: inline-block; white-space: nowrap;"><span class="nodeLabel">getMetrics (KPIs)</span></div></foreignObject></g></g><g class="node default default flowchart-label" id="flowchart-Routes-808" data-node="true" data-id="Routes" transform="translate(974.66796875, 151)"><rect class="basic label-container" style="" rx="0" ry="0" x="-64.5" y="-17" width="129" height="34"></rect><g class="label" style="" transform="translate(-57, -9.5)"><rect></rect><foreignObject width="114" height="19"><div xmlns="http://www.w3.org/1999/xhtml" style="display: inline-block; white-space: nowrap;"><span class="nodeLabel">kanban.route.js</span></div></foreignObject></g></g><g class="node default default flowchart-label" id="flowchart-Ctrl-809" data-node="true" data-id="Ctrl" transform="translate(974.66796875, 319)"><rect class="basic label-container" style="" rx="0" ry="0" x="-79.515625" y="-17" width="159.03125" height="34"></rect><g class="label" style="" transform="translate(-72.015625, -9.5)"><rect></rect><foreignObject width="144.03125" height="19"><div xmlns="http://www.w3.org/1999/xhtml" style="display: inline-block; white-space: nowrap;"><span class="nodeLabel">kanban.controller.js</span></div></foreignObject></g></g><g class="node default default flowchart-label" id="flowchart-Valid-810" data-node="true" data-id="Valid" transform="translate(974.66796875, 235)"><rect class="basic label-container" style="" rx="0" ry="0" x="-94.7890625" y="-17" width="189.578125" height="34"></rect><g class="label" style="" transform="translate(-87.2890625, -9.5)"><rect></rect><foreignObject width="174.578125" height="19"><div xmlns="http://www.w3.org/1999/xhtml" style="display: inline-block; white-space: nowrap;"><span class="nodeLabel">kanban.validator.js (Joi)</span></div></foreignObject></g></g><g class="node default default flowchart-label" id="flowchart-BoardUI-805" data-node="true" data-id="BoardUI" transform="translate(1746.5078125, 42)"><rect class="basic label-container" style="" rx="0" ry="0" x="-88.7734375" y="-17" width="177.546875" height="34"></rect><g class="label" style="" transform="translate(-81.2734375, -9.5)"><rect></rect><foreignObject width="162.546875" height="19"><div xmlns="http://www.w3.org/1999/xhtml" style="display: inline-block; white-space: nowrap;"><span class="nodeLabel">Board UI (drag &amp; drop)</span></div></foreignObject></g></g><g class="node default default flowchart-label" id="flowchart-DashUI-806" data-node="true" data-id="DashUI" transform="translate(1977.9453125, 42)"><rect class="basic label-container" style="" rx="0" ry="0" x="-92.6640625" y="-17" width="185.328125" height="34"></rect><g class="label" style="" transform="translate(-85.1640625, -9.5)"><rect></rect><foreignObject width="170.328125" height="19"><div xmlns="http://www.w3.org/1999/xhtml" style="display: inline-block; white-space: nowrap;"><span class="nodeLabel">KPI Analytics Dashboard</span></div></foreignObject></g></g><g class="node default default flowchart-label" id="flowchart-SocketC-807" data-node="true" data-id="SocketC" transform="translate(1855.6640625, 1605.1791076660156)"><rect class="basic label-container" style="" rx="0" ry="0" x="-64.6484375" y="-17" width="129.296875" height="34"></rect><g class="label" style="" transform="translate(-57.1484375, -9.5)"><rect></rect><foreignObject width="114.296875" height="19"><div xmlns="http://www.w3.org/1999/xhtml" style="display: inline-block; white-space: nowrap;"><span class="nodeLabel">Socket.IO client</span></div></foreignObject></g></g></g></g></g></svg>