<svg id="rendered-33-kanban-card-lifecycle" width="100%" xmlns="http://www.w3.org/2000/svg" class="statediagram" style="max-width: 1007.75px;" viewBox="0 0 1007.75 697" role="graphics-document document" aria-roledescription="stateDiagram"><style>#rendered-33-kanban-card-lifecycle{font-family:"trebuchet ms",verdana,arial,sans-serif;font-size:16px;fill:#333;}#rendered-33-kanban-card-lifecycle .error-icon{fill:#552222;}#rendered-33-kanban-card-lifecycle .error-text{fill:#552222;stroke:#552222;}#rendered-33-kanban-card-lifecycle .edge-thickness-normal{stroke-width:2px;}#rendered-33-kanban-card-lifecycle .edge-thickness-thick{stroke-width:3.5px;}#rendered-33-kanban-card-lifecycle .edge-pattern-solid{stroke-dasharray:0;}#rendered-33-kanban-card-lifecycle .edge-pattern-dashed{stroke-dasharray:3;}#rendered-33-kanban-card-lifecycle .edge-pattern-dotted{stroke-dasharray:2;}#rendered-33-kanban-card-lifecycle .marker{fill:#333333;stroke:#333333;}#rendered-33-kanban-card-lifecycle .marker.cross{stroke:#333333;}#rendered-33-kanban-card-lifecycle svg{font-family:"trebuchet ms",verdana,arial,sans-serif;font-size:16px;}#rendered-33-kanban-card-lifecycle defs #statediagram-barbEnd{fill:#333333;stroke:#333333;}#rendered-33-kanban-card-lifecycle g.stateGroup text{fill:#9370DB;stroke:none;font-size:10px;}#rendered-33-kanban-card-lifecycle g.stateGroup text{fill:#333;stroke:none;font-size:10px;}#rendered-33-kanban-card-lifecycle g.stateGroup .state-title{font-weight:bolder;fill:#131300;}#rendered-33-kanban-card-lifecycle g.stateGroup rect{fill:#ECECFF;stroke:#9370DB;}#rendered-33-kanban-card-lifecycle g.stateGroup line{stroke:#333333;stroke-width:1;}#rendered-33-kanban-card-lifecycle .transition{stroke:#333333;stroke-width:1;fill:none;}#rendered-33-kanban-card-lifecycle .stateGroup .composit{fill:white;border-bottom:1px;}#rendered-33-kanban-card-lifecycle .stateGroup .alt-composit{fill:#e0e0e0;border-bottom:1px;}#rendered-33-kanban-card-lifecycle .state-note{stroke:#aaaa33;fill:#fff5ad;}#rendered-33-kanban-card-lifecycle .state-note text{fill:black;stroke:none;font-size:10px;}#rendered-33-kanban-card-lifecycle .stateLabel .box{stroke:none;stroke-width:0;fill:#ECECFF;opacity:0.5;}#rendered-33-kanban-card-lifecycle .edgeLabel .label rect{fill:#ECECFF;opacity:0.5;}#rendered-33-kanban-card-lifecycle .edgeLabel .label text{fill:#333;}#rendered-33-kanban-card-lifecycle .label div .edgeLabel{color:#333;}#rendered-33-kanban-card-lifecycle .stateLabel text{fill:#131300;font-size:10px;font-weight:bold;}#rendered-33-kanban-card-lifecycle .node circle.state-start{fill:#333333;stroke:#333333;}#rendered-33-kanban-card-lifecycle .node .fork-join{fill:#333333;stroke:#333333;}#rendered-33-kanban-card-lifecycle .node circle.state-end{fill:#9370DB;stroke:white;stroke-width:1.5;}#rendered-33-kanban-card-lifecycle .end-state-inner{fill:white;stroke-width:1.5;}#rendered-33-kanban-card-lifecycle .node rect{fill:#ECECFF;stroke:#9370DB;stroke-width:1px;}#rendered-33-kanban-card-lifecycle .node polygon{fill:#ECECFF;stroke:#9370DB;stroke-width:1px;}#rendered-33-kanban-card-lifecycle #statediagram-barbEnd{fill:#333333;}#rendered-33-kanban-card-lifecycle .statediagram-cluster rect{fill:#ECECFF;stroke:#9370DB;stroke-width:1px;}#rendered-33-kanban-card-lifecycle .cluster-label,#rendered-33-kanban-card-lifecycle .nodeLabel{color:#131300;}#rendered-33-kanban-card-lifecycle .statediagram-cluster rect.outer{rx:5px;ry:5px;}#rendered-33-kanban-card-lifecycle .statediagram-state .divider{stroke:#9370DB;}#rendered-33-kanban-card-lifecycle .statediagram-state .title-state{rx:5px;ry:5px;}#rendered-33-kanban-card-lifecycle .statediagram-cluster.statediagram-cluster .inner{fill:white;}#rendered-33-kanban-card-lifecycle .statediagram-cluster.statediagram-cluster-alt .inner{fill:#f0f0f0;}#rendered-33-kanban-card-lifecycle .statediagram-cluster .inner{rx:0;ry:0;}#rendered-33-kanban-card-lifecycle .statediagram-state rect.basic{rx:5px;ry:5px;}#rendered-33-kanban-card-lifecycle .statediagram-state rect.divider{stroke-dasharray:10,10;fill:#f0f0f0;}#rendered-33-kanban-card-lifecycle .note-edge{stroke-dasharray:5;}#rendered-33-kanban-card-lifecycle .statediagram-note rect{fill:#fff5ad;stroke:#aaaa33;stroke-width:1px;rx:0;ry:0;}#rendered-33-kanban-card-lifecycle .statediagram-note rect{fill:#fff5ad;stroke:#aaaa33;stroke-width:1px;rx:0;ry:0;}#rendered-33-kanban-card-lifecycle .statediagram-note text{fill:black;}#rendered-33-kanban-card-lifecycle .statediagram-note .nodeLabel{color:black;}#rendered-33-kanban-card-lifecycle .statediagram .edgeLabel{color:red;}#rendered-33-kanban-card-lifecycle #dependencyStart,#rendered-33-kanban-card-lifecycle #dependencyEnd{fill:#333333;stroke:#333333;stroke-width:1;}#rendered-33-kanban-card-lifecycle .statediagramTitleText{text-anchor:middle;font-size:18px;fill:#333;}#rendered-33-kanban-card-lifecycle :root{--mermaid-font-family:"trebuchet ms",verdana,arial,sans-serif;}</style><g><defs><marker id="rendered-33-kanban-card-lifecycle_statediagram-barbEnd" refX="19" refY="7" markerWidth="20" markerHeight="14" markerUnits="strokeWidth" orient="auto"><path d="M 19,7 L9,13 L14,7 L9,1 Z"></path></marker></defs><g class="root"><g class="clusters"><g class="note-cluster" id="Created----parent"><rect x="339.52734375" y="91" width="469.609375" height="225" fill="none"></rect></g></g><g class="edgePaths"><path d="M547.023,22L547.023,27.75C547.023,33.5,547.023,45,547.023,56.5C547.023,68,547.023,79.5,547.023,89.417C547.023,99.333,547.023,107.667,547.023,111.833L547.023,116" id="edge8" class=" edge-thickness-normal transition" style="fill:none" marker-end="url(#rendered-33-kanban-card-lifecycle_statediagram-barbEnd)"></path><path d="M516.643,150L506.367,155.75C496.091,161.5,475.54,173,440.187,188.121C404.835,203.243,354.681,221.986,329.604,231.357L304.527,240.729" id="edge9" class=" edge-thickness-normal transition" style="fill:none" marker-end="url(#rendered-33-kanban-card-lifecycle_statediagram-barbEnd)"></path><path d="M266.34,272L266.34,279.333C266.34,286.667,266.34,301.333,266.34,314.417C266.34,327.5,266.34,339,295.819,351.637C325.298,364.275,384.257,378.049,413.736,384.937L443.215,391.824" id="edge10" class=" edge-thickness-normal transition" style="fill:none" marker-end="url(#rendered-33-kanban-card-lifecycle_statediagram-barbEnd)"></path><path d="M582.977,141.944L611.489,149.036C640.001,156.129,697.026,170.315,725.538,189.157C754.051,208,754.051,231.5,754.051,253.417C754.051,275.333,754.051,295.667,754.051,311.583C754.051,327.5,754.051,339,716.763,351.935C679.475,364.869,604.9,379.239,567.612,386.423L530.324,393.608" id="edge11" class=" edge-thickness-normal transition" style="fill:none" marker-end="url(#rendered-33-kanban-card-lifecycle_statediagram-barbEnd)"></path><path d="M443.215,408.93L396.532,416.359C349.849,423.787,256.483,438.643,215.615,451.822C174.747,465,186.377,476.5,192.192,482.25L198.007,488" id="edge12" class=" edge-thickness-normal transition" style="fill:none" marker-end="url(#rendered-33-kanban-card-lifecycle_statediagram-barbEnd)"></path><path d="M246.262,491.998L261.59,485.582C276.919,479.165,307.577,466.333,340.402,453.85C373.228,441.367,408.221,429.234,425.718,423.168L443.215,417.101" id="edge13" class=" edge-thickness-normal transition" style="fill:none" marker-end="url(#rendered-33-kanban-card-lifecycle_statediagram-barbEnd)"></path><path d="M470.426,419L464.898,424.75C459.37,430.5,448.314,442,444.353,453.5C440.392,465,443.526,476.5,445.093,482.25L446.66,488" id="edge14" class=" edge-thickness-normal transition" style="fill:none" marker-end="url(#rendered-33-kanban-card-lifecycle_statediagram-barbEnd)"></path><path d="M479.347,488L488.836,482.25C498.325,476.5,517.303,465,521.264,453.5C525.225,442,514.169,430.5,508.641,424.75L503.113,419" id="edge15" class=" edge-thickness-normal transition" style="fill:none" marker-end="url(#rendered-33-kanban-card-lifecycle_statediagram-barbEnd)"></path><path d="M530.324,412.695L558.019,419.496C585.714,426.297,641.103,439.898,677.956,452.567C714.81,465.235,733.128,476.969,742.286,482.837L751.445,488.704" id="edge16" class=" edge-thickness-normal transition" style="fill:none" marker-end="url(#rendered-33-kanban-card-lifecycle_statediagram-barbEnd)"></path><path d="M802.32,496.344L823.305,489.203C844.289,482.063,886.258,467.781,840.925,452.904C795.592,438.027,662.958,422.554,596.641,414.818L530.324,407.081" id="edge17" class=" edge-thickness-normal transition" style="fill:none" marker-end="url(#rendered-33-kanban-card-lifecycle_statediagram-barbEnd)"></path><path d="M776.883,522L776.883,527.75C776.883,533.5,776.883,545,776.883,556.5C776.883,568,776.883,579.5,776.883,585.25L776.883,591" id="edge18" class=" edge-thickness-normal transition" style="fill:none" marker-end="url(#rendered-33-kanban-card-lifecycle_statediagram-barbEnd)"></path><path d="M776.883,625L776.883,629.167C776.883,633.333,776.883,641.667,776.883,650C776.883,658.333,776.883,666.667,776.883,670.833L776.883,675" id="edge19" class=" edge-thickness-normal transition" style="fill:none" marker-end="url(#rendered-33-kanban-card-lifecycle_statediagram-barbEnd)"></path><path d="M554.756,150L557.372,155.75C559.987,161.5,565.218,173,567.834,184.5C570.449,196,570.449,207.5,570.449,213.25L570.449,219" class=" edge-thickness-normal transition note-edge" style="fill:none"></path></g><g class="edgeLabels"><g class="edgeLabel" transform="translate(547.0234375, 56.5)"><g class="label" transform="translate(-177.21875, -9.5)"><rect rx="0" ry="0" width="354.4375" height="19"></rect><foreignObject width="354.4375" height="19"><div xmlns="http://www.w3.org/1999/xhtml" style="display: inline-block; white-space: nowrap;"><span class="edgeLabel">POST /cards (auto card-key MGT-N, active sprint)</span></div></foreignObject></g></g><g class="edgeLabel" transform="translate(454.98828125, 184.5)"><g class="label" transform="translate(-95.4609375, -9.5)"><rect rx="0" ry="0" width="190.921875" height="19"></rect><foreignObject width="190.921875" height="19"><div xmlns="http://www.w3.org/1999/xhtml" style="display: inline-block; white-space: nowrap;"><span class="edgeLabel">assign / tag users -&gt; notify</span></div></foreignObject></g></g><g class="edgeLabel" transform="translate(266.33984375, 350.5)"><g class="label" transform="translate(-98.3671875, -9.5)"><rect rx="0" ry="0" width="196.734375" height="19"></rect><foreignObject width="196.734375" height="19"><div xmlns="http://www.w3.org/1999/xhtml" style="display: inline-block; white-space: nowrap;"><span class="edgeLabel">move to In Progress column</span></div></foreignObject></g></g><g class="edgeLabel" transform="translate(754.05078125, 255)"><g class="label" transform="translate(-19.21875, -9.5)"><rect rx="0" ry="0" width="38.4375" height="19"></rect><foreignObject width="38.4375" height="19"><div xmlns="http://www.w3.org/1999/xhtml" style="display: inline-block; white-space: nowrap;"><span class="edgeLabel">move</span></div></foreignObject></g></g><g class="edgeLabel" transform="translate(163.1171875, 453.5)"><g class="label" transform="translate(-155.1171875, -9.5)"><rect rx="0" ry="0" width="310.234375" height="19"></rect><foreignObject width="310.234375" height="19"><div xmlns="http://www.w3.org/1999/xhtml" style="display: inline-block; white-space: nowrap;"><span class="edgeLabel">add relation (parent/child, blocks, relates)</span></div></foreignObject></g></g><g class="edgeLabel"><g class="label" transform="translate(0, 0)"><rect rx="0" ry="0" width="0" height="0"></rect><foreignObject width="0" height="0"><div xmlns="http://www.w3.org/1999/xhtml" style="display: inline-block; white-space: nowrap;"><span class="edgeLabel"></span></div></foreignObject></g></g><g class="edgeLabel" transform="translate(437.2578125, 453.5)"><g class="label" transform="translate(-79.0234375, -9.5)"><rect rx="0" ry="0" width="158.046875" height="19"></rect><foreignObject width="158.046875" height="19"><div xmlns="http://www.w3.org/1999/xhtml" style="display: inline-block; white-space: nowrap;"><span class="edgeLabel">migrate to next sprint</span></div></foreignObject></g></g><g class="edgeLabel"><g class="label" transform="translate(0, 0)"><rect rx="0" ry="0" width="0" height="0"></rect><foreignObject width="0" height="0"><div xmlns="http://www.w3.org/1999/xhtml" style="display: inline-block; white-space: nowrap;"><span class="edgeLabel"></span></div></foreignObject></g></g><g class="edgeLabel" transform="translate(696.4921875, 453.5)"><g class="label" transform="translate(-140.2109375, -9.5)"><rect rx="0" ry="0" width="280.421875" height="19"></rect><foreignObject width="280.421875" height="19"><div xmlns="http://www.w3.org/1999/xhtml" style="display: inline-block; white-space: nowrap;"><span class="edgeLabel">move to Done column (persistent, last)</span></div></foreignObject></g></g><g class="edgeLabel" transform="translate(928.2265625, 453.5)"><g class="label" transform="translate(-71.5234375, -9.5)"><rect rx="0" ry="0" width="143.046875" height="19"></rect><foreignObject width="143.046875" height="19"><div xmlns="http://www.w3.org/1999/xhtml" style="display: inline-block; white-space: nowrap;"><span class="edgeLabel">reopen (move back)</span></div></foreignObject></g></g><g class="edgeLabel" transform="translate(776.8828125, 556.5)"><g class="label" transform="translate(-118.1796875, -9.5)"><rect rx="0" ry="0" width="236.359375" height="19"></rect><foreignObject width="236.359375" height="19"><div xmlns="http://www.w3.org/1999/xhtml" style="display: inline-block; white-space: nowrap;"><span class="edgeLabel">delete (soft, key never recycled)</span></div></foreignObject></g></g><g class="edgeLabel"><g class="label" transform="translate(0, 0)"><rect rx="0" ry="0" width="0" height="0"></rect><foreignObject width="0" height="0"><div xmlns="http://www.w3.org/1999/xhtml" style="display: inline-block; white-space: nowrap;"><span class="edgeLabel"></span></div></foreignObject></g></g><g class="edgeLabel"><g class="label" transform="translate(0, 0)"><rect rx="0" ry="0" width="0" height="0"></rect><foreignObject width="0" height="0"><div xmlns="http://www.w3.org/1999/xhtml" style="display: inline-block; white-space: nowrap;"><span class="edgeLabel"></span></div></foreignObject></g></g></g><g class="nodes"><g class="node default" id="state-root_start-8" data-node="true" data-id="root_start" transform="translate(547.0234375, 15)"><circle class="state-start" r="7" width="14" height="14"></circle></g><g class="node  statediagram-state undefined" id="state-Created-20" data-node="true" data-id="Created" transform="translate(547.0234375, 133)"><rect class="basic label-container" style="" x="-35.953125" y="-17" width="71.90625" height="34"></rect><g class="label" style="" transform="translate(-28.453125, -9.5)"><rect></rect><foreignObject width="56.90625" height="19"><div xmlns="http://www.w3.org/1999/xhtml" style="display: inline-block; white-space: nowrap;"><span class="nodeLabel">Created</span></div></foreignObject></g></g><g class="node  statediagram-state undefined" id="state-Assigned-10" data-node="true" data-id="Assigned" transform="translate(266.33984375, 255)"><rect class="basic label-container" style="" x="-38.1875" y="-17" width="76.375" height="34"></rect><g class="label" style="" transform="translate(-30.6875, -9.5)"><rect></rect><foreignObject width="61.375" height="19"><div xmlns="http://www.w3.org/1999/xhtml" style="display: inline-block; white-space: nowrap;"><span class="nodeLabel">Assigned</span></div></foreignObject></g></g><g class="node  statediagram-state undefined" id="state-InProgress-17" data-node="true" data-id="InProgress" transform="translate(486.76953125, 402)"><rect class="basic label-container" style="" x="-43.5546875" y="-17" width="87.109375" height="34"></rect><g class="label" style="" transform="translate(-36.0546875, -9.5)"><rect></rect><foreignObject width="72.109375" height="19"><div xmlns="http://www.w3.org/1999/xhtml" style="display: inline-block; white-space: nowrap;"><span class="nodeLabel">InProgress</span></div></foreignObject></g></g><g class="node  statediagram-state undefined" id="state-Linked-13" data-node="true" data-id="Linked" transform="translate(215.19921875, 505)"><rect class="basic label-container" style="" x="-31.0625" y="-17" width="62.125" height="34"></rect><g class="label" style="" transform="translate(-23.5625, -9.5)"><rect></rect><foreignObject width="47.125" height="19"><div xmlns="http://www.w3.org/1999/xhtml" style="display: inline-block; white-space: nowrap;"><span class="nodeLabel">Linked</span></div></foreignObject></g></g><g class="node  statediagram-state undefined" id="state-Migrated-15" data-node="true" data-id="Migrated" transform="translate(451.29296875, 505)"><rect class="basic label-container" style="" x="-38.78125" y="-17" width="77.5625" height="34"></rect><g class="label" style="" transform="translate(-31.28125, -9.5)"><rect></rect><foreignObject width="62.5625" height="19"><div xmlns="http://www.w3.org/1999/xhtml" style="display: inline-block; white-space: nowrap;"><span class="nodeLabel">Migrated</span></div></foreignObject></g></g><g class="node  statediagram-state undefined" id="state-Done-18" data-node="true" data-id="Done" transform="translate(776.8828125, 505)"><rect class="basic label-container" style="" x="-25.4375" y="-17" width="50.875" height="34"></rect><g class="label" style="" transform="translate(-17.9375, -9.5)"><rect></rect><foreignObject width="35.875" height="19"><div xmlns="http://www.w3.org/1999/xhtml" style="display: inline-block; white-space: nowrap;"><span class="nodeLabel">Done</span></div></foreignObject></g></g><g class="node  statediagram-state undefined" id="state-Archived-19" data-node="true" data-id="Archived" transform="translate(776.8828125, 608)"><rect class="basic label-container" style="" x="-38.6796875" y="-17" width="77.359375" height="34"></rect><g class="label" style="" transform="translate(-31.1796875, -9.5)"><rect></rect><foreignObject width="62.359375" height="19"><div xmlns="http://www.w3.org/1999/xhtml" style="display: inline-block; white-space: nowrap;"><span class="nodeLabel">Archived</span></div></foreignObject></g></g><g class="node default" id="state-root_end-19" data-node="true" data-id="root_end" transform="translate(776.8828125, 682)"><circle class="state-start" r="7" width="14" height="14"></circle><circle class="state-end" r="5" width="10" height="10"></circle></g><g class="node statediagram-note" id="state-Created----note-20" data-node="true" data-id="Created----note-20" transform="translate(570.44921875, 255)"><rect x="-129.3828125" y="-36" width="258.765625" height="72"></rect><g class="label" style="" transform="translate(-121.8828125, -28.5)"><rect></rect><foreignObject width="243.765625" height="57"><div xmlns="http://www.w3.org/1999/xhtml" style="display: inline-block; white-space: nowrap;"><span class="nodeLabel">Every transition emits a Socket.IO<br/>event to board_ and<br/>notifies assignees (SYSTEM).</span></div></foreignObject></g></g></g></g></g></svg>